<svg xmlns="http://www.w3.org/2000/svg" width="30.196" height="30.196" viewBox="0 0 30.196 30.196">
  <g id="Group_203" data-name="Group 203" transform="matrix(0.999, 0.035, -0.035, 0.999, 0.608, -0.44)">
    <path id="Path_145" data-name="Path 145" d="M574.483,647a1.9,1.9,0,0,1-1.9-1.829l-.238-6.31a1.9,1.9,0,0,1,3.8-.143l.238,6.31A1.9,1.9,0,0,1,574.555,647Z" transform="translate(-559.717 -636.891)"/>
    <path id="Path_146" data-name="Path 146" d="M575.076,662.732a1.9,1.9,0,0,1-1.9-1.83l-.237-6.307a1.9,1.9,0,0,1,1.827-1.972,1.875,1.875,0,0,1,1.972,1.829l.237,6.307a1.9,1.9,0,0,1-1.828,1.972Z" transform="translate(-559.559 -632.686)"/>
    <path id="Path_147" data-name="Path 147" d="M564.281,651.488a1.9,1.9,0,0,1-.071-3.8l6.309-.238a1.87,1.87,0,0,1,1.972,1.829,1.9,1.9,0,0,1-1.827,1.971l-6.309.238Z" transform="translate(-562.381 -634.069)"/>
    <path id="Path_148" data-name="Path 148" d="M580.012,650.893a1.9,1.9,0,0,1-.071-3.8l6.309-.237a1.872,1.872,0,0,1,1.972,1.827,1.9,1.9,0,0,1-1.829,1.972l-6.309.237Z" transform="translate(-558.176 -634.227)"/>
  </g>
</svg>
