<svg xmlns="http://www.w3.org/2000/svg" width="52.249" height="52.249" viewBox="0 0 52.249 52.249">
  <g id="Group_202" data-name="Group 202" transform="matrix(0.999, 0.035, -0.035, 0.999, 1.052, -0.762)">
    <path id="Path_145" data-name="Path 145" d="M576.044,654.385a3.291,3.291,0,0,1-3.285-3.164l-.412-10.918a3.289,3.289,0,0,1,6.574-.248l.412,10.918a3.289,3.289,0,0,1-3.164,3.41C576.128,654.385,576.086,654.385,576.044,654.385Z" transform="translate(-550.495 -636.891)"/>
    <path id="Path_146" data-name="Path 146" d="M576.636,670.118a3.291,3.291,0,0,1-3.285-3.167l-.41-10.914a3.288,3.288,0,0,1,3.162-3.412,3.245,3.245,0,0,1,3.412,3.164l.41,10.914a3.292,3.292,0,0,1-3.162,3.412C576.72,670.118,576.678,670.118,576.636,670.118Z" transform="translate(-549.787 -618.127)"/>
    <path id="Path_147" data-name="Path 147" d="M565.668,654.44a3.289,3.289,0,0,1-.123-6.577l10.916-.412a3.236,3.236,0,0,1,3.412,3.164,3.289,3.289,0,0,1-3.162,3.41l-10.916.412C565.751,654.44,565.71,654.44,565.668,654.44Z" transform="translate(-562.381 -624.299)"/>
    <path id="Path_148" data-name="Path 148" d="M581.4,653.844a3.289,3.289,0,0,1-.123-6.577l10.916-.41a3.24,3.24,0,0,1,3.412,3.162,3.293,3.293,0,0,1-3.164,3.412l-10.916.41C581.483,653.844,581.441,653.844,581.4,653.844Z" transform="translate(-543.616 -625.006)"/>
  </g>
</svg>
