<svg xmlns="http://www.w3.org/2000/svg" width="225.226" height="198.594" viewBox="0 0 225.226 198.594">
  <g id="Group_201" data-name="Group 201" transform="translate(-1933.343 -185.766)">
    <g id="Group_199" data-name="Group 199">
      <path id="Path_353" data-name="Path 353" d="M2094.751,297.645l-6.934,4.551,3.182,8.481a34.356,34.356,0,0,0-3.853,4.307l-8.778-2.191-3.73,7.408,7,5.756a34.924,34.924,0,0,0-1.173,5.651l-8.71,2.495.474,8.281,8.925,1.483a34.238,34.238,0,0,0,1.822,5.484l-6.294,6.515,4.55,6.934,8.482-3.182a34.346,34.346,0,0,0,4.306,3.853l-2.191,8.779,7.408,3.729,5.756-7a34.79,34.79,0,0,0,5.651,1.173l2.5,8.71,8.28-.474,1.483-8.925a34.259,34.259,0,0,0,5.484-1.822l6.515,6.295,6.934-4.551-3.182-8.482a34.275,34.275,0,0,0,3.853-4.306l8.779,2.191,3.729-7.408-7-5.756a34.9,34.9,0,0,0,1.172-5.651l8.71-2.5-.474-8.28-8.925-1.483a34.356,34.356,0,0,0-1.821-5.484l6.294-6.515-4.551-6.934-8.481,3.182a34.284,34.284,0,0,0-4.307-3.853l2.191-8.779-7.408-3.729-5.755,7a34.788,34.788,0,0,0-5.651-1.173l-2.5-8.71-8.281.474-1.483,8.925a34.357,34.357,0,0,0-5.484,1.821Zm37.925,26.432a21.351,21.351,0,1,1-29.565-6.136A21.351,21.351,0,0,1,2132.676,324.077Z" fill="#5479f7"/>
      <path id="Path_354" data-name="Path 354" d="M2112.308,384.36a1.5,1.5,0,0,1-1.442-1.087l-2.226-7.77a36.317,36.317,0,0,1-3.941-.818l-5.134,6.242a1.5,1.5,0,0,1-1.834.387l-7.408-3.729a1.5,1.5,0,0,1-.78-1.7l1.953-7.83a36.176,36.176,0,0,1-3.005-2.69l-7.562,2.838a1.5,1.5,0,0,1-1.782-.582l-4.55-6.934a1.5,1.5,0,0,1,.174-1.865l5.614-5.809a35.811,35.811,0,0,1-1.273-3.828l-7.961-1.323a1.5,1.5,0,0,1-1.251-1.394l-.473-8.281a1.5,1.5,0,0,1,1.084-1.527l7.769-2.226a36.6,36.6,0,0,1,.819-3.942l-6.244-5.134a1.5,1.5,0,0,1-.386-1.833l3.729-7.408a1.5,1.5,0,0,1,1.7-.781l7.829,1.954a35.849,35.849,0,0,1,2.691-3.006l-2.837-7.563a1.5,1.5,0,0,1,.581-1.781l6.934-4.55a1.5,1.5,0,0,1,1.865.175l5.81,5.613a35.9,35.9,0,0,1,3.828-1.273l1.323-7.96a1.5,1.5,0,0,1,1.393-1.252l8.281-.474a1.5,1.5,0,0,1,1.528,1.085l2.227,7.77a36.346,36.346,0,0,1,3.941.818l5.134-6.243a1.5,1.5,0,0,1,1.833-.387l7.408,3.73a1.5,1.5,0,0,1,.78,1.7l-1.953,7.829a36.136,36.136,0,0,1,3,2.69l7.563-2.837a1.5,1.5,0,0,1,1.781.581l4.55,6.934a1.5,1.5,0,0,1-.174,1.866l-5.613,5.809a36.09,36.09,0,0,1,1.273,3.828l7.96,1.323a1.5,1.5,0,0,1,1.251,1.394l.473,8.28a1.5,1.5,0,0,1-1.084,1.528l-7.769,2.226a36.529,36.529,0,0,1-.818,3.941l6.243,5.134a1.5,1.5,0,0,1,.386,1.833l-3.729,7.409a1.5,1.5,0,0,1-1.7.78l-7.829-1.953a35.948,35.948,0,0,1-2.691,3.005l2.837,7.563a1.5,1.5,0,0,1-.581,1.781l-6.933,4.551a1.5,1.5,0,0,1-1.866-.175l-5.809-5.613a35.968,35.968,0,0,1-3.828,1.272l-1.324,7.96a1.5,1.5,0,0,1-1.393,1.252l-8.28.474Zm-8.146-12.883a1.522,1.522,0,0,1,.426.061,33.3,33.3,0,0,0,5.406,1.122,1.5,1.5,0,0,1,1.261,1.076l2.165,7.557,5.886-.337,1.287-7.742a1.5,1.5,0,0,1,1.13-1.213,32.937,32.937,0,0,0,5.245-1.742,1.5,1.5,0,0,1,1.631.3l5.652,5.461,4.929-3.235-2.761-7.358a1.5,1.5,0,0,1,.373-1.617,32.984,32.984,0,0,0,3.685-4.117,1.5,1.5,0,0,1,1.562-.555l7.615,1.9,2.652-5.265-6.073-4.994a1.5,1.5,0,0,1-.485-1.584,33.407,33.407,0,0,0,1.122-5.408,1.5,1.5,0,0,1,1.076-1.26l7.557-2.165-.336-5.886-7.743-1.286a1.5,1.5,0,0,1-1.213-1.131,32.853,32.853,0,0,0-1.741-5.243,1.5,1.5,0,0,1,.3-1.632l5.46-5.652L2147,314.6l-7.358,2.761a1.5,1.5,0,0,1-1.618-.374,32.83,32.83,0,0,0-4.117-3.685,1.5,1.5,0,0,1-.553-1.562l1.9-7.615-5.266-2.651-4.993,6.072a1.5,1.5,0,0,1-1.584.485,33.473,33.473,0,0,0-5.407-1.122,1.5,1.5,0,0,1-1.261-1.075l-2.165-7.558-5.885.337-1.288,7.742a1.5,1.5,0,0,1-1.13,1.213,32.927,32.927,0,0,0-5.244,1.742,1.5,1.5,0,0,1-1.631-.3l-5.653-5.461-4.928,3.234,2.76,7.359a1.5,1.5,0,0,1-.373,1.616,32.968,32.968,0,0,0-3.684,4.118,1.5,1.5,0,0,1-1.563.554l-7.615-1.9-2.651,5.266,6.072,4.994a1.5,1.5,0,0,1,.485,1.583,33.5,33.5,0,0,0-1.121,5.408,1.5,1.5,0,0,1-1.076,1.26l-7.558,2.165.336,5.886,7.743,1.287a1.5,1.5,0,0,1,1.213,1.13,33.07,33.07,0,0,0,1.741,5.244,1.5,1.5,0,0,1-.3,1.632l-5.461,5.652,3.234,4.928,7.358-2.76a1.5,1.5,0,0,1,1.618.373,33.1,33.1,0,0,0,4.117,3.686,1.5,1.5,0,0,1,.554,1.562l-1.9,7.614,5.266,2.651,4.994-6.071A1.5,1.5,0,0,1,2104.162,371.477Zm9.881-8.832a23.058,23.058,0,0,1-4.689-.484,22.851,22.851,0,1,1,23.747-34.912h0a22.862,22.862,0,0,1-19.058,35.4Zm-.086-42.716a19.856,19.856,0,1,0,16.636,8.966h0a19.719,19.719,0,0,0-12.563-8.545A20,20,0,0,0,2113.957,319.929Z"/>
    </g>
    <g id="Group_200" data-name="Group 200">
      <path id="Path_355" data-name="Path 355" d="M1975.615,194.2l-11.865,7.787,5.445,14.514a58.768,58.768,0,0,0-6.594,7.369l-15.022-3.749-6.382,12.677,11.975,9.849a59.59,59.59,0,0,0-2.006,9.67l-14.905,4.27.811,14.169,15.272,2.538a58.89,58.89,0,0,0,3.117,9.385l-10.77,11.148,7.787,11.865,14.514-5.445a58.841,58.841,0,0,0,7.368,6.594l-3.748,15.021,12.676,6.382,9.849-11.975a59.637,59.637,0,0,0,9.67,2.008l4.271,14.9,14.169-.811,2.538-15.273a58.651,58.651,0,0,0,9.384-3.117l11.148,10.771,11.866-7.787-5.445-14.513a58.913,58.913,0,0,0,6.593-7.37l15.022,3.749,6.382-12.677L2066.76,276.3a59.478,59.478,0,0,0,2.007-9.669l14.905-4.271-.811-14.169-15.273-2.538a58.813,58.813,0,0,0-3.117-9.384l10.77-11.149-7.787-11.865-14.513,5.445a58.749,58.749,0,0,0-7.369-6.594l3.748-15.021-12.676-6.382-9.848,11.975a59.52,59.52,0,0,0-9.67-2.007l-4.271-14.9-14.17.811-2.538,15.273a58.655,58.655,0,0,0-9.384,3.117Zm64.9,45.229a36.536,36.536,0,1,1-50.591-10.5A36.535,36.535,0,0,1,2040.511,239.425Z" fill="#5479f7"/>
      <path id="Path_356" data-name="Path 356" d="M2005.658,341.514a1.5,1.5,0,0,1-1.441-1.087l-4-13.958a61.317,61.317,0,0,1-7.966-1.654l-9.225,11.215a1.5,1.5,0,0,1-1.833.387l-12.676-6.382a1.5,1.5,0,0,1-.781-1.7l3.51-14.066a60.58,60.58,0,0,1-6.071-5.435l-13.589,5.1a1.5,1.5,0,0,1-1.781-.581l-7.787-11.866a1.5,1.5,0,0,1,.174-1.865l10.085-10.438a60.626,60.626,0,0,1-2.57-7.734l-14.3-2.376a1.5,1.5,0,0,1-1.251-1.394l-.81-14.17a1.5,1.5,0,0,1,1.084-1.527l13.959-4a61.2,61.2,0,0,1,1.653-7.966l-11.216-9.223a1.5,1.5,0,0,1-.386-1.833l6.382-12.677a1.5,1.5,0,0,1,1.7-.781l14.066,3.51a60.65,60.65,0,0,1,5.435-6.072l-5.1-13.589a1.5,1.5,0,0,1,.581-1.781l11.865-7.787a1.5,1.5,0,0,1,1.865.175l10.44,10.085a60.441,60.441,0,0,1,7.732-2.57l2.377-14.3a1.5,1.5,0,0,1,1.394-1.252l14.169-.811a1.508,1.508,0,0,1,1.528,1.084l4,13.959a61.207,61.207,0,0,1,7.966,1.653l9.223-11.215a1.5,1.5,0,0,1,1.833-.386l12.676,6.382a1.5,1.5,0,0,1,.78,1.7l-3.509,14.065a60.543,60.543,0,0,1,6.072,5.435l13.589-5.1a1.5,1.5,0,0,1,1.781.581l7.787,11.866A1.5,1.5,0,0,1,2074.9,233l-10.084,10.439a60.526,60.526,0,0,1,2.57,7.733l14.3,2.377a1.5,1.5,0,0,1,1.251,1.394l.81,14.169a1.5,1.5,0,0,1-1.084,1.528l-13.958,4a61.374,61.374,0,0,1-1.653,7.966l11.215,9.224a1.5,1.5,0,0,1,.386,1.833l-6.383,12.676a1.5,1.5,0,0,1-1.7.781l-14.065-3.51a60.646,60.646,0,0,1-5.435,6.072l5.1,13.589a1.5,1.5,0,0,1-.581,1.781l-11.865,7.787a1.5,1.5,0,0,1-1.866-.175l-10.439-10.085a60.657,60.657,0,0,1-7.732,2.571l-2.377,14.3a1.5,1.5,0,0,1-1.394,1.251l-14.169.811C2005.716,341.513,2005.688,341.514,2005.658,341.514ZM1991.719,321.6a1.494,1.494,0,0,1,.426.062,58.321,58.321,0,0,0,9.425,1.956,1.5,1.5,0,0,1,1.261,1.076l3.939,13.752,11.775-.674,2.342-14.09a1.5,1.5,0,0,1,1.13-1.213,57.513,57.513,0,0,0,9.144-3.037,1.5,1.5,0,0,1,1.631.3l10.286,9.937,9.861-6.471-5.024-13.39a1.5,1.5,0,0,1,.373-1.616,57.612,57.612,0,0,0,6.425-7.181,1.5,1.5,0,0,1,1.562-.554l13.858,3.458,5.3-10.534-11.049-9.088a1.5,1.5,0,0,1-.486-1.583,58.2,58.2,0,0,0,1.956-9.427,1.5,1.5,0,0,1,1.076-1.26l13.751-3.94-.672-11.775-14.091-2.341a1.5,1.5,0,0,1-1.213-1.13,57.383,57.383,0,0,0-3.037-9.144,1.5,1.5,0,0,1,.3-1.632l9.936-10.286-6.47-9.86-13.39,5.024a1.5,1.5,0,0,1-1.617-.373,57.407,57.407,0,0,0-7.181-6.426,1.5,1.5,0,0,1-.554-1.562l3.457-13.858-10.533-5.3-9.087,11.049a1.5,1.5,0,0,1-1.584.486,58.18,58.18,0,0,0-9.426-1.956,1.5,1.5,0,0,1-1.26-1.076l-3.941-13.752-11.774.673-2.342,14.09a1.5,1.5,0,0,1-1.13,1.213,57.521,57.521,0,0,0-9.144,3.038,1.5,1.5,0,0,1-1.631-.3l-10.286-9.937-9.86,6.471,5.024,13.39a1.5,1.5,0,0,1-.373,1.617,57.334,57.334,0,0,0-6.426,7.18,1.5,1.5,0,0,1-1.563.555l-13.857-3.459-5.305,10.535,11.05,9.087a1.5,1.5,0,0,1,.485,1.584,58.175,58.175,0,0,0-1.956,9.426,1.5,1.5,0,0,1-1.076,1.26l-13.752,3.94.673,11.775,14.091,2.341a1.5,1.5,0,0,1,1.213,1.13,57.3,57.3,0,0,0,3.038,9.145,1.5,1.5,0,0,1-.3,1.632l-9.937,10.285,6.47,9.86,13.391-5.023a1.5,1.5,0,0,1,1.617.373,57.373,57.373,0,0,0,7.18,6.425,1.5,1.5,0,0,1,.553,1.562l-3.457,13.858,10.534,5.3,9.087-11.049A1.5,1.5,0,0,1,1991.719,321.6Zm16.906-17.246a38.345,38.345,0,0,1-7.806-.806,38.036,38.036,0,1,1,39.528-58.111h0a38.053,38.053,0,0,1-31.722,58.917Zm-.132-73.073a35.027,35.027,0,1,0,29.346,15.8h0A35.04,35.04,0,0,0,2008.493,231.283Z"/>
    </g>
  </g>
</svg>
