<svg xmlns="http://www.w3.org/2000/svg" width="427.881" height="416.257" viewBox="0 0 427.881 416.257">
  <g id="Keyword_research" data-name="Keyword research" transform="translate(-241.087 -211.718)">
    <path id="Path_2" data-name="Path 2" d="M693.4,767.348l-1.289-4.708-5.322.242a20.206,20.206,0,0,0-1.711-2.939l2.818-4.517-3.468-3.432-4.489,2.873a20.445,20.445,0,0,0-2.948-1.682l.184-5.33-4.719-1.237-2.448,4.728a20.193,20.193,0,0,0-3.4.024l-2.5-4.706-4.7,1.289.242,5.326a20.181,20.181,0,0,0-2.937,1.711L652.2,752.17l-3.43,3.47,2.871,4.493a20.483,20.483,0,0,0-1.681,2.951l-5.326-.184-1.236,4.722,4.724,2.451a20.216,20.216,0,0,0,.024,3.4l-4.7,2.505,1.288,4.708,5.322-.242a20.242,20.242,0,0,0,1.71,2.939l-2.817,4.517,3.468,3.432,4.489-2.873a20.451,20.451,0,0,0,2.949,1.682l-.184,5.329,4.719,1.237,2.449-4.727a20.192,20.192,0,0,0,3.4-.024l2.5,4.706,4.7-1.289-.242-5.326a20.264,20.264,0,0,0,2.937-1.712l4.513,2.82,3.43-3.471-2.871-4.492a20.492,20.492,0,0,0,1.681-2.951l5.325.184,1.237-4.722-4.724-2.45a20.228,20.228,0,0,0-.024-3.4Zm-21.666,16.434a12.565,12.565,0,1,1,8.8-15.438A12.555,12.555,0,0,1,671.737,783.782Z" transform="translate(-194.528 -258.64)" fill="#fff"/>
    <path id="Path_3" data-name="Path 3" d="M762.1,716.284l-.711-2.6-2.936.134a11.109,11.109,0,0,0-.944-1.622l1.555-2.492-1.913-1.894-2.477,1.586a11.276,11.276,0,0,0-1.627-.928l.1-2.941-2.6-.683-1.351,2.608a11.2,11.2,0,0,0-1.875.013l-1.381-2.6-2.6.711.133,2.939a11.128,11.128,0,0,0-1.62.944l-2.49-1.556-1.893,1.915,1.584,2.479a11.3,11.3,0,0,0-.928,1.628l-2.938-.1-.683,2.6,2.607,1.352a11.157,11.157,0,0,0,.014,1.876l-2.6,1.382.711,2.6,2.937-.133a11.174,11.174,0,0,0,.944,1.621l-1.555,2.492,1.914,1.894,2.477-1.585a11.3,11.3,0,0,0,1.627.928l-.1,2.941,2.6.683,1.351-2.609a11.113,11.113,0,0,0,1.875-.013l1.381,2.6,2.6-.711-.133-2.939a11.164,11.164,0,0,0,1.62-.944l2.49,1.556,1.893-1.915-1.584-2.479a11.336,11.336,0,0,0,.928-1.628l2.938.1.682-2.606-2.606-1.352a11.171,11.171,0,0,0-.014-1.876Zm-11.955,9.068A6.933,6.933,0,1,1,755,716.834,6.927,6.927,0,0,1,750.143,725.352Z" transform="translate(-238.582 -238.443)" fill="#fff"/>
    <g id="Group_39" data-name="Group 39" transform="translate(241.087 345.586)">
      <path id="Path_4" data-name="Path 4" d="M517.551,916.474,493.61,821.486l-23.942,94.987h-5.739l26.306-105.6,6.748-.01L523.29,916.474Z" transform="translate(-348.838 -635.29)" fill="#fff"/>
      <path id="Path_5" data-name="Path 5" d="M531.637,916.523H525.9a.775.775,0,0,1-.751-.586l-23.19-92.007-19.24,76.33a.775.775,0,0,1-1.5-.378L501.2,820.571a.775.775,0,0,1,1.5,0l23.794,94.4h4.144L504.724,810.911l-6.142.009h0a.775.775,0,0,1,0-1.549l6.748-.01h0a.774.774,0,0,1,.751.588l26.308,105.612a.775.775,0,0,1-.751.962Z" transform="translate(-357.184 -634.564)"/>
      <g id="Group_32" data-name="Group 32" transform="translate(0.608)">
        <g id="Group_1" data-name="Group 1" transform="translate(0 97.106)">
          <path id="Path_6" data-name="Path 6" d="M310.014,679.032v17.554c0,17.168,13.556,31.085,30.278,31.085h0c16.722,0,30.278,13.917,30.278,31.085h0a2.769,2.769,0,0,1-2.768,2.77H287.655c-25.068,0-45.39-20.864-45.39-46.6V677.47a18.3,18.3,0,0,1,18.053-18.535H290.44A19.841,19.841,0,0,1,310.014,679.032Z" transform="translate(-242.265 -658.935)" fill="#5479f7"/>
          <rect id="Rectangle_2" data-name="Rectangle 2" width="7.263" height="84.564" transform="translate(62.92 96.78)" fill="#5479f7"/>
          <path id="Path_7" data-name="Path 7" d="M373.459,1007.608l-32.142-2.822h-2.947l-32.814,2.822v2.239h67.9Z" transform="translate(-272.867 -826.164)" fill="#5479f7"/>
        </g>
        <g id="Group_31" data-name="Group 31" transform="translate(9.932)">
          <g id="Group_10" data-name="Group 10" transform="translate(22.545 160.185)">
            <g id="Group_2" data-name="Group 2" transform="translate(7.212 44.109)">
              <path id="Path_8" data-name="Path 8" d="M328.487,867.975l-7.876,6.712,4.924,4.607,9.278-5.95Z" transform="translate(-319.836 -867.2)" fill="#fff"/>
              <path id="Path_9" data-name="Path 9" d="M324.81,879.344a.775.775,0,0,1-.53-.209l-4.924-4.607a.775.775,0,0,1,.027-1.155l7.876-6.712a.774.774,0,0,1,1,0l6.325,5.37a.774.774,0,0,1-.083,1.243l-9.277,5.95A.77.77,0,0,1,324.81,879.344Zm-3.761-5.355,3.85,3.6,7.889-5.059-5.025-4.266Z" transform="translate(-319.111 -866.474)"/>
            </g>
            <g id="Group_5" data-name="Group 5" transform="translate(2.366 47.715)">
              <g id="Group_3" data-name="Group 3">
                <path id="Path_10" data-name="Path 10" d="M317.242,875.141a57.252,57.252,0,0,0-5.136,4.514,3.111,3.111,0,0,0-.179,4.127,122.358,122.358,0,0,0,16.281,16.192,2.2,2.2,0,0,0,2.714-.08c4.17-2.928-1.464-9.921-5.787-19.242l-2.32.012a3.065,3.065,0,0,1-2.835-1.863l-1.416-3.32A.859.859,0,0,0,317.242,875.141Z" transform="translate(-310.454 -874.182)" fill="#5479f7"/>
                <path id="Path_11" data-name="Path 11" d="M328.735,900.448a2.8,2.8,0,0,1-1.737-.594,122.21,122.21,0,0,1-16.4-16.311,3.883,3.883,0,0,1,.229-5.155,58.207,58.207,0,0,1,5.21-4.581h0a1.634,1.634,0,0,1,2.513.647l1.416,3.318a2.285,2.285,0,0,0,2.106,1.393h.012l2.818-.014.209.451c1.073,2.314,2.255,4.536,3.3,6.5,3.306,6.211,5.918,11.117,2.23,13.706A3.294,3.294,0,0,1,328.735,900.448Zm-11.74-25.424a56.761,56.761,0,0,0-5.061,4.448,2.334,2.334,0,0,0-.13,3.1,122.6,122.6,0,0,0,16.161,16.074,1.432,1.432,0,0,0,1.785-.109c2.447-1.719.661-5.382-2.708-11.71-.985-1.851-2.093-3.933-3.126-6.121l-1.825.009h-.021a3.831,3.831,0,0,1-3.531-2.335l-1.416-3.319a.081.081,0,0,0-.058-.051.075.075,0,0,0-.071.014Z" transform="translate(-309.728 -873.456)"/>
              </g>
              <g id="Group_4" data-name="Group 4" transform="translate(0 4.431)">
                <path id="Path_12" data-name="Path 12" d="M312.371,883.536s-.18.18-.265.268a3.111,3.111,0,0,0-.179,4.127,122.365,122.365,0,0,0,16.281,16.192,2.2,2.2,0,0,0,2.714-.08,6.432,6.432,0,0,0,.891-.881l-.457-.4a176.72,176.72,0,0,1-18.223-18.34Z" transform="translate(-310.454 -882.762)" fill="#fff"/>
                <path id="Path_13" data-name="Path 13" d="M328.735,904.6A2.8,2.8,0,0,1,327,904a122.21,122.21,0,0,1-16.4-16.311,3.883,3.883,0,0,1,.229-5.155l.271-.272a.8.8,0,0,1,.577-.227.774.774,0,0,1,.559.27l.761.887a176.507,176.507,0,0,0,18.143,18.261l.457.4a.775.775,0,0,1,.086,1.082,6.9,6.9,0,0,1-1.04,1.018A3.3,3.3,0,0,1,328.735,904.6Zm-17.1-20.6a2.344,2.344,0,0,0,.166,2.727,122.6,122.6,0,0,0,16.161,16.073,1.432,1.432,0,0,0,1.785-.109,2.113,2.113,0,0,0,.222-.19A178.053,178.053,0,0,1,311.818,884.2Z" transform="translate(-309.728 -882.036)"/>
              </g>
              <path id="Path_14" data-name="Path 14" d="M333.2,896.621a.775.775,0,0,1-.028-1.549l4.385-.165a.775.775,0,1,1,.058,1.548l-4.385.165Z" transform="translate(-320.703 -883.828)"/>
              <path id="Path_15" data-name="Path 15" d="M336.994,902.426a.775.775,0,0,1-.091-1.544l4.241-.506a.774.774,0,1,1,.184,1.538l-4.242.507A.707.707,0,0,1,336.994,902.426Z" transform="translate(-322.538 -886.469)"/>
            </g>
            <path id="Path_16" data-name="Path 16" d="M411.481,789.768c.9,1.5,4.225,7.956,2.143,12.339,0,0-.352.639-.778,1.256-2.545,3.675-9.16,6.924-32.576,11.481a187.44,187.44,0,0,0-52,18.236s-8-1.637-8.74-7.01a2.456,2.456,0,0,1,1.023-2.3l5.512-3.995-5.228-2.787a26.534,26.534,0,0,1-12.828-14.838c-1.917-5.741-2.866-15.564-2.866-15.564,30.1-2.785,54.779-4.906,73.048-5.5C378.195,781.091,405.774,780.2,411.481,789.768Z" transform="translate(-305.147 -781.069)"/>
            <g id="Group_6" data-name="Group 6" transform="translate(75.987 98.805)">
              <path id="Path_17" data-name="Path 17" d="M453.775,975.569l2.784,10.22,7.325-2.814-2.356-9.1Z" transform="translate(-453.001 -973.102)" fill="#fff"/>
              <path id="Path_18" data-name="Path 18" d="M455.834,985.838a.775.775,0,0,1-.747-.571L452.3,975.048a.775.775,0,0,1,.583-.961l7.753-1.692a.776.776,0,0,1,.915.563l2.356,9.1a.776.776,0,0,1-.472.918l-7.325,2.813A.783.783,0,0,1,455.834,985.838Zm-1.822-10.411,2.344,8.606,5.879-2.258-2-7.707Z" transform="translate(-452.275 -972.377)"/>
            </g>
            <g id="Group_9" data-name="Group 9" transform="translate(74.306 105.859)">
              <g id="Group_7" data-name="Group 7" transform="translate(0.258)">
                <path id="Path_19" data-name="Path 19" d="M452.6,988.215c-.4,1.552-1.23,5.919-1.559,8.542a3.275,3.275,0,0,0,2.481,3.574c4.551,1.121,15.371.846,24.387,1.056a2.318,2.318,0,0,0,2.224-1.8c1.628-5.118-8.1-6.454-17.666-11.506a8.989,8.989,0,0,1-1.373.909,5.762,5.762,0,0,1-4.992-.095l-2.177-1.239A.905.905,0,0,0,452.6,988.215Z" transform="translate(-450.243 -986.761)" fill="#5479f7"/>
                <path id="Path_20" data-name="Path 20" d="M477.228,1001.435h-.059c-2.3-.054-4.758-.076-7.132-.1-7.173-.065-13.948-.125-17.422-.981a4.048,4.048,0,0,1-3.064-4.423c.329-2.627,1.157-7.02,1.577-8.641h0a1.68,1.68,0,0,1,2.458-1.037l2.177,1.239a5.018,5.018,0,0,0,4.24.087,8.315,8.315,0,0,0,1.244-.821l.4-.334.461.242a91.981,91.981,0,0,0,8.552,3.826c6.051,2.452,10.83,4.389,9.491,8.6A3.1,3.1,0,0,1,477.228,1001.435Zm-24.475-13.85a.131.131,0,0,0-.051.011.121.121,0,0,0-.074.087h0c-.406,1.563-1.226,5.939-1.541,8.444a2.5,2.5,0,0,0,1.9,2.726c3.3.812,10.3.875,17.066.936,2.379.021,4.84.043,7.154.1.181.014,1.078-.037,1.467-1.26.863-2.711-2.528-4.234-8.6-6.693-2.535-1.027-5.392-2.185-8.254-3.663a10.315,10.315,0,0,1-1.082.677,6.486,6.486,0,0,1-5.743-.1l-2.178-1.239A.132.132,0,0,0,452.753,987.586Zm-.876-.1h0Z" transform="translate(-449.518 -986.035)"/>
              </g>
              <g id="Group_8" data-name="Group 8" transform="translate(0 8.573)">
                <path id="Path_21" data-name="Path 21" d="M450.555,1005.973c-.008.046-.013.078-.015.092-.207,1.646,1.386,2.623,2.9,3.291,4.591,2.023,23.2.362,23.2.362s2.5.026,3.158-1.471a2.761,2.761,0,0,0,.165-.818,2.708,2.708,0,0,0-.075-.872l-.166-.671c-2.533,1.007-13.934,1.774-22.208.749a17.031,17.031,0,0,1-6.639-2.5S450.721,1005.032,450.555,1005.973Z" transform="translate(-449.746 -1003.361)" fill="#fff"/>
                <path id="Path_22" data-name="Path 22" d="M462.289,1010.408c-4.118,0-8.033-.252-9.885-1.068-1-.442-3.671-1.617-3.36-4.1,0-.02.01-.066.021-.131l.327-1.839a.775.775,0,0,1,1.1-.558c.232.115.5.263.8.433a14.234,14.234,0,0,0,5.595,1.992c8.148,1.01,19.367.278,21.827-.7a.775.775,0,0,1,1.038.534l.166.67a3.509,3.509,0,0,1,.1,1.12,3.35,3.35,0,0,1-.229,1.07c-.813,1.836-3.446,1.928-3.832,1.932C475.26,1009.829,468.54,1010.408,462.289,1010.408Zm-11.56-5.8-.138.774h0l-.01.059c-.115.916.64,1.682,2.448,2.479,4.358,1.921,22.638.315,22.822.3.025,0,.052,0,.077,0h.011c.526,0,2.064-.183,2.43-1.01a1.935,1.935,0,0,0,.1-.568,1.893,1.893,0,0,0-.028-.5c-3.707.918-13.946,1.505-21.743.538A15.353,15.353,0,0,1,450.729,1004.608Zm-.9.639h0Z" transform="translate(-449.019 -1002.635)"/>
              </g>
              <path id="Path_23" data-name="Path 23" d="M474.475,994.812a.775.775,0,0,1-.48-1.384l2.69-2.119a.775.775,0,0,1,.959,1.217l-2.69,2.119A.771.771,0,0,1,474.475,994.812Z" transform="translate(-460.953 -988.506)"/>
              <path id="Path_24" data-name="Path 24" d="M481.563,997.8a.775.775,0,0,1-.476-1.387l2.354-1.827a.775.775,0,0,1,.95,1.224l-2.354,1.828A.774.774,0,0,1,481.563,997.8Z" transform="translate(-464.38 -990.09)"/>
            </g>
            <path id="Path_25" data-name="Path 25" d="M373.583,834.682s9.585,1.974,14.659,8.181c5.014,6.134,9.878,17.7,12.169,60.763a1.922,1.922,0,0,1-1.47,1.973c-2.6.625-7.809,1.6-10.289.156-3.383-1.975-6.612-41.168-14.223-47.375s-45.106-15.235-51.308-23.135,9.021-7.9,9.021-7.9Z" transform="translate(-313.12 -803.446)"/>
            <path id="Path_26" data-name="Path 26" d="M349.44,835.97a.775.775,0,0,1-.505-1.362c14.783-12.7,27.674-16.9,34.043-18.271a.775.775,0,1,1,.326,1.515c-6.224,1.342-18.836,5.456-33.359,17.931A.772.772,0,0,1,349.44,835.97Z" transform="translate(-326.189 -798.114)" fill="#caddff"/>
          </g>
          <g id="Group_27" data-name="Group 27">
            <g id="Group_11" data-name="Group 11" transform="translate(0 100.706)">
              <path id="Path_27" data-name="Path 27" d="M281.174,668.93s-11.3.7-15.869,6.855c-3.032,4.082-2.75,12.448-1.142,24.659,1.061,8.055,3.014,12.065,4.9,17.015,4.737,12.456,12,15.865,19.609,16.562,9.49.869,37.3.125,47.976-1.928,1.724-.332,3.813-1.525,3.912-2.818.2-2.6-.141-9.222-3.56-9.2-8.339.055-13.29.083-13.29.083s-12.883-17.828-7.79-19.479c1.718-.557,13.972,10.941,24.119,9.481,8.593-1.236,10.461-31.972,10.461-31.972s1.056-5.513-2.376-7.961c-.113-.081-.237-.163-.369-.245a4.846,4.846,0,0,0-7.152,2.694c-1.45,4.619-5.226,16.023-7.11,15.836-7.938-.787-13.3-22.854-39.055-20.993h0Z" transform="translate(-262.212 -666.631)" fill="#fff"/>
              <path id="Path_28" data-name="Path 28" d="M299.4,734.426c-4.8,0-8.9-.119-11.521-.359-6.128-.562-14.894-2.941-20.263-17.058-.283-.744-.567-1.466-.85-2.184a55.937,55.937,0,0,1-4.09-15.005c-1.577-11.975-1.962-20.847,1.289-25.223,4.683-6.3,15.739-7.12,16.425-7.164l13.245-1.41c17.419-1.264,25.63,8.056,31.624,14.857,2.877,3.266,5.156,5.851,7.524,6.128.9-.457,3.255-5.4,6.36-15.291a5.608,5.608,0,0,1,3.413-3.6,5.551,5.551,0,0,1,4.884.476c.148.092.287.184.413.275,3.645,2.6,2.807,8.051,2.695,8.684-.211,3.425-2.2,31.362-11.122,32.645-7.255,1.046-15.432-4.2-20.319-7.338a21.719,21.719,0,0,0-3.736-2.15.8.8,0,0,0-.5.546c-.9,2.763,4.647,11.989,8.512,17.4,1.332-.008,5.931-.035,12.89-.081h.023a3.141,3.141,0,0,1,2.368,1.063c1.926,2.067,2.115,6.772,1.947,8.971-.143,1.853-2.74,3.174-4.538,3.519C328.118,733.658,311.551,734.426,299.4,734.426Zm-2.665-66.97q-1.434,0-2.962.109l-13.235,1.41-.034,0c-.109.007-11,.755-15.3,6.543-2.939,3.957-2.524,12.494-1,24.1a54.647,54.647,0,0,0,4,14.64c.285.724.572,1.452.856,2.2,5,13.159,12.758,15.5,18.955,16.066,8.955.82,36.992.153,47.76-1.917,1.6-.308,3.227-1.356,3.286-2.117.169-2.2-.1-6.253-1.535-7.8a1.607,1.607,0,0,0-1.235-.571h-.012c-8.339.055-13.291.083-13.291.083h0a.776.776,0,0,1-.628-.321c-1.072-1.483-10.428-14.619-8.961-19.108a2.348,2.348,0,0,1,1.56-1.562c.843-.272,1.94.388,4.985,2.342,4.705,3.019,12.58,8.068,19.262,7.109,6.535-.94,9.289-22.879,9.8-31.252a.793.793,0,0,1,.012-.1c.009-.05.915-5.059-2.065-7.185-.1-.073-.21-.145-.326-.217a4.007,4.007,0,0,0-3.529-.342,4.067,4.067,0,0,0-2.476,2.61c-5.225,16.644-7.117,16.456-7.926,16.375-3-.3-5.47-3.1-8.6-6.652C318.672,675.748,311.364,667.456,296.736,667.456Zm-16.28.748h0Z" transform="translate(-261.495 -665.906)"/>
            </g>
            <path id="Path_29" data-name="Path 29" d="M335.64,740.821h-.005c-5.986-.042-26.438-3.089-28.768-5.787-4.126-4.777-11.032-16.035-12-25.912a.775.775,0,1,1,1.542-.151c.934,9.52,7.63,20.418,11.632,25.05,1.591,1.842,20.414,5.2,27.606,5.25a.775.775,0,0,1-.006,1.549Z" transform="translate(-277.628 -585.685)"/>
            <path id="Path_30" data-name="Path 30" d="M395.174,778.754a.774.774,0,0,1-.613-.3,4.068,4.068,0,0,1-.916-3.369c.467-2.363,3.068-3.881,3.178-3.945a.775.775,0,0,1,.773,1.343h0c-.021.012-2.106,1.236-2.432,2.906a2.557,2.557,0,0,0,.62,2.114.774.774,0,0,1-.612,1.249Z" transform="translate(-325.359 -616.034)"/>
            <path id="Path_31" data-name="Path 31" d="M409.762,787.76h21.724a6.682,6.682,0,0,0-6.682-6.682h-8.361a6.682,6.682,0,0,0-6.682,6.682Z" transform="translate(-333.187 -620.889)" fill="#5479f7"/>
            <g id="Group_12" data-name="Group 12" transform="translate(72.004 153.838)">
              <path id="Path_32" data-name="Path 32" d="M403.036,773.829a2.647,2.647,0,0,1,1.666-1.019,10.244,10.244,0,0,0,1.413-.353l6.363-2.006a4.543,4.543,0,0,1,3.457.389c3.193,1.759,9.745,5.72,8.707,8.1-1.12,2.563-6.936.162-8.983-.78a1.968,1.968,0,0,0-1.5-.06,34.3,34.3,0,0,1-5.132,1.472,4.109,4.109,0,0,1-3.085-1.074,3.13,3.13,0,0,0-1.376-.6,2.691,2.691,0,0,1-1.884-1.357l-.009-.017a2.307,2.307,0,0,1,.2-2.485Z" transform="translate(-401.634 -769.503)" fill="#fff"/>
              <path id="Path_33" data-name="Path 33" d="M421.61,780.131c-2.272,0-5.225-1.177-7-1.993a1.2,1.2,0,0,0-.913-.033,34.694,34.694,0,0,1-5.281,1.509,4.75,4.75,0,0,1-3.675-1.234,2.356,2.356,0,0,0-1.042-.451,3.458,3.458,0,0,1-2.42-1.753,3.093,3.093,0,0,1,.263-3.337l.154-.2h0a3.412,3.412,0,0,1,2.155-1.313,9.289,9.289,0,0,0,1.305-.327l6.363-2.006a5.353,5.353,0,0,1,4.063.45c6.959,3.834,10,6.891,9.044,9.085a2.526,2.526,0,0,1-1.46,1.358A4.407,4.407,0,0,1,421.61,780.131Zm-7.49-3.65a2.721,2.721,0,0,1,1.139.249c3.306,1.522,6.125,2.173,7.359,1.7a.972.972,0,0,0,.591-.531c.423-.969-2.016-3.607-8.371-7.108a3.75,3.75,0,0,0-2.874-.322l-6.339,2a10.879,10.879,0,0,1-1.521.379,1.871,1.871,0,0,0-1.175.726l-.154.2a1.534,1.534,0,0,0-.135,1.65,1.927,1.927,0,0,0,1.356.978,3.919,3.919,0,0,1,1.71.758,3.314,3.314,0,0,0,2.495.914,31.471,31.471,0,0,0,4.983-1.435A2.816,2.816,0,0,1,414.12,776.481Z" transform="translate(-400.912 -768.78)"/>
            </g>
            <g id="Group_19" data-name="Group 19" transform="translate(78.451 75.304)">
              <g id="Group_18" data-name="Group 18">
                <g id="Group_13" data-name="Group 13" transform="translate(0.601)">
                  <path id="Path_34" data-name="Path 34" d="M416.056,619.852l6.18,29.718c.452,2.177,1.91,3.691,3.255,3.381l2.215-.51c1.345-.309,2.068-2.325,1.616-4.5l-6.18-29.718Z" transform="translate(-415.281 -617.447)" fill="#5479f7"/>
                  <path id="Path_35" data-name="Path 35" d="M424.409,653.041a2.712,2.712,0,0,1-1.467-.459,5.6,5.6,0,0,1-2.19-3.58l-6.18-29.718a.775.775,0,0,1,.585-.913l7.086-1.631a.775.775,0,0,1,.932.6l6.18,29.718c.546,2.627-.42,5.006-2.2,5.415l-2.215.51A2.364,2.364,0,0,1,424.409,653.041Zm-8.165-33.329,6.026,28.974a4.113,4.113,0,0,0,1.509,2.592,1.063,1.063,0,0,0,.814.192l2.215-.509c.8-.185,1.423-1.7,1.031-3.59l-6.018-28.943Z" transform="translate(-414.556 -616.721)"/>
                </g>
                <g id="Group_14" data-name="Group 14" transform="translate(0 10.416)">
                  <path id="Path_36" data-name="Path 36" d="M417.5,659.453a2.284,2.284,0,0,1-1.294-2.821c1.113-3.408,1.9-6.622.619-8.474-1.108-1.608-2.154-3.2-1.891-5.1l.369-2.848c.065-.445-.07-2.08,1.156-1.79.928.22,1.319,1.032,1.855,4.608A4.186,4.186,0,0,0,420.5,646.4a4.126,4.126,0,0,1-.053-.908,4.857,4.857,0,0,1,2.189-3.8c1.6-1.063,4.278-2.485,5.866-.7,1.1,1.24,1.534,4.037-.4,6.762-.454.639-2.987,3.407-2.987,3.407-.487.653-1.548,7.316-1.548,7.316C422.927,661.972,420.279,660.6,417.5,659.453Z" transform="translate(-414.118 -637.615)" fill="#fff"/>
                  <path id="Path_37" data-name="Path 37" d="M420.748,660.761a10.61,10.61,0,0,1-3.742-1.1l-.528-.221h0a3.072,3.072,0,0,1-1.734-3.777c1.017-3.113,1.808-6.213.718-7.794-1.04-1.508-2.333-3.384-2.021-5.641l.369-2.842c.009-.063.011-.135.016-.219a2.553,2.553,0,0,1,.754-2,1.543,1.543,0,0,1,1.332-.229c1.469.348,1.9,1.616,2.442,5.247a3.951,3.951,0,0,0,.674,1.838,5.683,5.683,0,0,1,2.455-3.7c3.831-2.55,5.853-1.719,6.874-.572,1.386,1.556,1.735,4.792-.349,7.725-.448.631-2.6,2.989-3,3.435a58.415,58.415,0,0,0-1.4,6.962,3.365,3.365,0,0,1-1.543,2.573A2.715,2.715,0,0,1,420.748,660.761Zm-3.678-2.75.537.224c1.465.615,2.981,1.253,3.721.85a2.005,2.005,0,0,0,.753-1.472c.495-3.108,1.192-6.973,1.689-7.64.016-.021.032-.04.05-.06,1.005-1.1,2.614-2.893,2.926-3.333,1.816-2.556,1.242-4.912.454-5.8-.892-1-2.527-.722-4.858.831A4.087,4.087,0,0,0,420.5,644.8a3.4,3.4,0,0,0,.041.736.775.775,0,0,1-1.168.8,4.935,4.935,0,0,1-2.548-3.914c-.528-3.525-.873-3.876-1.267-3.97a.392.392,0,0,0-.059-.011,2.916,2.916,0,0,0-.123.812c-.008.141-.016.261-.028.346l-.368,2.837c-.214,1.547.595,2.864,1.761,4.555,1.546,2.242.542,5.9-.521,9.154a1.516,1.516,0,0,0,.853,1.864Z" transform="translate(-413.393 -636.889)"/>
                </g>
                <g id="Group_17" data-name="Group 17" transform="translate(0.983 2.629)">
                  <g id="Group_15" data-name="Group 15">
                    <path id="Path_38" data-name="Path 38" d="M424.048,623.312,429.68,650.4c.452,2.177-.271,4.193-1.616,4.5l-2.215.51c-1.345.31-2.8-1.2-3.255-3.381l-5.8-27.843Z" transform="translate(-416.022 -622.537)" fill="#5479f7"/>
                    <path id="Path_39" data-name="Path 39" d="M424.767,655.5a2.712,2.712,0,0,1-1.467-.459,5.6,5.6,0,0,1-2.19-3.58l-5.8-27.843a.774.774,0,0,1,.666-.927l7.251-.877a.777.777,0,0,1,.852.612l5.632,27.088c.546,2.627-.42,5.006-2.2,5.415l-2.215.51A2.364,2.364,0,0,1,424.767,655.5ZM417,624.131l5.625,27.017a4.115,4.115,0,0,0,1.509,2.592,1.063,1.063,0,0,0,.814.192l2.215-.509c.8-.185,1.423-1.7,1.031-3.59l-5.487-26.392Z" transform="translate(-415.297 -621.812)"/>
                  </g>
                  <g id="Group_16" data-name="Group 16" transform="translate(4.295 9.539)">
                    <path id="Path_40" data-name="Path 40" d="M427.883,649.956a7.309,7.309,0,0,0,4.723-1.407c1.969-1.336,1.945-4.669.84-5.91-1.579-1.774-4.244-.374-5.842.687-1.295.859-2.518,2.565-2.489,3.756C425.16,648.9,425.811,649.747,427.883,649.956Z" transform="translate(-424.339 -641.012)" fill="#fff"/>
                    <path id="Path_41" data-name="Path 41" d="M431.215,650.8a.774.774,0,0,1-.594-1.272l.214-.257a7.637,7.637,0,0,1-3.756.721c-2.371-.24-3.407-1.325-3.465-3.626-.039-1.563,1.411-3.475,2.835-4.42,2.78-1.845,4.951-2.162,6.452-.938.028.024.293.265.4.383,1.414,1.588,1.749,4.751-.348,7.722-.043.062-.257.35-1.142,1.409A.771.771,0,0,1,431.215,650.8Zm-.429-8.974a7.223,7.223,0,0,0-3.48,1.411,4.785,4.785,0,0,0-2.143,3.091c.034,1.352.329,1.947,2.072,2.123a6.208,6.208,0,0,0,3.276-.74.776.776,0,0,1,1.115.589l.059-.079c1.811-2.567,1.241-4.92.457-5.8-.069-.078-.244-.232-.247-.235A1.7,1.7,0,0,0,430.786,641.831Z" transform="translate(-423.614 -640.282)"/>
                  </g>
                </g>
              </g>
            </g>
            <g id="Group_26" data-name="Group 26" transform="translate(43.082)">
              <path id="Path_42" data-name="Path 42" d="M384.313,525.81l-24.261,16.866-9.488,9.605-3.755,6.46-.025.051c-.736,1.117-.356,3.718.978,6.374,1.32,2.627,3.183,4.459,4.519,4.579l-.041.02,7.061.848,13.251-1.949,28.2-9.695,34.815,6.412.246.01c-8.772-1.715-20.455-13.578-28.84-30.265-8.376-16.668-10.908-33.069-7.045-41.094l-.007,0-15.406,31.38Z" transform="translate(-345.637 -482.092)" fill="#fff"/>
              <g id="Group_20" data-name="Group 20" transform="translate(42.524)">
                <ellipse id="Ellipse_1" data-name="Ellipse 1" cx="17.535" cy="41.815" rx="17.535" ry="41.815" transform="translate(0 15.771) rotate(-26.725)" fill="#5479f7"/>
                <path id="Path_43" data-name="Path 43" d="M485.449,560.985c-9.27,0-22.211-12.323-31.5-30.8-7.676-15.275-10.711-30.921-7.733-39.86a10.316,10.316,0,0,1,5-6.36c9.189-4.574,24.787,8.556,35.51,29.894,7.676,15.276,10.711,30.922,7.733,39.86a10.319,10.319,0,0,1-5,6.36A8.9,8.9,0,0,1,485.449,560.985Zm-30.167-76.392a7.471,7.471,0,0,0-3.37.757,8.839,8.839,0,0,0-4.223,5.463c-2.855,8.568.147,23.748,7.647,38.674,10.162,20.222,25.159,33.322,33.435,29.2a8.839,8.839,0,0,0,4.223-5.463c2.855-8.568-.147-23.748-7.647-38.674C476.447,496.842,463.835,484.592,455.282,484.592Z" transform="translate(-435.875 -476.785)"/>
              </g>
              <path id="Path_44" data-name="Path 44" d="M486.92,560.508c-7.8,0-18.661-10.321-26.442-25.806-6.429-12.794-8.969-25.906-6.471-33.4a8.736,8.736,0,0,1,4.241-5.384c5.165-2.571,12.811,1.363,20.451,10.525a.775.775,0,0,1-1.19.993c-7.043-8.446-14.159-12.329-18.571-10.131a7.261,7.261,0,0,0-3.461,4.487c-2.374,7.126.133,19.771,6.386,32.217,7.316,14.561,18.038,24.942,25.094,24.943a5.9,5.9,0,0,0,2.666-.6c6.185-3.079,5.755-17.093-1-32.6a.774.774,0,1,1,1.42-.618c7.206,16.54,7.319,31.094.27,34.6A7.527,7.527,0,0,1,486.92,560.508Z" transform="translate(-397.204 -482.63)"/>
              <g id="Group_21" data-name="Group 21" transform="translate(65.074 37.542)">
                <ellipse id="Ellipse_2" data-name="Ellipse 2" cx="3.836" cy="9.153" rx="3.836" ry="9.153" transform="translate(0 3.451) rotate(-26.725)" fill="#99b9ff"/>
                <path id="Path_45" data-name="Path 45" d="M483.1,563.359c-2.295,0-5.293-2.764-7.457-7.071-1.776-3.534-2.438-7.055-1.727-9.189a2.874,2.874,0,0,1,1.4-1.742c2.354-1.169,6.042,1.759,8.582,6.815h0c1.776,3.535,2.438,7.056,1.727,9.189a2.871,2.871,0,0,1-1.4,1.742A2.49,2.49,0,0,1,483.1,563.359Zm-6.63-16.716a1.029,1.029,0,0,0-.465.1,1.365,1.365,0,0,0-.619.845c-.472,1.418-.148,4.442,1.642,8,2.153,4.286,5.212,6.768,6.507,6.124a1.363,1.363,0,0,0,.619-.844c.472-1.417.148-4.442-1.642-8h0C480.586,549.033,477.936,546.643,476.472,546.643Z" transform="translate(-472.228 -544.329)"/>
              </g>
              <path id="Path_46" data-name="Path 46" d="M358.575,570.663a.777.777,0,0,1-.092-.006l-7.061-.849a.761.761,0,0,1-.223-.061c-1.594-.337-3.508-2.278-4.856-4.959-1.469-2.923-1.842-5.7-.961-7.105l.007-.014,3.779-6.5a.767.767,0,0,1,.119-.154l9.488-9.606a.8.8,0,0,1,.109-.092l24.1-16.751,15.515-31.6a.779.779,0,0,1,1.4.681c-3.883,8.065-1.054,24.3,7.039,40.41,8.107,16.131,19.478,28.129,28.3,29.852a.775.775,0,0,1-.181,1.534l-.246-.01a.771.771,0,0,1-.108-.012l-34.615-6.375-28,9.629a.809.809,0,0,1-.139.034l-13.251,1.95A.747.747,0,0,1,358.575,570.663Zm-6.737-2.365,6.727.808,13.077-1.924,28.128-9.671a.78.78,0,0,1,.393-.029l28.2,5.194c-7.829-4.825-16.367-15.112-22.806-27.926-6.4-12.732-9.547-25.628-8.784-34.752l-12.485,25.429a.777.777,0,0,1-.253.294l-24.2,16.825-9.369,9.485-3.708,6.383a.814.814,0,0,1-.047.08c-.5.757-.253,3.057,1.024,5.6,1.3,2.589,2.978,4.073,3.9,4.156A.784.784,0,0,1,351.838,568.3Z" transform="translate(-344.911 -481.367)"/>
              <g id="Group_22" data-name="Group 22" transform="translate(36.767 11.163)">
                <path id="Path_47" data-name="Path 47" d="M418.793,525.716l15.557-31.687.007,0c-3.863,8.025-1.33,24.426,7.045,41.094,8.385,16.687,20.068,28.55,28.84,30.265l-.246-.01-34.757-6.4-.806-.145c-4.04-.764-9.384-6.1-13.16-13.657-3.875-7.755-4.48-15.447-2.677-19.076Z" transform="translate(-416.837 -493.254)" fill="#99b9ff"/>
                <path id="Path_48" data-name="Path 48" d="M469.505,565.441h-.033l-.246-.01a.771.771,0,0,1-.108-.012l-35.56-6.546c-4.417-.836-9.927-6.491-13.715-14.073-3.69-7.384-4.792-15.513-2.678-19.767l.2-.388,15.555-31.681a.779.779,0,0,1,1.4.681c-3.883,8.065-1.054,24.3,7.039,40.41,8.107,16.131,19.478,28.129,28.3,29.852a.775.775,0,0,1-.148,1.535ZM431.189,500l-12.438,25.334-.006.011-.2.386c-1.609,3.239-1.208,10.6,2.68,18.378,3.528,7.06,8.713,12.5,12.611,13.242l.8.144,28.141,5.183c-7.828-4.826-16.367-15.113-22.806-27.926C433.575,522.018,430.426,509.121,431.189,500Zm-13.134,24.993h0Z" transform="translate(-416.099 -492.529)"/>
              </g>
              <path id="Path_49" data-name="Path 49" d="M358.195,625.155a.722.722,0,0,1-.093-.006l-6.68-.8a.765.765,0,0,1-.223-.061c-1.594-.337-3.508-2.278-4.856-4.959-1.469-2.923-1.842-5.7-.961-7.105l.007-.014,3.779-6.5a.775.775,0,0,1,1.34.779l-3.757,6.468a.814.814,0,0,1-.047.08c-.5.757-.253,3.057,1.024,5.6,1.3,2.589,2.978,4.073,3.9,4.156a.784.784,0,0,1,.214.05l6.448.775a.775.775,0,0,1-.091,1.544Z" transform="translate(-344.911 -535.904)"/>
              <g id="Group_23" data-name="Group 23" transform="translate(0 69.273)">
                <path id="Path_50" data-name="Path 50" d="M359.362,624.979c-2.173-.181-5.172-3.3-7.325-7.583-2.281-4.539-2.771-9.211-1.322-10.854l-3.908,6.6-.025.051c-.736,1.117-.356,3.718.978,6.374,1.32,2.627,3.183,4.459,4.519,4.579l-.041.02Z" transform="translate(-345.637 -605.768)" fill="#5479f7"/>
                <path id="Path_51" data-name="Path 51" d="M358.637,625.028l-.065,0c-.059,0-.118-.011-.177-.02l-6.969-.793a.764.764,0,0,1-.227-.062c-1.594-.337-3.508-2.278-4.856-4.959-1.469-2.923-1.842-5.7-.961-7.105l.007-.014c.009-.016.017-.032.026-.047l3.413-5.767a3.409,3.409,0,0,1,.581-.954.775.775,0,0,1,1.248.907l-.439.741c-.641,1.732-.155,5.507,1.785,9.37,2.218,4.414,4.954,6.9,6.579,7.145l.141.016a.775.775,0,0,1-.087,1.544Zm-6.805-2.328,3.11.354a21.585,21.585,0,0,1-4.323-6.035,20.529,20.529,0,0,1-2.175-7.067l-1.693,2.866a.814.814,0,0,1-.047.08c-.5.757-.253,3.057,1.024,5.6,1.3,2.589,2.978,4.073,3.9,4.156A.78.78,0,0,1,351.832,622.7Z" transform="translate(-344.911 -605.043)"/>
              </g>
              <g id="Group_24" data-name="Group 24" transform="translate(3.477 59.81)">
                <path id="Path_52" data-name="Path 52" d="M375.329,614.28l.561-.1c-3.052.6-7.8-4.053-11.1-10.636-3.373-6.713-3.949-13.383-1.474-15.317l-.317.321L354,597.656c-1.48,1.617-1,6.317,1.3,10.881,2.213,4.4,5.378,7.554,7.56,7.57Z" transform="translate(-352.375 -587.447)" fill="#99b9ff"/>
                <path id="Path_53" data-name="Path 53" d="M362.127,616.157h-.005c-2.5-.017-5.89-3.305-8.247-8-2.45-4.877-2.944-9.819-1.175-11.752l8.815-8.933a3.525,3.525,0,0,1,.589-.588.775.775,0,0,1,1.028,1.154l-.469.476c-1.478,1.977-1.147,7.519,2.085,13.95,3.487,6.941,7.929,10.642,10.233,10.229l.034-.007a.775.775,0,0,1,.292,1.522l-.045.008-.522.1-.03.005-12.47,1.827A.74.74,0,0,1,362.127,616.157Zm-1.783-25.292-6.522,6.609c-1.107,1.21-.806,5.526,1.437,9.99,2.3,4.574,5.211,7.077,6.82,7.142l9.4-1.377c-2.734-1.683-5.713-5.292-8.112-10.068C361.079,598.616,360.04,594.1,360.344,590.866Z" transform="translate(-351.642 -586.722)"/>
              </g>
              <g id="Group_25" data-name="Group 25" transform="translate(58.965 38.523)">
                <path id="Path_54" data-name="Path 54" d="M469.553,546.94c-1.9.944-1.675,5.413.676,9.889,3.942,7.5,7.159,6.662,7.537,6.532.007,0,.01.007,0,.011l-6.994,5.489A81.244,81.244,0,0,1,461,549.547l8.549-2.607Z" transform="translate(-460.01 -546.199)"/>
                <path id="Path_55" data-name="Path 55" d="M469.677,569.284l-.468-.676a82.035,82.035,0,0,1-9.868-19.5l-.261-.759,9.317-2.841.571,1.434a1.434,1.434,0,0,0-.647.9c-.475,1.469-.145,4.493,1.663,7.935,3.709,7.062,6.57,6.17,6.6,6.159l.614-.213.647,1.149-.524.418Zm-8.605-19.926a80.8,80.8,0,0,0,8.946,17.689l4.792-3.76c-1.586-.556-3.8-2.233-6.2-6.792-1.705-3.248-2.412-6.686-1.84-8.875Z" transform="translate(-459.08 -545.505)"/>
              </g>
            </g>
          </g>
          <g id="Group_30" data-name="Group 30" transform="translate(11.452 69.586)">
            <g id="Group_28" data-name="Group 28" transform="translate(6.77 18.742)">
              <path id="Path_56" data-name="Path 56" d="M299.942,656.763l-1.666-13.324,11.6,3.584,1.171,7.8a4.483,4.483,0,0,1-1.275,3.568,6.543,6.543,0,0,1-7.488,1.07l-.576-.27A3.109,3.109,0,0,1,299.942,656.763Z" transform="translate(-297.502 -642.663)" fill="#fff"/>
              <path id="Path_57" data-name="Path 57" d="M304.686,660.226a8.174,8.174,0,0,1-3.46-.786l-.576-.27a3.859,3.859,0,0,1-2.2-3.037h0l-1.666-13.325a.774.774,0,0,1,1-.836l11.6,3.584a.773.773,0,0,1,.537.625l1.172,7.8a5.261,5.261,0,0,1-1.51,4.246A6.685,6.685,0,0,1,304.686,660.226Zm-6.217-16.419,1.516,12.134h0a2.321,2.321,0,0,0,1.322,1.826l.576.27a5.8,5.8,0,0,0,6.6-.9,3.746,3.746,0,0,0,1.069-2.93l-1.1-7.311Z" transform="translate(-296.776 -641.937)"/>
            </g>
            <path id="Path_58" data-name="Path 58" d="M303.385,605.679c-2.873.333,1.209,2.639-9.84,1.4-4.4-.493-1.436,4.035-2.578,3.91-4.216-.461-4.073-.449-5.944.41-1.239.569-1.671,3.113-1.118,4.861.73,2.308,2.783,2.578,5.369,7.271,1.816,3.3,1.887,5.48,3.379,5.746,1.508.269,2.228-1.822,3.9-1.653,2.161.219,2.37,3.865,4.632,5,1.426.713,4.444.633,8.766-2.492a1.807,1.807,0,0,0,.574-2.23c-.472-1.006-1.075-2.273-1.752-3.436-3.226-5.54-5.563-6.512-5.065-8.18.764-2.557,5.438-1.984,5.84-4.045C309.963,610.1,307.318,605.223,303.385,605.679Z" transform="translate(-283.668 -605.649)"/>
            <g id="Group_29" data-name="Group 29" transform="translate(10.776 7.039)">
              <path id="Path_59" data-name="Path 59" d="M306.033,624.935l1.076,1.379a17.944,17.944,0,0,1,1.382,2.047c.775,1.339,2.124,3.632,2.977,4.858,1.253,1.8,7.085-1.686,7.085-1.686l.167-1.277.674-.423a.881.881,0,0,0,.318-.328.856.856,0,0,0-.136-1,30.841,30.841,0,0,1-5.618-7.718A9.276,9.276,0,0,0,306.033,624.935Z" transform="translate(-305.258 -620.004)" fill="#fff"/>
              <path id="Path_60" data-name="Path 60" d="M312.019,633.777a2.182,2.182,0,0,1-1.912-.841c-.878-1.263-2.264-3.62-3.012-4.913a17.3,17.3,0,0,0-1.322-1.958l-1.076-1.379a.775.775,0,0,1-.03-.913,9.986,9.986,0,0,1,8.629-4.483.775.775,0,0,1,.646.459,30.414,30.414,0,0,0,5.467,7.494,1.63,1.63,0,0,1,.262,1.9,1.66,1.66,0,0,1-.59.621l-.367.23-.119.915a.776.776,0,0,1-.371.565C317.126,632.129,314.155,633.777,312.019,633.777Zm-5.743-9.587.718.921a18.76,18.76,0,0,1,1.441,2.136c.736,1.272,2.1,3.587,2.943,4.8.413.593,3.141-.238,5.729-1.721l.118-.9a.774.774,0,0,1,.357-.556l.674-.423a.188.188,0,0,0,.048-.039.08.08,0,0,0-.011-.095,32.488,32.488,0,0,1-5.558-7.489A8.474,8.474,0,0,0,306.277,624.191Z" transform="translate(-304.533 -619.278)"/>
            </g>
            <path id="Path_61" data-name="Path 61" d="M306.162,636.655s-2.584-3.32-3.835-1.816,1.684,5.087,3.835,1.816Z" transform="translate(-292.545 -619.574)" fill="#fff"/>
          </g>
        </g>
      </g>
      <g id="Group_35" data-name="Group 35" transform="translate(104.58 119.227)">
        <g id="Group_33" data-name="Group 33" transform="translate(0 43.161)">
          <path id="Rectangle_3" data-name="Rectangle 3" d="M0,0H67.676a0,0,0,0,1,0,0V0A4.275,4.275,0,0,1,63.4,4.275H4.275A4.275,4.275,0,0,1,0,0V0A0,0,0,0,1,0,0Z" transform="translate(0.775 0.775)" fill="#99b9ff"/>
          <path id="Path_62" data-name="Path 62" d="M509.381,791.158H447a3.426,3.426,0,0,1-3.423-3.423v-2.4H512.8v2.4A3.426,3.426,0,0,1,509.381,791.158Zm-64.253-4.274v.852A1.876,1.876,0,0,0,447,789.608h62.38a1.875,1.875,0,0,0,1.873-1.873v-.852Z" transform="translate(-443.578 -785.334)"/>
        </g>
        <g id="Group_34" data-name="Group 34" transform="translate(23.449)">
          <path id="Path_63" data-name="Path 63" d="M535,746.406H491.074l13.955-41.077a4.589,4.589,0,0,1,3.854-2.065h37.128a2.3,2.3,0,0,1,2.22,3.078c-.219.574-.455,1.141-.646,1.724Z" transform="translate(-489.993 -702.49)" fill="#99b9ff"/>
          <path id="Path_64" data-name="Path 64" d="M534.545,746.456H488.98l14.387-42.275a5.339,5.339,0,0,1,4.5-2.417H545a3.1,3.1,0,0,1,2.6,1.348,3.014,3.014,0,0,1,.348,2.78l-.191.492c-.161.412-.312.8-.443,1.2Zm-43.4-1.549h42.279L545.836,707.1c.144-.439.311-.866.473-1.279l.186-.479a1.446,1.446,0,0,0-.175-1.349,1.575,1.575,0,0,0-1.321-.678H507.87a3.8,3.8,0,0,0-3.153,1.635Z" transform="translate(-488.98 -701.765)"/>
        </g>
        <path id="Path_65" data-name="Path 65" d="M540.341,743.085a3.549,3.549,0,1,0,4.53-2.854A3.807,3.807,0,0,0,540.341,743.085Z" transform="translate(-490.271 -720.301)" fill="#fff"/>
      </g>
      <g id="Group_38" data-name="Group 38" transform="translate(0 166.541)">
        <g id="Group_36" data-name="Group 36" transform="translate(0 7.576)">
          <path id="Path_66" data-name="Path 66" d="M296.629,915.17l-23.942-95-23.942,95h-5.739l26.306-105.615,6.748-.01L302.368,915.17Z" transform="translate(-242.015 -808.77)" fill="#fff"/>
          <path id="Path_67" data-name="Path 67" d="M302.431,915.219H295.1l-23.338-92.605-23.338,92.605h-7.334l26.692-107.164,7.958-.011ZM296.3,913.67h4.144L274.526,809.6l-5.537.008L243.07,913.67h4.144l24.546-97.4Z" transform="translate(-241.087 -808.044)"/>
        </g>
        <g id="Group_37" data-name="Group 37" transform="translate(0.111)">
          <rect id="Rectangle_4" data-name="Rectangle 4" width="174.093" height="8.984" transform="translate(174.868 9.759) rotate(180)" fill="#fff"/>
          <path id="Path_68" data-name="Path 68" d="M416.943,803.91H241.3V793.376H416.943ZM242.85,802.36H415.394v-7.435H242.85Z" transform="translate(-241.301 -793.376)"/>
        </g>
        <path id="Path_69" data-name="Path 69" d="M352.076,803.522a.775.775,0,0,1-.775-.775v-4.131a.775.775,0,1,1,1.549,0v4.131A.775.775,0,0,1,352.076,803.522Z" transform="translate(-294.379 -795.535)" fill="#5479f7"/>
      </g>
    </g>
    <g id="Group_46" data-name="Group 46" transform="translate(262.542 211.718)">
      <g id="Group_42" data-name="Group 42" transform="translate(136.543)">
        <path id="Path_77" data-name="Path 77" d="M547.781,225.492a.775.775,0,0,1-.3-1.489c.448-.187,45.362-18.622,89.394-9.98a.775.775,0,1,1-.3,1.52c-43.575-8.551-88.055,9.7-88.5,9.89A.77.77,0,0,1,547.781,225.492Z" transform="translate(-547.006 -211.718)"/>
        <path id="Path_78" data-name="Path 78" d="M603.183,231.185a.775.775,0,0,1-.182-1.528,144.573,144.573,0,0,1,42.77-4.225.775.775,0,1,1-.095,1.546,143.046,143.046,0,0,0-42.31,4.184A.768.768,0,0,1,603.183,231.185Z" transform="translate(-573.795 -218.239)"/>
        <path id="Path_79" data-name="Path 79" d="M734.806,222.244a4.265,4.265,0,0,1-1.038-.127,3.806,3.806,0,0,1-2.477-1.875,3.562,3.562,0,0,1-.217-2.9h0a4.386,4.386,0,0,1,5.146-2.67,3.805,3.805,0,0,1,2.478,1.875,3.56,3.56,0,0,1,.217,2.9A4.359,4.359,0,0,1,734.806,222.244Zm-2.27-4.391a2.032,2.032,0,0,0,.118,1.653,2.278,2.278,0,0,0,1.49,1.108,2.81,2.81,0,0,0,3.307-1.678,2.029,2.029,0,0,0-.118-1.653,2.278,2.278,0,0,0-1.49-1.108,2.812,2.812,0,0,0-3.308,1.678Z" transform="translate(-635.906 -213.085)"/>
      </g>
      <g id="Group_43" data-name="Group 43" transform="translate(213.525 353.092)">
        <path id="Path_80" data-name="Path 80" d="M696.834,943.09a.775.775,0,0,1-.256-1.506c20.885-7.3,40.49-19.537,40.686-19.66a.775.775,0,1,1,.824,1.312c-.2.123-19.951,12.458-41,19.81A.773.773,0,0,1,696.834,943.09Z" transform="translate(-696.059 -908.159)"/>
        <path id="Path_81" data-name="Path 81" d="M711.636,931.961a.775.775,0,0,1-.292-1.492,144.092,144.092,0,0,0,20.139-10.177.775.775,0,1,1,.8,1.325A145.709,145.709,0,0,1,711.928,931.9.774.774,0,0,1,711.636,931.961Z" transform="translate(-703.216 -907.372)"/>
        <path id="Path_82" data-name="Path 82" d="M792.322,903.686a4.152,4.152,0,1,1,4-3.044A4.139,4.139,0,0,1,792.322,903.686Zm0-6.753a2.606,2.606,0,0,0-2.508,1.908h0a2.6,2.6,0,1,0,3.2-1.814A2.612,2.612,0,0,0,792.324,896.933Zm-3.255,1.7h0Z" transform="translate(-740.598 -895.383)"/>
      </g>
      <g id="Group_44" data-name="Group 44" transform="translate(0 61.488)">
        <path id="Path_83" data-name="Path 83" d="M296.26,335.609a.775.775,0,0,1-.774-.746l-.124-3.286a.775.775,0,0,1,.745-.8.758.758,0,0,1,.8.745l.125,3.286a.775.775,0,0,1-.745.8Z" transform="translate(-288.785 -330.772)"/>
        <path id="Path_84" data-name="Path 84" d="M297.018,355.714a.775.775,0,0,1-.774-.745l-.124-3.286a.775.775,0,0,1,.745-.8.767.767,0,0,1,.8.745l.124,3.286a.775.775,0,0,1-.745.8Z" transform="translate(-289.152 -340.494)"/>
        <path id="Path_85" data-name="Path 85" d="M283.4,345.941a.775.775,0,0,1-.029-1.549l3.286-.124a.775.775,0,1,1,.058,1.548l-3.285.124Z" transform="translate(-282.628 -337.298)"/>
        <path id="Path_86" data-name="Path 86" d="M303.505,345.182a.775.775,0,0,1-.028-1.549l3.286-.124a.775.775,0,1,1,.058,1.548l-3.286.124Z" transform="translate(-292.348 -336.931)"/>
      </g>
      <g id="Group_45" data-name="Group 45" transform="translate(144.484 219.589)">
        <path id="Path_87" data-name="Path 87" d="M573.216,641.01a.775.775,0,0,1-.774-.745l-.1-2.572a.775.775,0,0,1,1.548-.058l.1,2.572a.775.775,0,0,1-.745.8Z" transform="translate(-567.199 -636.89)"/>
        <path id="Path_88" data-name="Path 88" d="M573.81,656.741a.775.775,0,0,1-.774-.746l-.1-2.57a.774.774,0,0,1,.745-.8.764.764,0,0,1,.8.745l.1,2.57a.775.775,0,0,1-.745.8Z" transform="translate(-567.486 -644.496)"/>
        <path id="Path_89" data-name="Path 89" d="M563.155,649.093a.775.775,0,0,1-.029-1.549l2.571-.1a.762.762,0,0,1,.8.745.775.775,0,0,1-.745.8l-2.571.1Z" transform="translate(-562.381 -641.994)"/>
        <path id="Path_90" data-name="Path 90" d="M578.886,648.5a.775.775,0,0,1-.029-1.549l2.571-.1a.763.763,0,0,1,.8.745.775.775,0,0,1-.745.8l-2.571.1Z" transform="translate(-569.987 -641.707)"/>
      </g>
      <path id="Path_91" data-name="Path 91" d="M403.577,241.775a4.149,4.149,0,0,1-3.5-6.364h0a4.151,4.151,0,1,1,3.5,6.364Zm.012-6.752a2.614,2.614,0,0,0-2.205,1.214h0a2.6,2.6,0,1,0,2.205-1.215Zm-2.861.8h0Z" transform="translate(-339.106 -222.237)"/>
      <path id="Path_92" data-name="Path 92" d="M709.568,588.09a3.165,3.165,0,1,1,3.165-3.165A3.169,3.169,0,0,1,709.568,588.09Zm0-4.781a1.616,1.616,0,1,0,1.616,1.616A1.618,1.618,0,0,0,709.568,583.308Z" transform="translate(-487.536 -390.644)"/>
    </g>
    <g id="Group_61" data-name="Group 61" transform="translate(452.63 269.774)">
      <g id="Group_52" data-name="Group 52" transform="translate(90.836 185.56)">
        <g id="Group_48" data-name="Group 48" transform="translate(0 141.9)">
          <path id="Path_93" data-name="Path 93" d="M865.631,958.164s.847,10.05-2.619,14.083l-1.076,1.73,16.4-1.007-.808-1.789a20.528,20.528,0,0,1-1.81-9.956Z" transform="translate(-843.666 -958.164)" fill="#5479f7"/>
          <g id="Group_47" data-name="Group 47" transform="translate(0 7.419)">
            <path id="Path_94" data-name="Path 94" d="M846.639,974.384l-1.732,1.812a30.621,30.621,0,0,1-12.388,7.873l-3.616,1.215a1.1,1.1,0,0,0-.707.744l-.05.178c-.554,1.978,1.583,6.6,8.8,8.412,4.469,1.118,14.973,2.1,27.843-2.321a1.957,1.957,0,0,0,1.324-1.912c-.1-3.132-.623-10.613-3.32-14.4a.866.866,0,0,0-1.28-.162l-3.739,3.284a4.031,4.031,0,0,1-5.7-.382l-3.745-4.3A1.146,1.146,0,0,0,846.639,974.384Z" transform="translate(-827.286 -973.255)" fill="#fff"/>
            <path id="Path_95" data-name="Path 95" d="M845.273,995.614a39.4,39.4,0,0,1-9.238-.969c-5.422-1.357-7.716-4.115-8.6-5.638a5.049,5.049,0,0,1-.761-3.734l.049-.178a1.871,1.871,0,0,1,1.207-1.27l3.616-1.215a29.981,29.981,0,0,0,12.075-7.674l1.732-1.813a1.921,1.921,0,0,1,2.839.066l3.745,4.3a3.256,3.256,0,0,0,4.6.308l3.739-3.284a1.642,1.642,0,0,1,1.262-.395,1.666,1.666,0,0,1,1.161.689c2.827,3.971,3.364,11.692,3.463,14.827a2.719,2.719,0,0,1-1.847,2.669A58.713,58.713,0,0,1,845.273,995.614Zm1.469-21.536a.366.366,0,0,0-.269.115h0l-1.732,1.813a31.531,31.531,0,0,1-12.7,8.072l-3.616,1.215a.321.321,0,0,0-.208.218l-.05.178a3.591,3.591,0,0,0,.609,2.538c.762,1.312,2.768,3.694,7.638,4.914,2,.5,12.713,2.741,27.4-2.3a1.177,1.177,0,0,0,.8-1.154c-.1-2.995-.6-10.351-3.177-13.977a.108.108,0,0,0-.077-.049.066.066,0,0,0-.061.019l-3.739,3.284a4.805,4.805,0,0,1-6.8-.455l-3.745-4.3a.368.368,0,0,0-.272-.128Zm-.829-.42h0Z" transform="translate(-826.56 -972.529)"/>
          </g>
          <path id="Path_96" data-name="Path 96" d="M850.367,999.439q-.94,0-1.885-.045a1.867,1.867,0,0,1-1.652-2.542l.544-1.4a.164.164,0,0,0-.214-.212l-1.418.562a17.439,17.439,0,0,1-13.665-.368l-.779-.359a.775.775,0,1,1,.649-1.407l.779.359a15.885,15.885,0,0,0,12.446.334l1.418-.562a1.714,1.714,0,0,1,2.229,2.215l-.544,1.4a.318.318,0,0,0,.281.432,37.366,37.366,0,0,0,15.259-2.458l2.834-1.089a.775.775,0,0,1,.556,1.447l-2.834,1.088A38.865,38.865,0,0,1,850.367,999.439Z" transform="translate(-828.633 -975.298)"/>
        </g>
        <g id="Group_50" data-name="Group 50" transform="translate(94.808 123.235)">
          <path id="Path_97" data-name="Path 97" d="M1010.315,925.256s6.435,8,6.162,13.406l.191,2.081,12.526-12.138-1.824-.674c-2.915-1.861-5.965-2.927-7.719-5.908Z" transform="translate(-1010.219 -922.024)" fill="#5479f7"/>
          <g id="Group_49" data-name="Group 49" transform="translate(0 1.701)">
            <path id="Path_98" data-name="Path 98" d="M1014.813,938.36l.279,2.534a31.144,31.144,0,0,1-1.968,14.8l-1.418,3.612a1.114,1.114,0,0,0,.117,1.037l.106.155c1.179,1.724,6.179,3.086,12.31-1.357,3.792-2.749,11.424-10.291,16.4-23.2a1.991,1.991,0,0,0-.624-2.282c-2.5-1.971-8.674-6.454-13.388-6.831a.882.882,0,0,0-.964.891l.114,5.059a4.1,4.1,0,0,1-4.024,4.191l-5.8.1A1.167,1.167,0,0,0,1014.813,938.36Z" transform="translate(-1010.854 -926.043)" fill="#fff"/>
            <path id="Path_99" data-name="Path 99" d="M1015.51,962.179a9.028,9.028,0,0,1-1.546-.129,5.124,5.124,0,0,1-3.4-1.843l-.106-.156a1.887,1.887,0,0,1-.2-1.758l1.418-3.611a30.5,30.5,0,0,0,1.919-14.43l-.279-2.534a1.942,1.942,0,0,1,1.894-2.154l5.8-.1a3.325,3.325,0,0,0,3.264-3.4l-.113-5.059a1.644,1.644,0,0,1,.514-1.231,1.682,1.682,0,0,1,1.286-.45c4.938.395,11.3,5.023,13.806,6.995a2.752,2.752,0,0,1,.868,3.169c-5.834,15.149-14.907,22.278-16.666,23.554A14.443,14.443,0,0,1,1015.51,962.179Zm-.652-24.628.279,2.534a32.048,32.048,0,0,1-2.017,15.165l-1.418,3.612a.34.34,0,0,0,.036.317l.106.156a3.664,3.664,0,0,0,2.384,1.19c1.524.266,4.694.261,8.831-2.738,1.7-1.23,10.452-8.115,16.129-22.856a1.212,1.212,0,0,0-.38-1.4c-2.4-1.884-8.455-6.306-12.971-6.668a.1.1,0,0,0-.1.032.086.086,0,0,0-.029.07l.113,5.06a4.874,4.874,0,0,1-4.785,4.982l-5.8.1a.392.392,0,0,0-.382.435Z" transform="translate(-1010.129 -925.318)"/>
          </g>
          <path id="Path_100" data-name="Path 100" d="M1012.231,961.874a.775.775,0,0,1-.332-1.476l.789-.372a16.168,16.168,0,0,0,8.406-9.483l.489-1.472a1.73,1.73,0,0,1,3.159-.286l.733,1.338a.336.336,0,0,0,.541.067,38.019,38.019,0,0,0,8.066-13.5l1.006-2.92a.775.775,0,0,1,1.465.5l-1.005,2.92a39.567,39.567,0,0,1-8.393,14.044,1.885,1.885,0,0,1-3.038-.373l-.733-1.338a.172.172,0,0,0-.175-.094.167.167,0,0,0-.154.123l-.489,1.472a17.723,17.723,0,0,1-9.215,10.4l-.789.372A.771.771,0,0,1,1012.231,961.874Z" transform="translate(-1010.77 -927.453)"/>
        </g>
        <g id="Group_51" data-name="Group 51" transform="translate(1.214)">
          <path id="Path_101" data-name="Path 101" d="M915.569,683.414s7.889,13.632,6.739,36.184c-1.3,25.508,31.719,51.359,42.651,85.854h0a14.826,14.826,0,0,1-8.914,10.359l-.123.05s-33.725-15.815-46.008-38.114c-7.081-12.854-15.87-39.037-15.87-39.037l7.481-48.116,1.145-.247a40.878,40.878,0,0,0,8.523-2.961,9.912,9.912,0,0,0,4.379-3.971Z" transform="translate(-860.404 -683.414)"/>
          <path id="Path_102" data-name="Path 102" d="M880.276,691.151s2.862,20.458-7.846,36.9a58.258,58.258,0,0,0-8.4,42.2c1.712,8.6,5.9,34.393-1.254,61.857a20.9,20.9,0,0,1-14.376-.291s-19.107-46.085-19.48-74.177S841.1,691.717,841.1,691.717,864.563,699.261,880.276,691.151Z" transform="translate(-828.911 -687.155)"/>
        </g>
      </g>
      <g id="Group_55" data-name="Group 55" transform="translate(0 0)">
        <g id="Group_53" data-name="Group 53" transform="translate(12.336 37.166)">
          <path id="Path_103" data-name="Path 103" d="M715.346,439.194A33.641,33.641,0,0,1,689.885,427.4a.775.775,0,0,1,1.179-1.006,31.982,31.982,0,0,0,55.156-29.321.775.775,0,0,1,1.493-.415A33.528,33.528,0,0,1,721.8,438.571,33.921,33.921,0,0,1,715.346,439.194Z" transform="translate(-681.883 -396.091)" fill="#fff"/>
          <path id="Path_104" data-name="Path 104" d="M676.526,418.913a.775.775,0,0,1-.746-.569,33.42,33.42,0,0,1-.858-13.8.775.775,0,1,1,1.533.224,31.875,31.875,0,0,0,.819,13.162.776.776,0,0,1-.541.953A.794.794,0,0,1,676.526,418.913Z" transform="translate(-674.565 -399.858)" fill="#fff"/>
        </g>
        <g id="Group_54" data-name="Group 54">
          <path id="Path_105" data-name="Path 105" d="M768.116,524.219h0a2.505,2.505,0,0,1-3.234-1.5l-8.17-25.286,4.742-1.763,8.169,25.286A2.561,2.561,0,0,1,768.116,524.219Z" transform="translate(-701.951 -407.072)"/>
          <path id="Path_106" data-name="Path 106" d="M708.962,325.908a45.933,45.933,0,1,0,30.978,56.747A45.717,45.717,0,0,0,708.962,325.908Zm-23.795,82.443a39.879,39.879,0,1,1,49.012-27.359A39.691,39.691,0,0,1,685.168,408.352Z" transform="translate(-650.681 -324.128)"/>
        </g>
      </g>
      <g id="Group_58" data-name="Group 58" transform="translate(55.41 105.183)">
        <g id="Group_56" data-name="Group 56">
          <path id="Path_107" data-name="Path 107" d="M768.342,548.606c-.588.168-2.289-2.333-2.7-2.781-1.6-1.757-5.416-3.935-6.016-7.454-.778-4.566,1.454-9.291,2.594-9.078s2.118,8.848,6.6,9.411c0,0,1.018-.062,1.144-4.292a.794.794,0,0,1,1.184-.666,5.609,5.609,0,0,1,2.235,3.031,12.652,12.652,0,0,1,.277,6.27c-.157,1,.039,4.025-.742,4.249Z" transform="translate(-758.692 -528.512)" fill="#fff"/>
          <path id="Path_108" data-name="Path 108" d="M767.543,548.667c-.726,0-1.468-.8-2.782-2.519-.184-.24-.331-.434-.416-.528a18.687,18.687,0,0,0-1.569-1.436c-1.849-1.579-4.15-3.546-4.638-6.408-.69-4.049.821-8.15,2.129-9.437a1.529,1.529,0,0,1,1.371-.533c.815.153,1.167,1.129,1.8,2.9.851,2.361,2.118,5.879,4.439,6.447a8.077,8.077,0,0,0,.581-3.489,1.559,1.559,0,0,1,.818-1.329,1.531,1.531,0,0,1,1.536.02,6.419,6.419,0,0,1,2.565,3.426,13.268,13.268,0,0,1,.317,6.662c-.038.237-.053.672-.07,1.134-.064,1.762-.124,3.425-1.225,3.739l-4.576,1.31A1.033,1.033,0,0,1,767.543,548.667ZM761.3,529.479c-.809.818-2.26,4.354-1.632,8.036.394,2.309,2.458,4.073,4.117,5.491a19.583,19.583,0,0,1,1.708,1.572c.1.112.28.341.5.628a14.041,14.041,0,0,0,1.614,1.872l4.228-1.21a10.356,10.356,0,0,0,.248-2.347,12.525,12.525,0,0,1,.088-1.319,12.1,12.1,0,0,0-.238-5.878,4.876,4.876,0,0,0-1.9-2.637c-.135,4.1-1.1,5.016-1.885,5.065l-.072,0-.072-.009c-3.461-.435-5-4.7-6.012-7.516C761.763,530.612,761.5,529.872,761.3,529.479Z" transform="translate(-757.966 -527.787)"/>
        </g>
        <path id="Path_109" data-name="Path 109" d="M771.1,553.492l9.228-2.817c3.2,6.546,6.705,12.211,10.764,15.864a36.917,36.917,0,0,0,7.771,5.364,2.448,2.448,0,0,0,3.36-1.139,94.409,94.409,0,0,1,8.8-15.465,33,33,0,0,1,13.231-10.544c6.867-2.941,14.727-4.108,22.048-2.217a58.322,58.322,0,0,1,23.431,12.522c7.426,6.64,20.573,29.08,14.872,39.212-6.992,12.426-23.5,4.005-23.5,4.005s-.677,5.882,2.4,14.235c3.735,10.149-.624,12.478-.624,12.478-18.441,17.417-56.066-2.1-52.362-9.808,3.965-8.247,4.621-18.946,4.621-18.946a15.162,15.162,0,0,1-11.642,3.387,25.539,25.539,0,0,1-6.363-1.729C774.7,589.032,771.1,553.492,771.1,553.492Z" transform="translate(-764.317 -534.475)" fill="#5479f7"/>
        <g id="Group_57" data-name="Group 57" transform="translate(50.327 31.628)">
          <path id="Path_110" data-name="Path 110" d="M944.94,615.372a.775.775,0,0,1-.717-1.068c5.44-13.286,3.887-24.279,3.87-24.389a.775.775,0,1,1,1.532-.228c.07.464,1.63,11.528-3.969,25.2A.774.774,0,0,1,944.94,615.372Z" transform="translate(-898.326 -589.026)"/>
          <path id="Path_111" data-name="Path 111" d="M856.186,625.025a.775.775,0,0,1-.51-1.358c7.667-6.693,13.913-23.622,13.976-23.792a.774.774,0,1,1,1.455.531c-.259.71-6.448,17.475-14.412,24.427A.773.773,0,0,1,856.186,625.025Z" transform="translate(-855.411 -594.026)"/>
        </g>
      </g>
      <g id="Group_60" data-name="Group 60" transform="translate(117.793 74.164)">
        <g id="Group_59" data-name="Group 59" transform="translate(0 5.93)">
          <path id="Path_112" data-name="Path 112" d="M892.7,480.719a8.163,8.163,0,0,0-7.225,3.681c-.736,1.119-1.407,2.163-1.547,2.46a13.022,13.022,0,0,1-3.464,5.092.618.618,0,0,0-.107.817l1.35,1.941a.573.573,0,0,1,.088.459c-.228.982-1.3,4.533-1.076,5.2.466,1.407,3.736,1.964,4.707,2.1a.548.548,0,0,1,.42.3,19.3,19.3,0,0,1,1.484,6.386c.7,6.273-5.281,6.908-4.109,7.584,8.179,4.718,23.73,4.619,22.93,2.8-.658-1.495-8.951-5.732-9.171-16-.137-6.4,8.818-6.426,3.065-18.919C898.71,481.721,895.512,480.863,892.7,480.719Z" transform="translate(-879.478 -479.934)" fill="#fff"/>
          <path id="Path_113" data-name="Path 113" d="M900.18,520.765c-5.348,0-13.13-1.233-18.068-4.081a.974.974,0,0,1-.541-.842c-.009-.6.481-.9,1.1-1.288,1.342-.832,3.589-2.222,3.165-6.04a21.96,21.96,0,0,0-1.359-6.024c-1.764-.258-4.662-.932-5.216-2.606-.208-.627.08-1.937.8-4.636.1-.363.181-.674.234-.893l-1.3-1.867a1.4,1.4,0,0,1,.23-1.84,11.74,11.74,0,0,0,3.115-4.473c.064-.15.116-.274.161-.369a26.912,26.912,0,0,1,1.6-2.556,8.962,8.962,0,0,1,7.912-4.028h0c4.022.206,6.792,1.712,8.009,4.354,3.849,8.358,1.364,11.535-.828,14.338-1.185,1.516-2.209,2.826-2.166,4.888.162,7.544,4.88,11.685,7.414,13.909a6.524,6.524,0,0,1,1.691,1.793,1.1,1.1,0,0,1-.307,1.3C905.133,520.424,902.993,520.765,900.18,520.765Zm-16.519-5c7.238,3.728,18.478,3.81,20.794,3.046-.26-.261-.661-.613-1.029-.936-2.52-2.212-7.766-6.814-7.941-15.04-.056-2.615,1.24-4.273,2.494-5.876,2.013-2.574,4.1-5.236.641-12.735-.974-2.116-3.222-3.278-6.681-3.455A7.427,7.427,0,0,0,885.4,484.1c-1.2,1.832-1.446,2.265-1.493,2.366-.038.08-.082.185-.136.311a13.194,13.194,0,0,1-3.417,4.943l1.267,1.823a1.352,1.352,0,0,1,.208,1.076c-.054.229-.151.593-.268,1.029a22.6,22.6,0,0,0-.816,3.8c.162.478,1.619,1.187,4.067,1.529a1.32,1.32,0,0,1,1.01.733,21.543,21.543,0,0,1,1.556,6.638A7.162,7.162,0,0,1,883.661,515.764Z" transform="translate(-878.753 -479.209)"/>
        </g>
        <path id="Path_114" data-name="Path 114" d="M890.077,487.113l-3.131-4.4a4.536,4.536,0,0,1,1.644-6.67,21.492,21.492,0,0,1,2.376-1.036c8.855-3.239,18.419,3.458,17.9,12.874-.211,3.853-3.038,8.176-8.735,11.84,0,0-3.678-3.249-3.445-6.528,0,0,2.977-3.157-.864-5.053a2.822,2.822,0,0,0-2.35-.065h0A2.817,2.817,0,0,1,890.077,487.113Z" transform="translate(-882.309 -470.846)"/>
        <path id="Path_115" data-name="Path 115" d="M900.9,511.813a4.3,4.3,0,0,1-2.151-.576.775.775,0,0,1,.794-1.331c.241.139,2.349,1.257,3.952-1.4a.775.775,0,1,1,1.327.8A4.522,4.522,0,0,1,900.9,511.813Z" transform="translate(-888.24 -487.262)"/>
        <path id="Path_116" data-name="Path 116" d="M922.419,475.57s3.485-9.938,14.031-7.441c6.584,1.559,12.144,6.353,14.927,13.825,5.386,14.46-.957,27.578,8.421,40.395a4.344,4.344,0,0,1-3.554,6.92c-6.774-.144-15.806-2.288-21.655-11.348-4.792-7.423.3-40.032-11.146-40.177Z" transform="translate(-899.867 -467.727)"/>
      </g>
    </g>
    <g id="Group_68" data-name="Group 68" transform="translate(414.344 525.495)">
      <g id="Group_63" data-name="Group 63" transform="translate(13.024 0)">
        <g id="Group_62" data-name="Group 62">
          <path id="Path_117" data-name="Path 117" d="M612.457,897.745s-15.295-33.525-6.521-76.986c0,0,23.7,19.864,15.158,76.986Z" transform="translate(-602.47 -819.985)" fill="#99b9ff"/>
          <path id="Path_118" data-name="Path 118" d="M620.393,897.794h-8.638a.775.775,0,0,1-.7-.453c-.154-.338-15.3-34.254-6.576-77.46a.775.775,0,0,1,1.257-.441c.248.208,6.132,5.23,11.006,17.377,4.467,11.135,8.862,30.638,4.422,60.316A.775.775,0,0,1,620.393,897.794Zm-8.129-1.549h7.46c4.214-28.884-.042-47.867-4.377-58.73-3.565-8.932-7.76-13.973-9.628-15.929C598.21,860.929,610.537,892.15,612.264,896.245Z" transform="translate(-601.769 -819.26)"/>
        </g>
        <path id="Path_119" data-name="Path 119" d="M621.577,909.823h-.043a.775.775,0,0,1-.731-.816c1.168-21.391-6.365-56.351-6.441-56.7a.775.775,0,1,1,1.514-.328c.076.352,7.654,35.517,6.473,57.114A.775.775,0,0,1,621.577,909.823Z" transform="translate(-607.849 -834.784)" fill="#fff"/>
      </g>
      <g id="Group_65" data-name="Group 65" transform="translate(25.954 22.479)">
        <g id="Group_64" data-name="Group 64">
          <path id="Path_120" data-name="Path 120" d="M639.993,864.286s-19.706,35.6-7.852,51.01h6.34S651.154,887.465,639.993,864.286Z" transform="translate(-627.549 -863.51)" fill="#fff"/>
          <path id="Path_121" data-name="Path 121" d="M637.735,915.345h-6.341a.776.776,0,0,1-.614-.3c-12.026-15.63,6.974-50.386,7.788-51.858a.759.759,0,0,1,.7-.4.774.774,0,0,1,.676.438c11.189,23.237-1.376,51.385-1.5,51.667A.775.775,0,0,1,637.735,915.345Zm-5.953-1.549h5.443c1.511-3.6,10.989-27.8,1.974-48.482C635.806,871.92,622.1,900.515,631.782,913.8Z" transform="translate(-626.803 -862.784)"/>
        </g>
        <path id="Path_122" data-name="Path 122" d="M640.661,916.289a.775.775,0,0,1-.774-.744c-.572-14.727,4.844-51.724,4.9-52.1a.775.775,0,1,1,1.533.226c-.055.37-5.45,37.226-4.884,51.81a.774.774,0,0,1-.744.8Z" transform="translate(-633.109 -862.785)"/>
      </g>
      <g id="Group_67" data-name="Group 67" transform="translate(0 35.753)">
        <g id="Group_66" data-name="Group 66">
          <path id="Path_123" data-name="Path 123" d="M578.051,889.985s16.787,5.727,22.865,39.635h-6.6S580.534,911,578.051,889.985Z" transform="translate(-577.276 -889.21)" fill="#fff"/>
          <path id="Path_124" data-name="Path 124" d="M600.191,929.67h-6.6a.775.775,0,0,1-.623-.314c-.139-.188-13.93-19.031-16.409-40.006a.774.774,0,0,1,1.02-.824c.7.24,17.289,6.265,23.378,40.232a.774.774,0,0,1-.763.911Zm-6.205-1.549h5.276c-5.07-26.989-17.132-35.488-20.985-37.561C580.923,909.105,592.24,925.657,593.985,928.12Z" transform="translate(-576.551 -888.485)"/>
        </g>
        <path id="Path_125" data-name="Path 125" d="M601.973,936.237a.775.775,0,0,1-.763-.648c-2.486-15.027-13.254-30.17-13.363-30.321a.775.775,0,0,1,1.259-.9c.11.154,11.088,15.591,13.632,30.971a.777.777,0,0,1-.765.9Z" transform="translate(-581.943 -896.007)"/>
      </g>
      <path id="Path_126" data-name="Path 126" d="M590.575,961.517H631.99l.929,19.59a8.422,8.422,0,0,1-8.413,8.821H600.852a10.294,10.294,0,0,1-10.294-10.3Z" transform="translate(-583.324 -888.045)" fill="#5479f7"/>
    </g>
  </g>
</svg>
