<svg xmlns="http://www.w3.org/2000/svg" width="182.76" height="38" viewBox="0 0 182.76 38">
  <g id="Group_217" data-name="Group 217" transform="translate(-280 -42)">
    <path id="Path_151" data-name="Path 151" d="M8.131,20.106s6.551-7.084,16.487-8.234S36.891,17.219,34.282,22.4,19.05,28.122,22.627,19.817,42.438,3.082,42.438,3.082" transform="matrix(0.999, -0.035, 0.035, 0.999, 272.624, 45.916)" fill="none" stroke="#a6bfe0" stroke-width="2"/>
    <g id="Group_216" data-name="Group 216">
      <path id="Path_359" data-name="Path 359" d="M6.208-18.752h9.728V-22.4H2.368V0h13.76V-3.648H6.208V-9.664h8.96v-3.648H6.208ZM17.664,0h3.872l2.048-5.312h9.472L35.1,0h3.872l-8.7-22.4h-3.9ZM28.32-17.568l3.36,8.736H24.96Zm23.424,16V.256c0,2.272-1.344,3.9-4.32,3.9A7.675,7.675,0,0,1,42.4,1.92L40.224,4.864a10.916,10.916,0,0,0,7.2,2.88c4.256,0,8.16-2.336,8.16-7.616v-15.3H52.032v1.984a5.435,5.435,0,0,0-4.576-2.368c-3.936,0-7.392,3.3-7.392,7.968S43.52.384,47.456.384A5.415,5.415,0,0,0,51.744-1.568Zm0-3.744A4.265,4.265,0,0,1,48.128-3.2a4.058,4.058,0,0,1-4.16-4.384,4.058,4.058,0,0,1,4.16-4.384,4.2,4.2,0,0,1,3.616,2.112Zm14.272-10.24A7.657,7.657,0,0,0,58.4-7.584,7.972,7.972,0,0,0,66.56.384a9.714,9.714,0,0,0,6.08-2.176l-1.92-2.88a6.1,6.1,0,0,1-4.16,1.536A4.329,4.329,0,0,1,62.3-6.208H73.632c.032-.576.032-1.152.032-1.44A7.629,7.629,0,0,0,66.016-15.552ZM62.3-8.992a3.49,3.49,0,0,1,3.712-3.072,3.525,3.525,0,0,1,3.808,3.072Zm22.3-6.56a5.242,5.242,0,0,0-4.544,2.592v-2.208H76.48V0h3.84V-10.016a3.743,3.743,0,0,1,3.008-1.952,2.8,2.8,0,0,1,3.008,3.1V0h3.84V-9.824A5.435,5.435,0,0,0,84.608-15.552ZM101.152-3.2A4.2,4.2,0,0,1,96.9-7.584a4.2,4.2,0,0,1,4.256-4.384,4.715,4.715,0,0,1,3.552,1.6l2.656-2.368a8.131,8.131,0,0,0-6.208-2.816,7.992,7.992,0,0,0-8.16,7.968,8.012,8.012,0,0,0,8.16,7.968,8.209,8.209,0,0,0,6.272-2.88L104.9-5.056A4.479,4.479,0,0,1,101.152-3.2Zm7.488,9.344a6.719,6.719,0,0,0,4.064,1.6c2.24,0,4.384-1.024,5.7-4.352l7.36-18.56h-4.128l-4,11.1-5.12-11.1h-4.256L115.648.352,115.04,1.92c-.736,1.856-1.28,2.24-2.592,2.24a3.6,3.6,0,0,1-2.016-.992Z" transform="translate(337 70)" fill="#2e3b6f"/>
      <g id="Rectangle_5" data-name="Rectangle 5" transform="translate(280 42)" fill="none" stroke="#348cd0" stroke-width="2">
        <rect width="38" height="38" rx="12" stroke="none"/>
        <rect x="1" y="1" width="36" height="36" rx="11" fill="none"/>
      </g>
    </g>
  </g>
</svg>
