<svg xmlns="http://www.w3.org/2000/svg" width="594.996" height="439.347" viewBox="0 0 594.996 439.347">
  <g id="Group_218" data-name="Group 218" transform="translate(-1119.007 -250)">
    <g id="Keyword_research" data-name="Keyword research" transform="translate(836.379 38.282)">
      <path id="Path_127" data-name="Path 127" d="M892.419,266.762,811.934,288.4a5.79,5.79,0,0,0-2.811,9.455l8.424,9.41a5.791,5.791,0,0,1-.445,8.171L680.613,436.284a5.791,5.791,0,0,1-8.178-.439l-73.778-82.137a5.791,5.791,0,0,0-8.179-.438l-181.1,162.273a5.791,5.791,0,0,0-.438,8.178l17.939,19.971a5.791,5.791,0,0,0,8.178.439L587.588,407.552a5.792,5.792,0,0,1,8.178.438l73.759,82.117a5.79,5.79,0,0,0,8.178.439l165.013-146.47a5.791,5.791,0,0,1,8.184.446l9.087,10.149a5.791,5.791,0,0,0,9.732-1.817L899.34,274.4A5.791,5.791,0,0,0,892.419,266.762Z" transform="translate(-22.101 -9.709)" fill="#99b9ff"/>
      <g id="Group_70" data-name="Group 70" transform="translate(327.926 352.555)">
        <path id="Path_128" data-name="Path 128" d="M832.625,441.848H367.168a29.5,29.5,0,1,1,0-58.993H832.625a29.5,29.5,0,1,1,0,58.993ZM367.168,385.324a27.028,27.028,0,1,0,0,54.056H832.625a27.028,27.028,0,1,0,0-54.056Z" transform="translate(-337.671 -382.855)"/>
        <g id="Group_69" data-name="Group 69" transform="translate(17.009 14.335)">
          <path id="Path_129" data-name="Path 129" d="M371.811,427.22a13.473,13.473,0,1,1,13.473-13.473A13.488,13.488,0,0,1,371.811,427.22Zm0-24.477a11,11,0,1,0,11,11A11.016,11.016,0,0,0,371.811,402.743Z" transform="translate(-358.339 -400.274)"/>
          <path id="Path_130" data-name="Path 130" d="M395.028,439.682a1.23,1.23,0,0,1-.872-.362l-9.734-9.733a1.235,1.235,0,1,1,1.746-1.745l9.733,9.733a1.235,1.235,0,0,1-.873,2.108Z" transform="translate(-362.893 -405.091)"/>
        </g>
        <path id="Path_131" data-name="Path 131" d="M614.373,424.727H550.188a5.832,5.832,0,0,1-5.815-5.815h0a5.832,5.832,0,0,1,5.815-5.815h64.185a5.831,5.831,0,0,1,5.815,5.815h0A5.832,5.832,0,0,1,614.373,424.727Z" transform="translate(-374.267 -388.209)"/>
        <path id="Path_132" data-name="Path 132" d="M496.5,424.727H432.314a5.832,5.832,0,0,1-5.815-5.815h0a5.831,5.831,0,0,1,5.815-5.815H496.5a5.832,5.832,0,0,1,5.815,5.815h0A5.832,5.832,0,0,1,496.5,424.727Z" transform="translate(-353.398 -388.209)"/>
        <path id="Path_133" data-name="Path 133" d="M763.986,424.727H697.331a5.832,5.832,0,0,1-5.815-5.815h0a5.832,5.832,0,0,1,5.815-5.815h66.655a5.831,5.831,0,0,1,5.814,5.815h0A5.832,5.832,0,0,1,763.986,424.727Z" transform="translate(-400.319 -388.209)" fill="#5479f7"/>
        <path id="Path_134" data-name="Path 134" d="M915.025,424.727H854.132a5.832,5.832,0,0,1-5.815-5.815h0a5.832,5.832,0,0,1,5.815-5.815h60.893a5.831,5.831,0,0,1,5.815,5.815h0A5.832,5.832,0,0,1,915.025,424.727Z" transform="translate(-428.08 -388.209)"/>
      </g>
      <g id="Group_75" data-name="Group 75" transform="translate(282.628 211.718)">
        <g id="Group_71" data-name="Group 71" transform="translate(217.57)">
          <path id="Path_135" data-name="Path 135" d="M548.241,233.665a1.234,1.234,0,0,1-.476-2.373c.714-.3,72.281-29.672,142.442-15.9a1.234,1.234,0,1,1-.476,2.422C620.3,204.186,549.424,233.275,548.716,233.57A1.226,1.226,0,0,1,548.241,233.665Z" transform="translate(-547.006 -211.718)"/>
          <path id="Path_136" data-name="Path 136" d="M603.643,234.733a1.235,1.235,0,0,1-.291-2.434c23.846-5.78,46.775-8.045,68.151-6.732a1.234,1.234,0,0,1-.151,2.464c-21.131-1.3-43.811.946-67.418,6.668A1.225,1.225,0,0,1,603.643,234.733Z" transform="translate(-556.815 -214.105)"/>
          <path id="Path_137" data-name="Path 137" d="M737.145,226.814a6.8,6.8,0,0,1-1.654-.2,6.065,6.065,0,0,1-3.948-2.988A5.675,5.675,0,0,1,731.2,219h0a6.989,6.989,0,0,1,8.2-4.255,6.063,6.063,0,0,1,3.948,2.988,5.673,5.673,0,0,1,.346,4.619A6.945,6.945,0,0,1,737.145,226.814Zm-3.618-7a3.237,3.237,0,0,0,.188,2.633,3.629,3.629,0,0,0,2.373,1.766,4.477,4.477,0,0,0,5.27-2.674,3.234,3.234,0,0,0-.188-2.633,3.63,3.63,0,0,0-2.373-1.766,4.48,4.48,0,0,0-5.271,2.674Z" transform="translate(-579.558 -212.218)"/>
        </g>
        <g id="Group_72" data-name="Group 72" transform="translate(342.629 383.687)">
          <path id="Path_138" data-name="Path 138" d="M700.205,738.289a1.234,1.234,0,0,1-.407-2.4c33.278-11.625,64.519-31.13,64.83-31.326a1.234,1.234,0,1,1,1.312,2.091c-.314.2-31.791,19.85-65.328,31.565A1.209,1.209,0,0,1,700.205,738.289Z" transform="translate(-698.97 -682.629)"/>
          <path id="Path_139" data-name="Path 139" d="M715.007,721.521a1.235,1.235,0,0,1-.466-2.378,229.559,229.559,0,0,0,32.09-16.216,1.234,1.234,0,1,1,1.278,2.112,232.057,232.057,0,0,1-32.437,16.392A1.235,1.235,0,0,1,715.007,721.521Z" transform="translate(-701.591 -682.341)"/>
          <path id="Path_140" data-name="Path 140" d="M797.7,691.181a6.613,6.613,0,0,1-6.372-8.378,6.614,6.614,0,1,1,6.372,8.378Zm0-10.76a4.153,4.153,0,0,0-4,3.04h0a4.145,4.145,0,1,0,5.1-2.889A4.163,4.163,0,0,0,797.7,680.421Zm-5.186,2.711h0Z" transform="translate(-715.279 -677.951)"/>
        </g>
        <g id="Group_73" data-name="Group 73" transform="translate(0 97.976)">
          <path id="Path_141" data-name="Path 141" d="M296.793,338.48a1.235,1.235,0,0,1-1.234-1.188l-.2-5.236a1.236,1.236,0,0,1,1.188-1.281,1.207,1.207,0,0,1,1.28,1.188l.2,5.236a1.235,1.235,0,0,1-1.187,1.281Z" transform="translate(-284.882 -330.772)"/>
          <path id="Path_142" data-name="Path 142" d="M297.551,358.583a1.235,1.235,0,0,1-1.233-1.188l-.2-5.236a1.235,1.235,0,0,1,1.188-1.281,1.222,1.222,0,0,1,1.28,1.187l.2,5.236a1.234,1.234,0,0,1-1.187,1.28Z" transform="translate(-285.017 -334.332)"/>
          <path id="Path_143" data-name="Path 143" d="M283.862,346.934a1.234,1.234,0,0,1-.046-2.468l5.236-.2a1.234,1.234,0,1,1,.093,2.467l-5.235.2Z" transform="translate(-282.628 -333.162)"/>
          <path id="Path_144" data-name="Path 144" d="M303.965,346.175a1.234,1.234,0,0,1-.045-2.468l5.236-.2a1.234,1.234,0,1,1,.093,2.467l-5.236.2Z" transform="translate(-286.187 -333.027)"/>
        </g>
        <g id="Group_74" data-name="Group 74" transform="translate(230.223 349.896)">
          <path id="Path_145" data-name="Path 145" d="M573.733,643.456a1.235,1.235,0,0,1-1.233-1.188l-.155-4.1a1.234,1.234,0,0,1,2.467-.093l.155,4.1a1.234,1.234,0,0,1-1.187,1.28Z" transform="translate(-564.145 -636.89)"/>
          <path id="Path_146" data-name="Path 146" d="M574.326,659.186A1.235,1.235,0,0,1,573.094,658l-.154-4.1a1.234,1.234,0,0,1,1.187-1.281,1.218,1.218,0,0,1,1.281,1.188l.154,4.1a1.235,1.235,0,0,1-1.187,1.281Z" transform="translate(-564.25 -639.675)"/>
          <path id="Path_147" data-name="Path 147" d="M563.615,650.07a1.234,1.234,0,0,1-.046-2.468l4.1-.155a1.215,1.215,0,0,1,1.281,1.188,1.234,1.234,0,0,1-1.187,1.28l-4.1.155Z" transform="translate(-562.381 -638.759)"/>
          <path id="Path_148" data-name="Path 148" d="M579.346,649.477a1.234,1.234,0,0,1-.046-2.468l4.1-.154a1.216,1.216,0,0,1,1.28,1.187,1.236,1.236,0,0,1-1.187,1.281l-4.1.154Z" transform="translate(-565.166 -638.654)"/>
        </g>
        <path id="Path_149" data-name="Path 149" d="M406.037,246.7a6.612,6.612,0,0,1-5.583-10.14h0a6.614,6.614,0,1,1,5.583,10.14Zm.019-10.759a4.166,4.166,0,0,0-3.514,1.935h0a4.141,4.141,0,1,0,3.514-1.936Zm-4.558,1.276h0Z" transform="translate(-303.308 -215.569)"/>
        <path id="Path_150" data-name="Path 150" d="M711.447,591.847a5.044,5.044,0,1,1,5.044-5.044A5.05,5.05,0,0,1,711.447,591.847Zm0-7.619a2.575,2.575,0,1,0,2.575,2.575A2.578,2.578,0,0,0,711.447,584.228Z" transform="translate(-357.657 -277.233)"/>
      </g>
    </g>
  </g>
</svg>
