<svg xmlns="http://www.w3.org/2000/svg" width="354.004" height="296.094" viewBox="0 0 354.004 296.094">
  <g id="Group_198" data-name="Group 198" transform="translate(-870.178 -318.347) rotate(-40)">
    <path id="Path_348" data-name="Path 348" d="M319.516,969.006a2.409,2.409,0,0,1,3.307-3.409c7.775,5.351,15.748,10.595,23.7,15.584a2.409,2.409,0,0,1-2.561,4.081c-8.007-5.026-16.037-10.307-23.866-15.7A2.417,2.417,0,0,1,319.516,969.006Z" transform="translate(0 8.355)"/>
    <path id="Path_349" data-name="Path 349" d="M334.5,978.828a2.383,2.383,0,0,1,3.19-3.426c104.639,65.7,220.361,98.623,334.656,95.219a2.383,2.383,0,1,1,.143,4.764c-115.245,3.432-231.892-29.746-337.334-95.948A2.376,2.376,0,0,1,334.5,978.828Z" transform="translate(8.819 14.159)"/>
    <path id="Path_350" data-name="Path 350" d="M348.493,968.109a2.383,2.383,0,0,1,3.207-3.417c76.575,49.036,166.4,78.414,259.764,84.961a2.382,2.382,0,0,1-.334,4.753c-94.158-6.6-184.755-36.237-262-85.7A2.38,2.38,0,0,1,348.493,968.109Z" transform="translate(17.054 7.851)"/>
    <path id="Path_351" data-name="Path 351" d="M334.888,969.076a11.36,11.36,0,1,1,5.661,4.087A11.361,11.361,0,0,1,334.888,969.076Zm14.477-10.644a6.6,6.6,0,1,0,.966,5.942A6.577,6.577,0,0,0,349.365,958.432Z" transform="translate(8.017 0)"/>
    <path id="Path_352" data-name="Path 352" d="M527.665,1036.41a2.37,2.37,0,0,1-.383-.805l-5.4-20.643a2.383,2.383,0,0,1,3.1-2.85l20.43,7.232a2.383,2.383,0,0,1,.867,3.954c-7.229,7.035-15.1,13.486-15.184,13.549a2.381,2.381,0,0,1-3.429-.437Zm-.037-18.305,3.31,12.653c2.3-1.957,5.707-4.926,9.225-8.215Z" transform="translate(119.304 35.895)"/>
  </g>
</svg>
