<svg xmlns="http://www.w3.org/2000/svg" width="211.904" height="178.059" viewBox="0 0 211.904 178.059">
  <g id="Group_197" data-name="Group 197" transform="translate(-2448.458 -268.936)">
    <path id="Path_345" data-name="Path 345" d="M2451.061,428.236a2.6,2.6,0,0,1-1.833-4.452l129.793-128.592a2.6,2.6,0,0,1,3.664,3.7l-129.792,128.59A2.6,2.6,0,0,1,2451.061,428.236Z" transform="translate(0 18.759)"/>
    <path id="Path_346" data-name="Path 346" d="M2507.784,400.832a2.6,2.6,0,0,1-1.853-4.431l108.253-109.718a2.6,2.6,0,0,1,3.706,3.657L2509.637,400.058A2.6,2.6,0,0,1,2507.784,400.832Z" transform="translate(41.722 12.484)"/>
    <path id="Path_347" data-name="Path 347" d="M2547.023,299.652a15.376,15.376,0,0,1-15.359-15.358,2.6,2.6,0,1,1,5.207,0,10.151,10.151,0,1,0,10.153-10.151,2.6,2.6,0,1,1,0-5.207,15.358,15.358,0,0,1,0,30.716Z" transform="translate(61.202 0)"/>
  </g>
</svg>
