<svg xmlns="http://www.w3.org/2000/svg" width="426.642" height="440.718" viewBox="0 0 426.642 440.718">
  <g id="Performance_rating" data-name="Performance rating" transform="translate(-2448.458 -192.109)">
    <g id="Group_97" data-name="Group 97" transform="translate(2448.992 317.511)">
      <g id="Group_77" data-name="Group 77" transform="translate(0 0)">
        <path id="Path_152" data-name="Path 152" d="M2507,439.025l378.875-11.7c9.011,0,16.341,5.863,16.341,13.069V651.92c0,7.206-7.33,13.069-16.341,13.069l-136.9-7.416,17.576,51.3,18.6.117c5.8,0,10.517,3.773,10.517,8.411s-4.717,8.411-10.517,8.411l-155.743-5.941c-5.8,0,5.053-54.887,5.053-54.887S2497.991,439.025,2507,439.025Z" transform="translate(-2476.11 -427.265)" fill="#5479f7"/>
        <path id="Path_153" data-name="Path 153" d="M2726.944,822.2h96.615l27.409,80.007H2699.536Z" transform="translate(-2566.147 -611.513)" fill="#99b9ff"/>
        <path id="Path_154" data-name="Path 154" d="M2665.379,664.9h-199c-8.515,0-15.417-5.52-15.417-12.33V441.041c0-6.809,6.9-12.33,15.417-12.33h385.775c8.515,0,15.417,5.521,15.417,12.33V652.566c0,6.81-6.9,12.33-15.417,12.33H2665.379Z" transform="translate(-2450.159 -427.911)" fill="#fff"/>
        <path id="Path_155" data-name="Path 155" d="M2660.312,956.781h184.323c5.3,0,9.593,3.435,9.593,7.672s-4.295,7.672-9.593,7.672H2660.312c-5.3,0-9.593-3.435-9.593-7.672S2655.015,956.781,2660.312,956.781Z" transform="translate(-2543.369 -674.312)" fill="#99b9ff"/>
        <g id="Group_76" data-name="Group 76" transform="translate(136.459 256.11)">
          <path id="Path_156" data-name="Path 156" d="M2706.792,931.344l7.7-22.48Z" transform="translate(-2705.992 -908.064)" fill="#fff"/>
          <path id="Path_157" data-name="Path 157" d="M2706.092,931.444a.8.8,0,0,1-.757-1.06l7.7-22.48a.8.8,0,1,1,1.513.518l-7.7,22.48A.8.8,0,0,1,2706.092,931.444Z" transform="translate(-2705.292 -907.363)"/>
        </g>
        <path id="Path_158" data-name="Path 158" d="M2659.613,972.225c-5.731,0-10.393-3.8-10.393-8.472s4.662-8.472,10.393-8.472h37.718a.8.8,0,0,1,0,1.6h-37.718c-4.849,0-8.792,3.083-8.792,6.872s3.944,6.872,8.792,6.872a.8.8,0,0,1,0,1.6Z" transform="translate(-2542.669 -673.612)"/>
        <path id="Path_159" data-name="Path 159" d="M2741.761,985.648h-48.622a.8.8,0,0,1,0-1.6h48.622a.8.8,0,1,1,0,1.6Z" transform="translate(-2562.789 -687.035)"/>
        <path id="Path_160" data-name="Path 160" d="M2665.379,664.9h-199c-8.515,0-15.417-5.52-15.417-12.33V441.041c0-6.809,6.9-12.33,15.417-12.33h385.775c8.515,0,15.417,5.521,15.417,12.33V652.566c0,6.81-6.9,12.33-15.417,12.33H2665.379Z" transform="translate(-2450.159 -427.911)" fill="#fff"/>
        <path id="Path_161" data-name="Path 161" d="M2665.379,664.9h-199c-8.515,0-15.417-5.52-15.417-12.33V441.041c0-6.809,6.9-12.33,15.417-12.33h385.775c8.515,0,15.417,5.521,15.417,12.33V652.566c0,6.81-6.9,12.33-15.417,12.33H2665.379Z" transform="translate(-2450.159 -427.911)" fill="#fff"/>
        <path id="Path_162" data-name="Path 162" d="M3083.6,665H2975.745a.8.8,0,0,1,0-1.6H3083.6c8.06,0,14.618-5.172,14.618-11.53V440.341c0-6.358-6.558-11.53-14.618-11.53H2947.788a.8.8,0,0,1,0-1.6H3083.6c8.942,0,16.218,5.89,16.218,13.13V651.867C3099.82,659.107,3092.544,665,3083.6,665Z" transform="translate(-2681.61 -427.211)"/>
        <path id="Path_163" data-name="Path 163" d="M2664.679,665h-199c-8.942,0-16.217-5.89-16.217-13.13V440.341c0-7.24,7.276-13.13,16.217-13.13H2511.8a.8.8,0,0,1,0,1.6h-46.126c-8.06,0-14.617,5.172-14.617,11.53V651.867c0,6.358,6.557,11.53,14.617,11.53h199a.8.8,0,1,1,0,1.6Z" transform="translate(-2449.459 -427.211)"/>
      </g>
      <g id="Group_80" data-name="Group 80" transform="translate(13.704 10.96)">
        <g id="Group_78" data-name="Group 78" transform="translate(1.775 1.336)">
          <rect id="Rectangle_6" data-name="Rectangle 6" width="387.494" height="212.926" rx="10.63" fill="#99b9ff"/>
        </g>
        <g id="Group_79" data-name="Group 79">
          <path id="Path_164" data-name="Path 164" d="M2665.7,772.885h0l-182.08-.094c-4.668,0-8.466-3.109-8.466-6.931V682.516a.8.8,0,1,1,1.6,0V765.86c0,2.939,3.081,5.331,6.866,5.331l182.08.094a.8.8,0,0,1,0,1.6Z" transform="translate(-2475.151 -556.925)"/>
          <path id="Path_165" data-name="Path 165" d="M3204.545,663.6h0a.8.8,0,0,1-.8-.8l.575-183.4a.791.791,0,0,1,.8-.8.8.8,0,0,1,.8.8l-.575,183.4A.8.8,0,0,1,3204.545,663.6Z" transform="translate(-2815.118 -462.151)"/>
          <path id="Path_166" data-name="Path 166" d="M3099.247,455.49a.8.8,0,0,1-.8-.8c0-2.939-3.08-5.33-6.866-5.33l-113.931.792h-.005a.8.8,0,0,1-.006-1.6l113.937-.792c4.674,0,8.472,3.109,8.472,6.93A.8.8,0,0,1,3099.247,455.49Z" transform="translate(-2709.245 -447.759)"/>
          <path id="Path_167" data-name="Path 167" d="M2475.951,465.811a.8.8,0,0,1-.8-.8V454.689c0-3.821,3.8-6.93,8.466-6.93h22.865a.8.8,0,1,1,0,1.6h-22.865c-3.785,0-6.866,2.391-6.866,5.33v10.321A.8.8,0,0,1,2475.951,465.811Z" transform="translate(-2475.151 -447.759)"/>
          <path id="Path_168" data-name="Path 168" d="M2477.608,585.988a.8.8,0,0,1-.8-.783l-1.657-78.724a.8.8,0,0,1,1.6-.034l1.657,78.724a.8.8,0,0,1-.783.817Z" transform="translate(-2475.151 -474.778)"/>
        </g>
      </g>
      <g id="Group_96" data-name="Group 96" transform="translate(34.01 23.178)">
        <g id="Group_81" data-name="Group 81" transform="translate(0 147.277)">
          <path id="Path_169" data-name="Path 169" d="M2531.281,793.5l-10.092-.154c-4.434-.068-7.978-2.677-7.969-5.868l.094-34.851c.009-3.269,3.734-5.9,8.277-5.845l10,.119c4.443.053,8.006,2.657,8.006,5.855v34.891C2539.594,790.929,2535.843,793.568,2531.281,793.5Z" transform="translate(-2513.22 -746.779)" fill="#caddff"/>
        </g>
        <g id="Group_82" data-name="Group 82" transform="translate(35.738 125.277)">
          <path id="Path_170" data-name="Path 170" d="M2598.287,774.253l-10.1-.154c-4.433-.068-7.975-2.674-7.969-5.864l.1-56.852c.006-3.27,3.732-5.9,8.277-5.849l9.992.12c4.443.053,8.006,2.656,8.006,5.853V768.4C2606.6,771.685,2602.849,774.322,2598.287,774.253Z" transform="translate(-2580.221 -705.533)" fill="#caddff"/>
        </g>
        <g id="Group_83" data-name="Group 83" transform="translate(71.483 136.999)">
          <path id="Path_171" data-name="Path 171" d="M2665.3,784.507l-10.094-.154c-4.433-.068-7.976-2.675-7.969-5.866l.1-45.13c.007-3.27,3.733-5.9,8.277-5.848l9.994.12c4.443.053,8.006,2.657,8.006,5.854v45.169C2673.612,781.937,2669.861,784.576,2665.3,784.507Z" transform="translate(-2647.235 -727.509)" fill="#caddff"/>
        </g>
        <g id="Group_85" data-name="Group 85" transform="translate(107.22 93.356)">
          <g id="Group_84" data-name="Group 84">
            <path id="Path_172" data-name="Path 172" d="M2732.3,746.328l-10.1-.154c-4.431-.068-7.973-2.673-7.969-5.862l.111-88.773c0-3.271,3.731-5.906,8.277-5.852l9.989.12c4.443.053,8.005,2.658,8.005,5.856v88.813C2740.617,743.761,2736.866,746.4,2732.3,746.328Z" transform="translate(-2714.235 -645.688)" fill="#caddff"/>
          </g>
        </g>
        <g id="Group_86" data-name="Group 86" transform="translate(142.962 70.498)">
          <path id="Path_173" data-name="Path 173" d="M2799.313,726.332l-10.1-.154c-4.43-.068-7.972-2.672-7.969-5.861l.114-111.631c0-3.272,3.73-5.907,8.276-5.853l9.987.12c4.443.053,8.006,2.654,8.006,5.851V720.477C2807.627,723.76,2803.876,726.4,2799.313,726.332Z" transform="translate(-2781.243 -602.833)" fill="#caddff"/>
        </g>
        <g id="Group_88" data-name="Group 88" transform="translate(178.704 53.5)">
          <g id="Group_87" data-name="Group 87">
            <path id="Path_174" data-name="Path 174" d="M2866.323,711.463l-10.1-.154c-4.43-.068-7.972-2.672-7.969-5.86l.115-128.628c0-3.272,3.73-5.908,8.277-5.854l9.987.12c4.443.053,8.006,2.655,8.006,5.852V705.607C2874.636,708.891,2870.885,711.533,2866.323,711.463Z" transform="translate(-2848.252 -570.967)" fill="#caddff"/>
          </g>
        </g>
        <g id="Group_89" data-name="Group 89" transform="translate(214.448 90.756)">
          <path id="Path_175" data-name="Path 175" d="M2933.334,744.054l-10.1-.154c-4.431-.068-7.973-2.673-7.969-5.861l.112-91.373c0-3.271,3.73-5.906,8.277-5.851l9.988.119c4.443.053,8.006,2.659,8.006,5.856V738.2C2941.648,741.486,2937.9,744.123,2933.334,744.054Z" transform="translate(-2915.265 -640.813)" fill="#caddff"/>
        </g>
        <g id="Group_91" data-name="Group 91" transform="translate(250.19 60.88)">
          <g id="Group_90" data-name="Group 90">
            <path id="Path_176" data-name="Path 176" d="M3000.344,717.919l-10.1-.154c-4.43-.068-7.972-2.672-7.969-5.86l.115-121.249c0-3.271,3.73-5.907,8.277-5.852l9.987.12c4.443.053,8.005,2.658,8.005,5.856v121.29C3008.657,715.352,3004.907,717.988,3000.344,717.919Z" transform="translate(-2982.273 -584.802)" fill="#caddff"/>
          </g>
        </g>
        <g id="Group_93" data-name="Group 93" transform="translate(285.931 24.467)">
          <g id="Group_92" data-name="Group 92">
            <path id="Path_177" data-name="Path 177" d="M3067.353,686.066l-10.1-.154c-4.43-.068-7.972-2.672-7.969-5.86l.117-157.661c0-3.272,3.729-5.908,8.277-5.853l9.985.12c4.443.053,8.006,2.658,8.006,5.855v157.7C3075.667,683.5,3071.916,686.135,3067.353,686.066Z" transform="translate(-3049.281 -516.536)" fill="#caddff"/>
          </g>
        </g>
        <g id="Group_95" data-name="Group 95" transform="translate(322.158)">
          <g id="Group_94" data-name="Group 94">
            <path id="Path_178" data-name="Path 178" d="M3135.271,664.662l-10.1-.154c-4.43-.068-7.971-2.671-7.969-5.859l.118-182.129c0-3.272,3.73-5.908,8.277-5.854l9.984.12c4.443.053,8.006,2.657,8.006,5.853v182.17C3143.583,662.092,3139.833,664.731,3135.271,664.662Z" transform="translate(-3117.198 -470.665)" fill="#caddff"/>
          </g>
        </g>
      </g>
    </g>
    <g id="Group_108" data-name="Group 108" transform="translate(2522.187 213.625)">
      <g id="Group_100" data-name="Group 100">
        <rect id="Rectangle_7" data-name="Rectangle 7" width="179.411" height="86.631" rx="19.15" fill="#5479f7"/>
        <rect id="Rectangle_8" data-name="Rectangle 8" width="93.155" height="10.308" rx="3.918" transform="translate(75.131 15.27)" fill="#caddff"/>
        <g id="Group_99" data-name="Group 99" transform="translate(12.685 16.478)">
          <path id="Path_179" data-name="Path 179" d="M2613,291.575a26.242,26.242,0,1,1,26.242,26.264A26.253,26.253,0,0,1,2613,291.575Z" transform="translate(-2611.646 -264.259)" fill="#fff"/>
          <path id="Path_180" data-name="Path 180" d="M2627.561,348.039a26.37,26.37,0,0,0,36.215,0,63.276,63.276,0,0,0-36.215,0Z" transform="translate(-2618.442 -301.626)" fill="#99b9ff"/>
          <g id="Group_98" data-name="Group 98" transform="translate(15.543 10.798)">
            <path id="Path_181" data-name="Path 181" d="M2659.745,284.756a7.36,7.36,0,0,0-3.989-1.173h-8.329a7.365,7.365,0,0,0-5.012,1.969l-.457.424a7.364,7.364,0,0,0-1.917,7.9l2.738,7.6,17.56-.11,2.478-8.3A7.367,7.367,0,0,0,2659.745,284.756Z" transform="translate(-2639.604 -283.583)"/>
            <path id="Path_182" data-name="Path 182" d="M2658.244,292.114l-.017-.008-12.844,8.234v4.779a8.869,8.869,0,0,0,3.374,6.966v7.522a5.384,5.384,0,0,0,10.769,0v-7.318a8.875,8.875,0,0,0,3.636-7.17v-5.235A8.593,8.593,0,0,0,2658.244,292.114Z" transform="translate(-2642.301 -287.56)" fill="#fff"/>
            <path id="Path_183" data-name="Path 183" d="M2656.393,343.4a6.191,6.191,0,0,1-6.184-6.184v-7.365h1.6v7.365a4.584,4.584,0,0,0,9.168,0v-7.134h1.6v7.134A6.191,6.191,0,0,1,2656.393,343.4Z" transform="translate(-2644.552 -305.174)"/>
            <path id="Path_184" data-name="Path 184" d="M2653.573,313.395a.8.8,0,0,1,0-1.6,8.1,8.1,0,0,0,8.089-8.089v-5.235a7.8,7.8,0,0,0-7.792-7.792h-8.386v13.028a8.112,8.112,0,0,0,4.741,7.367.8.8,0,1,1-.663,1.457,9.716,9.716,0,0,1-5.678-8.823V289.878a.8.8,0,0,1,.8-.8h9.186a9.4,9.4,0,0,1,9.392,9.393v5.235A9.7,9.7,0,0,1,2653.573,313.395Z" transform="translate(-2641.601 -286.147)"/>
          </g>
          <path id="Path_185" data-name="Path 185" d="M2637.658,317.731c-.2,0-.4,0-.6-.006a27.2,27.2,0,0,1-19.49-45.54.8.8,0,0,1,1.181,1.081,25.6,25.6,0,1,0,17.682-8.3.8.8,0,0,1-.074-1.6,27.2,27.2,0,1,1,1.3,54.362Z" transform="translate(-2610.464 -263.339)"/>
        </g>
      </g>
      <g id="Group_104" data-name="Group 104" transform="translate(0 100.325)">
        <rect id="Rectangle_9" data-name="Rectangle 9" width="179.411" height="86.631" rx="19.15" fill="#5479f7"/>
        <rect id="Rectangle_10" data-name="Rectangle 10" width="93.155" height="10.308" rx="3.918" transform="translate(75.131 15.27)" fill="#caddff"/>
        <g id="Group_103" data-name="Group 103" transform="translate(13.232 15.467)">
          <path id="Path_186" data-name="Path 186" d="M2614.042,478.228a26.693,26.693,0,1,1,26.694,26.716,26.7,26.7,0,0,1-26.694-26.716Z" transform="translate(-2612.681 -450.456)" fill="#fff"/>
          <path id="Path_187" data-name="Path 187" d="M2628.857,535.663a26.822,26.822,0,0,0,36.837,0,64.366,64.366,0,0,0-36.837,0Z" transform="translate(-2619.594 -488.466)" fill="#99b9ff"/>
          <g id="Group_102" data-name="Group 102" transform="translate(13.918 6.606)">
            <path id="Path_188" data-name="Path 188" d="M2660.066,478.776l-.016-.008-13.065,8.375V492a9.021,9.021,0,0,0,3.432,7.085v7.651a5.477,5.477,0,1,0,10.954,0V499.3a9.027,9.027,0,0,0,3.7-7.293v-5.326A8.742,8.742,0,0,0,2660.066,478.776Z" transform="translate(-2641.971 -469.78)" fill="#fff"/>
            <path id="Path_189" data-name="Path 189" d="M2658.2,527.784a6.284,6.284,0,0,1-6.277-6.277v-7.491h1.6v7.491a4.677,4.677,0,0,0,9.354,0l.166-11.092,1.6.024-.166,11.081A6.282,6.282,0,0,1,2658.2,527.784Z" transform="translate(-2644.273 -484.546)"/>
            <path id="Path_190" data-name="Path 190" d="M2645.664,483.584c-.8.517-.654,2.392-.644,2.393s1.715-4.391-.067-6.634c-1.033-1.3-2.251-.638-4.116-1.94a7.818,7.818,0,0,1-3.214-6.923c.366-3.334,3.257-5.211,5.08-6.395s3.986-2.41,6.515-2.129c3.3.368,3.633,2.565,7.3,3.2,2.983.514,3.43-.824,6.054-.3,2.188.433,7.531,3.557,7.264,7.115-.17,2.258-2.433,2.527-3,5.711-.341,1.911.348,2.519.274,4.091-.185,3.9-4.828,8.543-9.205,8.655C2651.966,490.575,2647.561,482.359,2645.664,483.584Z" transform="translate(-2637.584 -461.917)"/>
            <g id="Group_101" data-name="Group 101" transform="translate(3.963 11.649)">
              <path id="Path_191" data-name="Path 191" d="M2661.317,498.687s4.178.469,4.344-3.1-3.068-2.526-3.068-2.526,1.662-8.156-3.96-7.479a33.093,33.093,0,0,1-10.1-.325s-2.2,7.937-2,14.07c.121,3.7,1.114,6.741,3.991,6.99,7.877.683,10.8-7.629,10.8-7.629Z" transform="translate(-2645.714 -484.456)" fill="#fff"/>
              <path id="Path_192" data-name="Path 192" d="M2650.725,506.456c-.317,0-.642-.014-.976-.043-2.044-.177-4.524-1.667-4.721-7.761-.2-6.184,1.94-13.981,2.031-14.31a.8.8,0,0,1,.945-.567,32.646,32.646,0,0,0,9.835.312,4.089,4.089,0,0,1,3.7,1.165c1.521,1.649,1.466,4.571,1.3,6.163a2.936,2.936,0,0,1,1.841.556,3.286,3.286,0,0,1,1.081,2.952,3.755,3.755,0,0,1-1.282,2.808,5.323,5.323,0,0,1-3.335,1.075C2660.32,500.651,2657.212,506.456,2650.725,506.456Zm-2.31-20.975c-.521,2.066-1.948,8.23-1.789,13.119.129,3.95,1.226,6.043,3.26,6.219.287.025.568.037.841.037,6.525,0,9.027-6.832,9.135-7.135a.8.8,0,0,1,.841-.529h0a4.166,4.166,0,0,0,2.739-.682,2.194,2.194,0,0,0,.719-1.661,1.967,1.967,0,0,0-.454-1.606,2.042,2.042,0,0,0-1.569-.122.8.8,0,0,1-1.03-.921c.233-1.154.554-4.458-.747-5.865a2.55,2.55,0,0,0-2.333-.66A34.807,34.807,0,0,1,2648.416,485.481Z" transform="translate(-2645.014 -483.756)"/>
            </g>
          </g>
          <path id="Path_193" data-name="Path 193" d="M2639.128,504.819a27.638,27.638,0,0,1-20.414-46.294.8.8,0,0,1,1.181,1.081,26.05,26.05,0,1,0,18-8.445.8.8,0,1,1-.075-1.6,27.644,27.644,0,1,1,1.313,55.256Z" transform="translate(-2611.491 -449.533)"/>
        </g>
      </g>
      <g id="Group_107" data-name="Group 107" transform="translate(0.531 199.589)">
        <rect id="Rectangle_11" data-name="Rectangle 11" width="179.411" height="86.631" rx="19.15" fill="#5479f7"/>
        <rect id="Rectangle_12" data-name="Rectangle 12" width="93.155" height="10.308" rx="3.918" transform="translate(75.131 15.27)" fill="#caddff"/>
        <g id="Group_106" data-name="Group 106" transform="translate(12.698 16.243)">
          <path id="Path_194" data-name="Path 194" d="M2612.985,664.769a26.694,26.694,0,1,1,26.689,26.182,26.439,26.439,0,0,1-26.689-26.182Z" transform="translate(-2612.185 -637.787)" fill="#fff"/>
          <path id="Path_195" data-name="Path 195" d="M2638.974,691.051c-15.157,0-27.489-12.1-27.489-26.982a26.457,26.457,0,0,1,1.663-9.262.8.8,0,0,1,1.5.558,24.867,24.867,0,0,0-1.562,8.7c0,14,11.614,25.381,25.889,25.381s25.889-11.386,25.889-25.381-11.614-25.382-25.889-25.382a26.02,26.02,0,0,0-20.007,9.273.8.8,0,1,1-1.226-1.028,27.618,27.618,0,0,1,21.233-9.845c15.158,0,27.489,12.1,27.489,26.982S2654.132,691.051,2638.974,691.051Z" transform="translate(-2611.485 -637.087)"/>
          <path id="Path_196" data-name="Path 196" d="M2628.7,721.074a27.038,27.038,0,0,0,36.616,0,65.161,65.161,0,0,0-36.616,0Z" transform="translate(-2619.516 -675.051)" fill="#99b9ff"/>
          <path id="Path_197" data-name="Path 197" d="M2659.634,704.7h0a4.173,4.173,0,0,1-4.213-4.132V679.492h8.425v21.072a4.173,4.173,0,0,1-4.212,4.132Z" transform="translate(-2631.986 -656.874)" fill="#fff"/>
          <path id="Path_198" data-name="Path 198" d="M2659.154,674.456c-.529-6.545,2.414-10.631-4.183-18.026-6.831-7.657-12.692-2.523-12.692-2.523s-4.885-3.979-11.3,4.341c-5.659,7.343,1.588,13.923-.848,18.494s-10.7,7.065-10.7,7.065,2.648,5.2,5.931,7.481h34.844s7.2-7.688,7.2-9.87C2667.415,681.417,2659.684,681,2659.154,674.456Z" transform="translate(-2615.196 -644.149)"/>
          <g id="Group_105" data-name="Group 105" transform="translate(7.614 42.598)">
            <path id="Path_199" data-name="Path 199" d="M2628.7,721.074a27.038,27.038,0,0,0,36.616,0,65.161,65.161,0,0,0-36.616,0Z" transform="translate(-2627.13 -717.649)" fill="#99b9ff"/>
            <path id="Path_200" data-name="Path 200" d="M2645.635,728.316a27.653,27.653,0,0,1-18.851-7.354l-1.023-.947,1.334-.405a65.959,65.959,0,0,1,37.082,0l1.334.405-1.024.947A27.653,27.653,0,0,1,2645.635,728.316Zm-16.681-7.58a26.257,26.257,0,0,0,33.363,0,64.73,64.73,0,0,0-33.363,0Z" transform="translate(-2625.76 -716.949)"/>
          </g>
          <path id="Path_201" data-name="Path 201" d="M2656.332,666.637h-.293l-8.573,8.454v4.636a8.379,8.379,0,0,0,4.243,7.258v7.581a4.213,4.213,0,0,0,8.425,0v-7.439a8.392,8.392,0,0,0,4.489-7.4v-4.957A8.214,8.214,0,0,0,2656.332,666.637Z" transform="translate(-2628.274 -650.875)" fill="#fff"/>
          <path id="Path_202" data-name="Path 202" d="M2658.934,716.8a4.979,4.979,0,0,1-5.013-4.932v-7.35a.8.8,0,1,1,1.6,0v7.35a3.413,3.413,0,0,0,6.825,0v-7.223a.8.8,0,0,1,1.6,0v7.223A4.978,4.978,0,0,1,2658.934,716.8Z" transform="translate(-2631.286 -668.178)"/>
          <path id="Path_203" data-name="Path 203" d="M2655.345,688.244a.8.8,0,0,1,0-1.6,7.707,7.707,0,0,0,7.779-7.616v-4.957a7.388,7.388,0,0,0-7.159-7.327h-.015l-8.384,8.129v4.155a7.63,7.63,0,0,0,4.554,6.933.8.8,0,0,1-.653,1.461,9.234,9.234,0,0,1-5.5-8.394v-4.494a.8.8,0,0,1,.243-.574l8.866-8.6a.8.8,0,0,1,.557-.226q.2,0,.4.009a8.984,8.984,0,0,1,8.69,8.925v4.957A9.309,9.309,0,0,1,2655.345,688.244Z" transform="translate(-2627.574 -650.175)"/>
        </g>
      </g>
    </g>
    <g id="Group_114" data-name="Group 114" transform="translate(2672.02 192.109)">
      <path id="Path_204" data-name="Path 204" d="M3015.582,229.029c4.458,7.607,14.921,9.1,17.268,9.367a27.454,27.454,0,0,0,18.481-4.852,36.623,36.623,0,0,0,21.752,5.5c8.259-.633,22.174-4.755,24.869-14.412,3.227-11.561-11.32-24.985-23.8-29.725-10.466-3.976-26.42-4.483-34.057,3.564-2.806,2.957-3.238,5.751-6.551,6.716-5.945,1.733-10.318-5.583-18.024-5.211-4.622.222-8.232,3.1-10.461,5.345-5.688,1.88-9.174,5.656-8.75,8.693.443,3.164,5.068,5.082,5.971,5.457,4.684,1.943,7.17-.018,9.945,2.017C3014.688,223.295,3013.691,225.8,3015.582,229.029Z" transform="translate(-2927.636 -192.109)"/>
      <g id="Group_109" data-name="Group 109" transform="translate(0 10.48)">
        <path id="Path_205" data-name="Path 205" d="M2963.926,245.256s-22.948,8.78-34.728,1.955c-5.538-3.209-26.816-26.877-31.256-28.926-2.7-1.246-6.891-3.11-9.762-4.379a7.592,7.592,0,0,0-6.271.059l-11.352,5.272a11.3,11.3,0,0,0,8.979,1.128,16.878,16.878,0,0,1,10.565.617l.229.093-10.248,3.832s1.728,2.546,7.263,1.219c2.923-.7,6.516-.237,9.259.356l.2.089s11.53,27.124,26.644,34.965c21.99,11.409,43.905,2.226,43.905,2.226Z" transform="translate(-2868.974 -212.457)" fill="#fff"/>
        <path id="Path_206" data-name="Path 206" d="M2946.025,267.317a52.469,52.469,0,0,1-24.334-5.772c-14.464-7.5-25.437-31.751-26.869-35.031a21.345,21.345,0,0,0-8.676-.311c-6,1.439-8.028-1.425-8.111-1.548l-.571-.842,9.108-3.406a16.284,16.284,0,0,0-8.222.032,12.04,12.04,0,0,1-9.643-1.252l-1.117-.8,12.6-5.85a8.394,8.394,0,0,1,6.931-.065c2.981,1.319,7.1,3.149,9.774,4.384,2.365,1.091,8.781,7.515,15.575,14.316,6.434,6.442,13.087,13.1,15.747,14.644,11.313,6.554,33.814-1.923,34.04-2.01l.9-.344,3.715,20.084-.595.249A58.2,58.2,0,0,1,2946.025,267.317Zm-56.748-43.042a29.726,29.726,0,0,1,6.112.723l.16.053.481.217.123.287c.114.269,11.594,26.951,26.275,34.569,19.417,10.074,38.992,3.757,42.629,2.427l-3.13-16.919c-4.446,1.576-23.738,7.814-34.514,1.57-2.842-1.647-9.271-8.083-16.077-14.9-6.4-6.4-13.008-13.022-15.113-13.994-2.667-1.231-6.774-3.058-9.75-4.374a6.8,6.8,0,0,0-5.61.053l-9.868,4.582a11.222,11.222,0,0,0,6.96.316,17.594,17.594,0,0,1,11.064.65l2.13.865-10.851,4.058c.924.464,2.623.869,5.477.185A15.16,15.16,0,0,1,2889.277,224.276Z" transform="translate(-2867.59 -211.757)"/>
      </g>
      <path id="Path_207" data-name="Path 207" d="M3093.916,361.888s-20.358,13.821-48.76,9.752c0,0,3.839-7.416,10.4-10.077S3093.916,361.888,3093.916,361.888Z" transform="translate(-2950.444 -270.662)"/>
      <path id="Path_208" data-name="Path 208" d="M3126.837,391.39c-1.265-31-19.137-42.43-19.137-42.43l-36.833,9.188-15.193,33.243Z" transform="translate(-2955.352 -265.297)"/>
      <path id="Path_209" data-name="Path 209" d="M3039.906,260.94l19.365-9.673a12.234,12.234,0,0,1,14.536,2.723c8.449,9.327,23,27.356,30.32,47.882,0,0-13.158,16.783-30.556,15.614s-27.656-2.288-33.807,2.6c0,0-5.12-25.733-6.153-48.46A11.381,11.381,0,0,1,3039.906,260.94Z" transform="translate(-2945.051 -219.11)" fill="#5479f7"/>
      <path id="Path_210" data-name="Path 210" d="M3073.358,338.472a.8.8,0,0,1-.8-.725c-.65-6.955-2.816-11.9-6.439-14.684-2.76-2.125-5.695-2.546-8.8-2.992-3.327-.477-6.767-.972-10.284-3.525-3.689-2.677-6.317-6.811-7.811-12.287a.8.8,0,0,1,1.544-.421c1.395,5.116,3.819,8.956,7.206,11.414,3.2,2.32,6.438,2.786,9.573,3.236,3.175.456,6.458.928,9.551,3.308,3.989,3.071,6.363,8.388,7.056,15.8a.8.8,0,0,1-.722.871A.73.73,0,0,1,3073.358,338.472Z" transform="translate(-2947.663 -243.967)"/>
      <g id="Group_110" data-name="Group 110" transform="translate(113.764 30.787)">
        <path id="Path_211" data-name="Path 211" d="M3123.957,344.777l-40.893-83.6a6.834,6.834,0,0,1,3.112-9.13h0a6.833,6.833,0,0,1,8.807,2.481c5.455,8.644,15.9,26.046,18.247,36.08,3.209,13.731,7.871,20.529,10.727,24.9,1.844,2.824,4.153,12.854,5.558,19.6a5.907,5.907,0,0,0,7.557,4.435l.012,0a9.753,9.753,0,0,1,8.75,1.475l4.4,3.27a.609.609,0,0,1-.378,1.1Z" transform="translate(-3081.571 -250.531)" fill="#fff"/>
        <path id="Path_212" data-name="Path 212" d="M3149.174,345.479h-.034l-26.384-.617-.214-.437-40.893-83.6a7.635,7.635,0,0,1,13.315-7.428c5.848,9.266,16.008,26.307,18.349,36.325,3.064,13.11,7.424,19.769,10.309,24.175l.308.471c1.862,2.851,4.112,12.384,5.672,19.878a5.106,5.106,0,0,0,6.532,3.835,10.586,10.586,0,0,1,9.48,1.592l4.4,3.27a1.408,1.408,0,0,1-.839,2.539Zm-25.409-2.194,24.811.58-3.915-2.911a8.975,8.975,0,0,0-8.033-1.354,6.706,6.706,0,0,1-8.593-5.031c-2.166-10.4-4.1-17.268-5.445-19.329l-.308-.47c-2.947-4.5-7.4-11.3-10.529-24.687-2.288-9.79-12.35-26.654-18.144-35.835a6.034,6.034,0,0,0-10.524,5.871Z" transform="translate(-3080.874 -249.828)"/>
      </g>
      <g id="Group_113" data-name="Group 113" transform="translate(78.958 18.366)">
        <g id="Group_112" data-name="Group 112">
          <g id="Group_111" data-name="Group 111">
            <path id="Path_213" data-name="Path 213" d="M3032.637,234.529c.031-.034,2.01-2.3.924-3.959s-3.259.542-3.259.542a6.859,6.859,0,0,0-6.026-3.066,7.149,7.149,0,0,1-6.357,4.043,54.777,54.777,0,0,0,2.584,5.019l.5,2.842a.623.623,0,0,0,.93.429h0a.644.644,0,0,1,.84.17,10.488,10.488,0,0,0,3.558,3.269c1.683.755,3.191-.021,4.324-1.47,2.67,3.237,6.613,8.744,4.774,11.127,0,0,6.009,1.74,11.948-6.43Z" transform="translate(-3016.692 -227.242)" fill="#fff"/>
            <path id="Path_214" data-name="Path 214" d="M3035.828,253.734a6.5,6.5,0,0,1-1.7-.192l-1.129-.327.718-.931c1.035-1.34-.521-4.829-4.173-9.407a4.018,4.018,0,0,1-4.619.97,10.736,10.736,0,0,1-3.79-3.414,1.423,1.423,0,0,1-2-1.046l-.474-2.7a55.243,55.243,0,0,1-2.553-4.977l-.494-1.127,1.23.005h.031a6.359,6.359,0,0,0,5.59-3.566l.2-.464.507-.014a7.693,7.693,0,0,1,6.182,2.7,3.486,3.486,0,0,1,2.257-.794,2.034,2.034,0,0,1,1.537.977c1.012,1.545.127,3.334-.5,4.275l14.73,12.508-.437.6C3042.6,252.8,3038.174,253.734,3035.828,253.734Zm-.3-1.6c1.745.081,5.639-.439,9.686-5.666l-14.789-12.557.542-.61c.034-.04,1.584-1.876.854-2.991-.158-.242-.29-.254-.354-.261-.508-.05-1.361.613-1.664.923l-.737.755-.528-.914a6,6,0,0,0-4.85-2.664,7.9,7.9,0,0,1-5.626,3.958c.445.929,1.171,2.375,2.06,3.9l.072.124.483,2.754a1.446,1.446,0,0,1,1.658.482,9.615,9.615,0,0,0,3.249,3.024c1.18.529,2.314.114,3.367-1.233l.614-.785.634.769C3034.3,246.117,3036.089,249.8,3035.525,252.133Z" transform="translate(-3015.619 -226.542)"/>
          </g>
          <path id="Path_215" data-name="Path 215" d="M3041.092,252.012a.8.8,0,0,1-.611-1.315,10.743,10.743,0,0,0,1.423-3.081.8.8,0,0,1,1.535.45,12.1,12.1,0,0,1-1.734,3.662A.8.8,0,0,1,3041.092,252.012Z" transform="translate(-3027.132 -236.107)"/>
        </g>
      </g>
    </g>
    <g id="Group_115" data-name="Group 115" transform="translate(2448.458 233.088)">
      <path id="Path_216" data-name="Path 216" d="M2449.258,335.559a.8.8,0,0,1-.563-1.368l39.89-39.521a.8.8,0,0,1,1.126,1.137l-39.889,39.52A.8.8,0,0,1,2449.258,335.559Z" transform="translate(-2448.458 -280.836)"/>
      <path id="Path_217" data-name="Path 217" d="M2505.981,321.228a.8.8,0,0,1-.57-1.362l33.27-33.72a.8.8,0,1,1,1.139,1.124l-33.27,33.72A.8.8,0,0,1,2505.981,321.228Z" transform="translate(-2474.925 -276.855)"/>
      <path id="Path_218" data-name="Path 218" d="M2536.385,278.376a4.726,4.726,0,0,1-4.72-4.72.8.8,0,1,1,1.6,0,3.12,3.12,0,1,0,3.12-3.12.8.8,0,0,1,0-1.6,4.72,4.72,0,0,1,0,9.44Z" transform="translate(-2487.283 -268.936)"/>
      <path id="Path_219" data-name="Path 219" d="M2969.616,355.372a.8.8,0,0,1-.565-1.365l22.647-22.648a.8.8,0,0,1,1.131,1.132l-22.647,22.647A.8.8,0,0,1,2969.616,355.372Z" transform="translate(-2691.261 -297.954)"/>
      <path id="Path_220" data-name="Path 220" d="M2956.941,387.482a.8.8,0,0,1-.566-1.366l22.043-22.044a.8.8,0,1,1,1.131,1.131l-22.043,22.044A.8.8,0,0,1,2956.941,387.482Z" transform="translate(-2685.347 -313.218)"/>
    </g>
    <g id="Group_133" data-name="Group 133" transform="translate(2524.244 303.381)">
      <g id="Group_120" data-name="Group 120" transform="translate(130.867 171.503)">
        <g id="Group_116" data-name="Group 116" transform="translate(66.193 120.695)">
          <path id="Path_221" data-name="Path 221" d="M2971.255,950.839l-.677,12.151-8.348,1.37-.743-14.331Z" transform="translate(-2960.687 -949.229)" fill="#fff"/>
          <path id="Path_222" data-name="Path 222" d="M2961.53,964.46a.8.8,0,0,1-.8-.759l-.743-14.331a.8.8,0,0,1,.865-.839l9.768.811a.8.8,0,0,1,.733.842l-.677,12.15a.8.8,0,0,1-.669.745l-8.348,1.37A.825.825,0,0,1,2961.53,964.46Zm.1-14.258.649,12.523,6.833-1.121.6-10.732Z" transform="translate(-2959.987 -948.529)"/>
        </g>
        <g id="Group_117" data-name="Group 117" transform="translate(63.298 128.39)">
          <path id="Path_223" data-name="Path 223" d="M2959.465,992.2a60.328,60.328,0,0,0,15.976-.791,3.654,3.654,0,0,0,2.906-4.642c-1.787-5.8-4.92-16.8-9.574-21.742l-.945,2.851-1.642-2.56a1.339,1.339,0,0,0-1.031-.608l-3.318-.245a1.328,1.328,0,0,0-1.419,1.092l-.4,2.453-1.315-3.13-2.633,23.387A3.679,3.679,0,0,0,2959.465,992.2Z" transform="translate(-2955.259 -963.657)" fill="#5479f7"/>
          <path id="Path_224" data-name="Path 224" d="M2963.752,992.51c-1.948,0-3.656-.093-5.056-.215h0a4.492,4.492,0,0,1-4.122-4.8l2.636-23.411a.8.8,0,0,1,1.532-.22l.248.59a2.112,2.112,0,0,1,2.207-1.493l3.318.245a2.15,2.15,0,0,1,1.646.973l.737,1.149.417-1.259a.8.8,0,0,1,1.342-.3c4.465,4.742,7.538,14.8,9.374,20.8l.383,1.251a4.374,4.374,0,0,1-.441,3.55,4.572,4.572,0,0,1-3.084,2.114A61.43,61.43,0,0,1,2963.752,992.51Zm-4.918-1.81a59.4,59.4,0,0,0,15.761-.78,2.974,2.974,0,0,0,2.007-1.37,2.734,2.734,0,0,0,.28-2.25l-.384-1.256c-1.665-5.448-4.37-14.3-8.113-19.123l-.5,1.5a.8.8,0,0,1-1.433.18l-1.642-2.56a.545.545,0,0,0-.417-.242l-3.318-.245a.524.524,0,0,0-.571.423l-.4,2.453a.8.8,0,0,1-1.527.181l-.125-.3-2.29,20.335a2.884,2.884,0,0,0,2.668,3.048Z" transform="translate(-2954.559 -962.957)"/>
        </g>
        <path id="Path_225" data-name="Path 225" d="M2968.716,1008.492a41.991,41.991,0,0,1-8.479-.834.8.8,0,0,1,.352-1.561c.086.02,8.755,1.925,16.809-.282a.8.8,0,0,1,.423,1.544A34.782,34.782,0,0,1,2968.716,1008.492Z" transform="translate(-2893.619 -854.551)"/>
        <path id="Path_226" data-name="Path 226" d="M2967.759,992.47a.8.8,0,0,1-.013-1.6l7.885-.133a.8.8,0,0,1,.027,1.6l-7.885.133Z" transform="translate(-2897.047 -847.528)"/>
        <g id="Group_118" data-name="Group 118" transform="translate(24.46 117)">
          <path id="Path_227" data-name="Path 227" d="M2895.079,943.1l-.344,17.7-10.105.5-1.384-17.615Z" transform="translate(-2882.446 -942.302)" fill="#fff"/>
          <path id="Path_228" data-name="Path 228" d="M2883.929,961.4a.8.8,0,0,1-.8-.738l-1.384-17.614a.8.8,0,0,1,.759-.862l11.833-.581a.8.8,0,0,1,.84.815l-.345,17.7a.8.8,0,0,1-.761.783l-10.1.5Zm-.521-17.656,1.258,16.018,8.583-.421.313-16.1Z" transform="translate(-2881.746 -941.602)"/>
        </g>
        <g id="Group_119" data-name="Group 119" transform="translate(0 127.411)">
          <path id="Path_229" data-name="Path 229" d="M2876.493,979.735a3.561,3.561,0,0,1-2.634,3.649c-5.741,1.6-18.676,5.172-22.381,5.9-4.808.94-10.837-.212-13.54-2.845s5.248-9.623,9.06-12.212c5.661-3.846,10.913-11.155,13.252-11.587s7.079,6,7.079,6l7.034-3.29A84.548,84.548,0,0,1,2876.493,979.735Z" transform="translate(-2836.588 -961.818)" fill="#5479f7"/>
          <path id="Path_230" data-name="Path 230" d="M2847.306,989.706c-4.214,0-8.457-1.281-10.626-3.394a2.654,2.654,0,0,1-.778-2.21c.342-3.891,7.475-9.558,9.946-11.237a54.578,54.578,0,0,0,7.732-6.954c2.812-2.871,4.469-4.508,5.824-4.758,2.388-.442,5.954,3.8,7.473,5.788l6.446-3.015a.8.8,0,0,1,1.113.521,84.538,84.538,0,0,1,2.156,14.537,4.385,4.385,0,0,1-3.217,4.474c-5.5,1.533-18.692,5.178-22.443,5.911A19.007,19.007,0,0,1,2847.306,989.706Zm12.5-26.99a.594.594,0,0,0-.113.01c-.923.171-2.981,2.272-4.972,4.3a55.7,55.7,0,0,1-7.977,7.158c-3.731,2.534-9.021,7.437-9.251,10.053a1.053,1.053,0,0,0,.3.924c2.423,2.36,8.178,3.541,12.829,2.632,3.695-.722,16.84-4.354,22.319-5.882A2.777,2.777,0,0,0,2875,979.09h0a89.116,89.116,0,0,0-1.881-13.3l-6.146,2.874a.8.8,0,0,1-.982-.25C2863.908,965.6,2861,962.715,2859.809,962.715Z" transform="translate(-2835.889 -961.12)"/>
        </g>
        <path id="Path_231" data-name="Path 231" d="M2849.252,1001.035c-3.187,0-5.991-.6-7.935-2.14a.8.8,0,0,1,.995-1.253c7.724,6.13,32.621-5.111,32.871-5.225a.8.8,0,1,1,.664,1.456C2875.03,994.245,2859.987,1001.035,2849.252,1001.035Z" transform="translate(-2838.281 -848.279)"/>
        <path id="Path_232" data-name="Path 232" d="M2873.5,982.409a.794.794,0,0,1-.5-.173l-5.374-4.259a.8.8,0,0,1,.994-1.254l5.373,4.259a.8.8,0,0,1-.5,1.427Z" transform="translate(-2850.56 -840.909)"/>
        <path id="Path_233" data-name="Path 233" d="M2917.713,722.252s9.3,55.731,11.929,74.685-1.26,49.817-1.26,49.817l-15.639-.032s-3-37.148-4.691-47.422c0,0-7.314-13.681-9.914-26.075s-10.274-31.8-10.274-31.8-.3,98.735-.419,106.5c0,0-12.2,1.13-16.728-1.339,0,0-9.631-35.524-9.527-55.114s.323-68.615.323-68.615Z" transform="translate(-2847.694 -722.252)"/>
        <path id="Path_234" data-name="Path 234" d="M2953.733,866.326a.8.8,0,0,1-.039-1.6l4.769-.234a.8.8,0,0,1,.078,1.6l-4.768.234Z" transform="translate(-2890.503 -788.622)" fill="#fff"/>
        <path id="Path_235" data-name="Path 235" d="M2882.216,901.175a.8.8,0,0,1-.8-.744c-.618-8.746-11.886-24.779-12-24.94a.8.8,0,1,1,1.306-.924c.475.672,11.64,16.563,12.29,25.751a.8.8,0,0,1-.742.854Z" transform="translate(-2851.466 -793.165)" fill="#fff"/>
      </g>
      <g id="Group_123" data-name="Group 123" transform="translate(113.512 82.76)">
        <g id="Group_121" data-name="Group 121" transform="translate(0 6.37)">
          <path id="Path_236" data-name="Path 236" d="M2848.953,569.32c-17.891,32.609-16.187,46.979-41.388,13.345l-2.712,13.283s48.075,71.475,39.556,2.112Z" transform="translate(-2804.053 -568.52)" fill="#fff"/>
          <path id="Path_237" data-name="Path 237" d="M2837.665,628.435c-12.008,0-33.226-31.328-34.177-32.741a.8.8,0,0,1-.119-.606l2.712-13.283a.8.8,0,0,1,1.424-.319c10.458,13.958,16.062,19.255,20.052,18.885,4.046-.377,7.284-6.959,12.186-16.921,2.2-4.47,4.693-9.536,7.809-15.215a.8.8,0,0,1,1.492.51l-4.526,28.629c2.274,18.609.712,28.654-4.777,30.7A5.907,5.907,0,0,1,2837.665,628.435ZM2805,595.079c6.835,10.1,25.738,34.65,34.177,31.5,3.189-1.19,6.425-7.208,3.734-29.12a.838.838,0,0,1,0-.222l3.806-24.078c-2.1,4-3.906,7.667-5.546,11-5.324,10.818-8.537,17.348-13.474,17.807-4.585.427-9.988-4.34-20.412-18.1Z" transform="translate(-2803.353 -567.819)"/>
        </g>
        <g id="Group_122" data-name="Group 122" transform="translate(25.698)">
          <path id="Path_238" data-name="Path 238" d="M2913.844,647.682l-56.56,2.474,5.812-54.992-9.639-3.781,6.321-16.8a25.387,25.387,0,0,1,21.684-16.191,290.824,290.824,0,0,1,32.287-.9,27.682,27.682,0,0,1,18.753,7.959c6.892,6.827,16.268,17.266,18.832,25.723l-30.885,11.344-2.939-4.216S2912.554,624.473,2913.844,647.682Z" transform="translate(-2852.43 -556.578)" fill="#fff"/>
          <path id="Path_239" data-name="Path 239" d="M2855.493,650.295l5.845-55.31-9.806-3.846,6.6-17.541a26.29,26.29,0,0,1,22.365-16.706,291.058,291.058,0,0,1,32.376-.907,28.353,28.353,0,0,1,19.3,8.191c7.26,7.193,16.456,17.553,19.034,26.059l.219.722-32.173,11.817-2.184-3.133c-1.086,6.427-4.391,28.018-3.319,47.294l.045.808Zm-1.907-60.069,9.471,3.715-5.778,54.674,54.825-2.4c-1.125-22.843,3.671-48.512,3.72-48.771l.354-1.87,3.675,5.272,29.583-10.866c-2.771-8.054-11.475-17.81-18.4-24.669a26.761,26.761,0,0,0-18.211-7.728,289.391,289.391,0,0,0-32.2.9,24.683,24.683,0,0,0-21,15.675Z" transform="translate(-2851.532 -555.877)"/>
        </g>
        <path id="Path_240" data-name="Path 240" d="M2968.082,624.266a.8.8,0,0,1-.722-.454l-5.443-11.342a.8.8,0,1,1,1.443-.692l5.443,11.342a.8.8,0,0,1-.721,1.146Z" transform="translate(-2877.303 -581.749)"/>
      </g>
      <g id="Group_127" data-name="Group 127" transform="translate(160.336 46.145)">
        <g id="Group_126" data-name="Group 126">
          <path id="Path_241" data-name="Path 241" d="M2894.388,513.256a1.618,1.618,0,0,1-.727-.167,1.734,1.734,0,0,1-.869-1.059,5.2,5.2,0,0,1,.652-3.755c1.122-2.148,2.836-3.263,4.075-2.65a1.733,1.733,0,0,1,.868,1.058,5.2,5.2,0,0,1-.651,3.755h0C2896.822,512.191,2895.512,513.256,2894.388,513.256Zm2.387-6.2c-.245,0-1.151.507-1.912,1.964-.772,1.478-.635,2.514-.487,2.641.189.05,1.145-.433,1.943-1.96.772-1.478.636-2.514.487-2.641A.107.107,0,0,0,2896.775,507.053Zm.253,3.015h0Z" transform="translate(-2891.848 -495.737)"/>
          <g id="Group_125" data-name="Group 125">
            <g id="Group_124" data-name="Group 124" transform="translate(0 5.785)">
              <path id="Path_242" data-name="Path 242" d="M2906.908,535.2a21.067,21.067,0,0,0,6.378-.989,20.779,20.779,0,0,0,5.076-2.393c-6.768-2.313-4.384-12.337-4.384-12.337,5.113-10.956,1.135-17.938-4.9-19.389-8.574-2.062-9.661,2.786-9.661,2.786-.649,1.3-2.165,4.336-2.751,4.685-.72.428-2.439.856-2.719,1.206s-.12,1.479.96,2.451c0,0-3.119,6.343-2.079,8.249s8.437,3.5,8.437,3.5,1.739,7.7-3.069,10.343a20.915,20.915,0,0,0,5.87,1.692A21.382,21.382,0,0,0,2906.908,535.2Z" transform="translate(-2891.826 -498.781)" fill="#fff"/>
              <path id="Path_243" data-name="Path 243" d="M2906.22,535.3a22.258,22.258,0,0,1-2.952-.2,21.689,21.689,0,0,1-6.094-1.757.8.8,0,0,1-.053-1.429c3.579-1.966,3.027-7.327,2.763-8.977-2-.463-7.406-1.871-8.449-3.784-1.051-1.928.977-6.675,1.819-8.473-1.01-1.163-1.137-2.466-.62-3.111a3.956,3.956,0,0,1,1.715-.888,9.1,9.1,0,0,0,1.219-.506,22.79,22.79,0,0,0,2.41-4.286,5.03,5.03,0,0,1,2.193-2.724c1.977-1.232,4.805-1.417,8.4-.552a9.848,9.848,0,0,1,6.688,5.382c1.9,3.932,1.465,9.271-1.209,15.043-.188.883-1.831,9.371,3.88,11.322a.8.8,0,0,1,.178,1.427,21.609,21.609,0,0,1-5.272,2.486A21.881,21.881,0,0,1,2906.22,535.3Zm-7.077-2.875a20.337,20.337,0,0,0,16.827-1.219c-4.426-2.67-4.262-9.232-3.458-12.611a.8.8,0,0,1,.054-.153c2.5-5.359,2.946-10.243,1.254-13.752a8.275,8.275,0,0,0-5.62-4.522c-7.6-1.828-8.655,2.027-8.7,2.192a.851.851,0,0,1-.063.173c-1.675,3.357-2.475,4.669-3.057,5.016a9.662,9.662,0,0,1-1.487.633c-.307.112-.741.271-.963.381a2.245,2.245,0,0,0,.816,1.361.8.8,0,0,1,.182.947c-1.411,2.872-2.614,6.562-2.094,7.513.533.978,4.518,2.372,7.9,3.1a.8.8,0,0,1,.611.606C2901.424,522.4,2902.869,529.053,2899.143,532.427Zm-5.32-23.8Z" transform="translate(-2891.138 -498.079)"/>
            </g>
            <path id="Path_244" data-name="Path 244" d="M2918.175,491.337c-2.154-.6-4.681-.484-5.717-.927-1.67-.715-1.459-2.64-3.87-3.034-2.119-.347-4.139-.127-5.357,1.374a4.284,4.284,0,0,0-.541.858c-2.082,4.355.05,6.719,1.015,7.51,0,0,6.238,3.589,7.283,4.558a5.351,5.351,0,0,1,1.117,5.717.817.817,0,0,0,.326.944l.016.01a.9.9,0,0,0,1.172-.155c.908-1.067,2.873-3.111,4.14-2.495,1.545.752,1.68,4.856-1.643,5.27a.881.881,0,0,0-.711,1.234,2.464,2.464,0,0,0,2.863,1.521s7.432-4.269,8.83-10.6S2921.041,492.142,2918.175,491.337Z" transform="translate(-2896.117 -487.233)"/>
          </g>
          <path id="Path_245" data-name="Path 245" d="M2903.2,516.523a2.22,2.22,0,0,1-.993-.227,2.345,2.345,0,0,1-1.18-1.43,4.859,4.859,0,0,1,.49-3.619c1.085-2.079,3.082-3.141,4.549-2.416a2.343,2.343,0,0,1,1.18,1.43,4.855,4.855,0,0,1-.49,3.618A4.428,4.428,0,0,1,2903.2,516.523Zm1.862-6.32a2.99,2.99,0,0,0-2.127,1.786,3.316,3.316,0,0,0-.387,2.382.785.785,0,0,0,.369.491c.568.282,1.727-.394,2.422-1.723a3.312,3.312,0,0,0,.386-2.382.778.778,0,0,0-.368-.491A.66.66,0,0,0,2905.063,510.2Z" transform="translate(-2895.676 -497.205)"/>
          <path id="Path_246" data-name="Path 246" d="M2901.945,513.249a.8.8,0,0,1-.723-.457c-.046-.092-.182-.267-.271-.267h-.036a.8.8,0,0,1-.032-1.6,1.974,1.974,0,0,1,1.789,1.188.8.8,0,0,1-.726,1.135Z" transform="translate(-2895.327 -498.288)"/>
          <path id="Path_247" data-name="Path 247" d="M2918.1,518.483a.8.8,0,0,1-.327-.07l-7.206-3.232a.8.8,0,0,1,.656-1.46l7.206,3.232a.8.8,0,0,1-.329,1.53Z" transform="translate(-2899.985 -499.559)"/>
        </g>
      </g>
      <g id="Group_129" data-name="Group 129" transform="translate(0)">
        <g id="Group_128" data-name="Group 128">
          <path id="Path_248" data-name="Path 248" d="M2635.548,402.374c-31.744,7.569-51.113,38.986-43.261,70.17s39.953,50.327,71.7,42.758,51.114-38.986,43.261-70.17S2667.293,394.8,2635.548,402.374Zm26.563,105.486c-27.561,6.572-55.43-10.048-62.248-37.123s10-54.35,37.559-60.921,55.43,10.048,62.247,37.123S2689.672,501.288,2662.111,507.86Z" transform="translate(-2590.542 -400.721)"/>
          <path id="Path_249" data-name="Path 249" d="M2903.46,663.548l-2.559,3.141c-2.623,3.108-8.046-.167-15.465-6.249l-105.73-86.673,6.945-12.943,108.282,88.363C2902.354,655.269,2906.082,660.44,2903.46,663.548Z" transform="translate(-2678.807 -475.426)"/>
        </g>
      </g>
      <g id="Group_130" data-name="Group 130" transform="translate(106.78 102.063)">
        <path id="Path_250" data-name="Path 250" d="M2802.266,607.74c-4.772-.628-13.515-3.129-8.566-13.1a2.008,2.008,0,0,1,2.651-.88c3.019,1.428,7.732,6.351,8.674,11.159A2.435,2.435,0,0,1,2802.266,607.74Z" transform="translate(-2791.43 -592.767)" fill="#fff"/>
        <path id="Path_251" data-name="Path 251" d="M2801.894,607.861a3.277,3.277,0,0,1-.432-.028h0c-3.506-.461-8.073-1.742-9.929-5.226-1.281-2.4-1.028-5.438.75-9.02a2.81,2.81,0,0,1,3.711-1.248c3.071,1.452,8.085,6.465,9.117,11.729a3.107,3.107,0,0,1-.8,2.753A3.314,3.314,0,0,1,2801.894,607.861Zm-.224-1.615a1.691,1.691,0,0,0,1.47-.521,1.528,1.528,0,0,0,.4-1.349c-.9-4.573-5.4-9.25-8.232-10.59a1.216,1.216,0,0,0-1.593.513c-1.536,3.092-1.795,5.634-.771,7.556,1.617,3.034,6.16,4.054,8.724,4.391Z" transform="translate(-2790.731 -592.067)"/>
      </g>
      <g id="Group_132" data-name="Group 132" transform="translate(169.704 116.549)">
        <g id="Group_131" data-name="Group 131" transform="translate(0 2.238)">
          <path id="Path_252" data-name="Path 252" d="M2972.134,623.422l-22.948,8.241s3.878,34.884-20.9,46.882c0,0-13.431-1.617-18.082,6.147,0,0,9.4-.413,17.271,1.695S2982.228,675.339,2972.134,623.422Z" transform="translate(-2909.401 -623.422)" fill="#fff"/>
          <path id="Path_253" data-name="Path 253" d="M2929.046,687.876a9.867,9.867,0,0,1-2.48-.262c-7.655-2.05-16.936-1.672-17.029-1.668a.81.81,0,0,1-.722-.39.8.8,0,0,1,0-.821c4.568-7.625,16.7-6.747,18.624-6.556,23.767-11.7,20.283-44.375,20.245-44.7a.8.8,0,0,1,1.59-.183,62.9,62.9,0,0,1-1.168,18.568c-2.835,13.209-9.812,22.843-20.175,27.86a.8.8,0,0,1-.444.074c-.121-.014-11.43-1.286-16.4,4.519a64.227,64.227,0,0,1,15.895,1.756c4.022,1.078,19.383-1.922,30.876-12.641,8.509-7.936,17.617-22.719,12.687-48.08a.8.8,0,0,1,1.571-.305c5.071,26.08-4.361,41.343-13.166,49.554C2948.809,684.052,2935.555,687.876,2929.046,687.876Z" transform="translate(-2908.701 -623.876)"/>
        </g>
        <path id="Path_254" data-name="Path 254" d="M2978.353,632.17a.8.8,0,0,1-.276-1.551l30.885-11.344a.8.8,0,0,1,.552,1.5l-30.885,11.344A.792.792,0,0,1,2978.353,632.17Z" transform="translate(-2940.828 -619.225)"/>
      </g>
    </g>
  </g>
</svg>
