<svg xmlns="http://www.w3.org/2000/svg" width="457.641" height="461.251" viewBox="0 0 457.641 461.251">
  <g id="Modern_workplace" data-name="Modern workplace" transform="translate(-241.722 -201.821)">
    <g id="Group_148" data-name="Group 148" transform="translate(438.37 300.117)">
      <g id="Group_134" data-name="Group 134" transform="translate(112.819 32.788)">
        <path id="Path_255" data-name="Path 255" d="M871.88,462.515V476.2c0,19.609-15.424,35.505-34.45,35.505h0c-19.026,0-34.45,15.9-34.45,35.505h0a3.156,3.156,0,0,0,3.149,3.164h91.19c28.522,0,51.644-23.831,51.644-53.227V460.731c0-11.692-9.2-21.17-20.54-21.17H894.152C881.851,439.561,871.88,449.838,871.88,462.515Z" transform="translate(-802.981 -439.561)" fill="#5479f7"/>
        <rect id="Rectangle_13" data-name="Rectangle 13" width="9.598" height="104.041" transform="translate(59.166 107.747)" fill="#5479f7"/>
        <path id="Path_256" data-name="Path 256" d="M837.407,817.825l42.475-3.744h3.895l43.363,3.744v2.97H837.407Z" transform="translate(-818.425 -607.579)" fill="#5479f7"/>
      </g>
      <g id="Group_138" data-name="Group 138" transform="translate(8.792 41.825)">
        <g id="Group_137" data-name="Group 137">
          <g id="Group_135" data-name="Group 135" transform="translate(16.226 52.717)">
            <path id="Rectangle_14" data-name="Rectangle 14" d="M5.406,0H94.883a5.406,5.406,0,0,1,5.406,5.406v0a0,0,0,0,1,0,0H0a0,0,0,0,1,0,0v0A5.406,5.406,0,0,1,5.406,0Z" transform="translate(101.115 6.232) rotate(180)" fill="#99b9ff"/>
            <path id="Path_257" data-name="Path 257" d="M740.9,558.619H648.524a4.787,4.787,0,0,1-4.782-4.782v-1.45a.827.827,0,0,1,.827-.827H744.857a.827.827,0,0,1,.827.827v1.45A4.787,4.787,0,0,1,740.9,558.619ZM645.4,553.214v.623a3.132,3.132,0,0,0,3.128,3.128H740.9a3.132,3.132,0,0,0,3.128-3.128v-.623Z" transform="translate(-643.742 -551.56)"/>
          </g>
          <g id="Group_136" data-name="Group 136">
            <path id="Path_258" data-name="Path 258" d="M632.037,510.264h57.385l-16.978-50.107a5.992,5.992,0,0,0-5.035-2.708H618.9a3.021,3.021,0,0,0-2.9,4.037C616.286,462.239,632.037,510.264,632.037,510.264Z" transform="translate(-614.986 -456.623)" fill="#99b9ff"/>
            <path id="Path_259" data-name="Path 259" d="M688.751,510.418H631.366a.826.826,0,0,1-.786-.569c-5.424-16.538-15.755-48.009-16.026-48.744a3.769,3.769,0,0,1,.439-3.475,3.87,3.87,0,0,1,3.235-1.68h48.51a6.783,6.783,0,0,1,5.729,3.086.822.822,0,0,1,.089.184l16.977,50.107a.827.827,0,0,1-.783,1.092Zm-56.786-1.654H687.6l-16.573-48.913a5.139,5.139,0,0,0-4.286-2.247h-48.51a2.238,2.238,0,0,0-1.874.965,2.117,2.117,0,0,0-.253,1.951C616.377,461.245,630.1,503.092,631.964,508.764Z" transform="translate(-614.314 -455.95)"/>
          </g>
        </g>
      </g>
      <g id="Group_140" data-name="Group 140" transform="translate(0 99.938)">
        <path id="Path_260" data-name="Path 260" d="M924.25,718.676l34.256-120.362,34.256,120.362h8.211L963.335,582.863l-9.655-.014L916.039,718.676Z" transform="translate(-740.883 -570.993)" fill="#fff"/>
        <path id="Path_261" data-name="Path 261" d="M610.8,718.676l34.256-120.362,34.256,120.362h8.211L649.886,582.863l-9.655-.014L602.59,718.676Z" transform="translate(-600.263 -570.993)" fill="#fff"/>
        <g id="Group_139" data-name="Group 139">
          <rect id="Rectangle_15" data-name="Rectangle 15" width="259.34" height="13.078" transform="translate(0.827 0.827)" fill="#fff"/>
          <path id="Path_262" data-name="Path 262" d="M859.363,576.079H598.369V561.347H859.363Zm-259.34-1.654H857.709V563H600.023Z" transform="translate(-598.369 -561.347)"/>
        </g>
        <path id="Path_263" data-name="Path 263" d="M930.733,575.222a.827.827,0,0,1-.827-.827v-7.282a.827.827,0,0,1,1.654,0V574.4A.827.827,0,0,1,930.733,575.222Z" transform="translate(-747.104 -563.563)" fill="#5479f7"/>
      </g>
      <g id="Group_147" data-name="Group 147" transform="translate(159.015)">
        <g id="Group_142" data-name="Group 142" transform="translate(14.973)">
          <g id="Group_141" data-name="Group 141">
            <path id="Path_264" data-name="Path 264" d="M925.678,457.071s14.995-32.867,6.393-75.475c0,0-23.24,19.474-14.861,75.475Z" transform="translate(-914.579 -380.768)" fill="#caddff"/>
            <path id="Path_265" data-name="Path 265" d="M925.02,457.225h-8.468a.827.827,0,0,1-.818-.7c-4.355-29.112-.044-48.245,4.339-59.168,4.785-11.924,10.565-16.859,10.809-17.063a.827.827,0,0,1,1.342.47c8.555,42.381-6.3,75.651-6.452,75.982A.827.827,0,0,1,925.02,457.225Zm-7.754-1.654h7.21c1.751-4.166,13.7-34.62,6.42-72.985-1.87,1.978-5.9,6.9-9.339,15.511C917.315,408.729,913.151,427.306,917.266,455.57Z" transform="translate(-913.921 -380.095)"/>
          </g>
          <path id="Path_266" data-name="Path 266" d="M926.647,458.368a.827.827,0,0,1-.825-.782c-1.157-21.181,8.352-66.2,8.448-66.648a.827.827,0,1,1,1.618.344c-.1.45-9.56,45.252-8.415,66.214a.827.827,0,0,1-.781.871Z" transform="translate(-919.216 -384.665)" fill="#fff"/>
        </g>
        <g id="Group_144" data-name="Group 144" transform="translate(5.691 22.039)">
          <g id="Group_143" data-name="Group 143" transform="translate(0 0)">
            <path id="Path_267" data-name="Path 267" d="M903.024,421.567s19.32,34.9,7.7,50.009h-6.216S892.083,444.291,903.024,421.567Z" transform="translate(-897.729 -420.74)" fill="#fff"/>
            <path id="Path_268" data-name="Path 268" d="M910.08,471.73h-6.216a.827.827,0,0,1-.753-.485c-.126-.276-12.457-27.9-1.475-50.71a.827.827,0,0,1,1.469-.041c.8,1.444,19.447,35.556,7.631,50.914A.827.827,0,0,1,910.08,471.73Zm-5.672-1.654h5.257c9.366-12.917-3.806-40.61-7.231-47.3C893.731,442.933,902.879,466.426,904.408,470.076Z" transform="translate(-897.086 -420.067)"/>
          </g>
          <path id="Path_269" data-name="Path 269" d="M910.814,472.654h-.033a.827.827,0,0,1-.795-.859c.555-14.292-4.734-50.418-4.787-50.781a.827.827,0,0,1,1.636-.241c.054.365,5.364,36.642,4.8,51.086A.827.827,0,0,1,910.814,472.654Z" transform="translate(-900.722 -420.066)"/>
        </g>
        <g id="Group_146" data-name="Group 146" transform="translate(24.628 35.052)">
          <g id="Group_145" data-name="Group 145">
            <path id="Path_270" data-name="Path 270" d="M955.347,445.166s-16.458,5.615-22.416,38.858H939.4S952.913,465.767,955.347,445.166Z" transform="translate(-932.104 -444.339)" fill="#fff"/>
            <path id="Path_271" data-name="Path 271" d="M938.731,484.178h-6.473a.827.827,0,0,1-.814-.973c5.976-33.34,22.273-39.259,22.964-39.495a.827.827,0,0,1,1.088.879c-2.432,20.581-15.964,39.068-16.1,39.253A.827.827,0,0,1,938.731,484.178Zm-5.48-1.654h5.056c1.768-2.5,12.733-18.6,15.35-36.632C949.777,448.02,938.175,456.422,933.251,482.524Z" transform="translate(-931.431 -443.666)"/>
          </g>
          <path id="Path_272" data-name="Path 272" d="M938.675,489.651a.87.87,0,0,1-.136-.011.827.827,0,0,1-.682-.951c2.5-15.092,13.268-30.24,13.376-30.391a.827.827,0,0,1,1.344.964c-.106.148-10.655,14.992-13.089,29.7A.827.827,0,0,1,938.675,489.651Z" transform="translate(-934.309 -450.075)"/>
        </g>
        <path id="Path_273" data-name="Path 273" d="M928.287,510.855h-40.6l-.911,19.205a8.257,8.257,0,0,0,8.248,8.648h23.189a10.092,10.092,0,0,0,10.093-10.1Z" transform="translate(-886.765 -438.757)" fill="#99b9ff"/>
      </g>
    </g>
    <g id="Group_159" data-name="Group 159" transform="translate(244.191 235.145)">
      <g id="Group_149" data-name="Group 149">
        <rect id="Rectangle_16" data-name="Rectangle 16" width="7.478" height="55.335" transform="matrix(0.996, 0.088, -0.088, 0.996, 31.936, 160.879)" fill="#99b9ff"/>
        <rect id="Rectangle_17" data-name="Rectangle 17" width="7.478" height="55.335" transform="translate(89.148 161.013) rotate(-3.13)" fill="#99b9ff"/>
        <rect id="Rectangle_18" data-name="Rectangle 18" width="7.478" height="55.335" transform="matrix(0.972, -0.234, 0.234, 0.972, 145.267, 163.243)" fill="#99b9ff"/>
        <path id="Path_274" data-name="Path 274" d="M258.929,442.75a1.966,1.966,0,0,1-1.874-1.839L246.2,268.2c-.074-1.167,5.146-4.705,6.315-4.653L382.8,264.875c1,.045-.948,5.257-.884,6.259l17.5,169.892C399.492,442.193,258.929,442.75,258.929,442.75Z" transform="translate(-246.2 -262.836)" fill="#99b9ff"/>
        <path id="Path_275" data-name="Path 275" d="M407.818,442.489H278.1a3.2,3.2,0,0,1-3.182-2.855L256.176,267.306a3.2,3.2,0,0,1,3.183-3.547H389.072a3.2,3.2,0,0,1,3.183,2.855L411,438.942A3.2,3.2,0,0,1,407.818,442.489Z" transform="translate(-250.667 -262.932)" fill="#caddff"/>
        <path id="Path_276" data-name="Path 276" d="M407.146,442.644H366.333a.827.827,0,0,1,0-1.654h40.813a2.375,2.375,0,0,0,2.36-2.631L390.76,266.03a2.371,2.371,0,0,0-2.36-2.117H258.687a2.374,2.374,0,0,0-2.36,2.631l17,156.32a.827.827,0,0,1-1.645.179l-17-156.319a4.027,4.027,0,0,1,4-4.464H388.4a4.022,4.022,0,0,1,4,3.593L411.15,438.18a4.028,4.028,0,0,1-4,4.464Z" transform="translate(-249.994 -262.259)"/>
      </g>
      <g id="Group_156" data-name="Group 156" transform="translate(19.739 6.481)">
        <g id="Group_154" data-name="Group 154" transform="translate(17.496 20.309)">
          <g id="Group_152" data-name="Group 152">
            <g id="Group_150" data-name="Group 150" transform="translate(26.423 69.305)">
              <path id="Path_277" data-name="Path 277" d="M385.132,446.608a1.323,1.323,0,0,1-.236-1.465,3.287,3.287,0,0,0,.33-2.014c-.518-3.212-5.87-5.465-11.955-5.034s-10.6,3.385-10.08,6.6a3.824,3.824,0,0,0,.965,1.922,1.325,1.325,0,0,1,.236,1.465,3.286,3.286,0,0,0-.33,2.014c.245,1.524,1.58,2.831,3.564,3.739a2.3,2.3,0,0,0,.022.532c.383,2.376,4.344,4.044,8.846,3.725s7.843-2.505,7.46-4.882a2.445,2.445,0,0,0-.148-.523c1.65-1.166,2.537-2.631,2.292-4.155A3.824,3.824,0,0,0,385.132,446.608Z" transform="translate(-362.324 -437.215)" fill="#99b9ff"/>
              <path id="Path_278" data-name="Path 278" d="M374.709,458.283c-4.477,0-8.131-1.852-8.551-4.46-.008-.046-.014-.093-.019-.139-2.044-1.05-3.3-2.5-3.566-4.132a4.09,4.09,0,0,1,.406-2.513.5.5,0,0,0-.114-.549,4.63,4.63,0,0,1-1.162-2.339,4.394,4.394,0,0,1,1.017-3.47c1.754-2.214,5.518-3.779,9.821-4.084,6.6-.468,12.237,2.047,12.83,5.727a4.094,4.094,0,0,1-.406,2.513.5.5,0,0,0,.114.549h0a4.635,4.635,0,0,1,1.162,2.339,4.928,4.928,0,0,1-2.156,4.6c0,.024.009.049.013.074a3.461,3.461,0,0,1-.8,2.735c-1.335,1.684-4.178,2.873-7.421,3.1Q375.287,458.283,374.709,458.283Zm-.641-20.086q-.7,0-1.412.05c-3.8.27-7.188,1.628-8.641,3.462a2.754,2.754,0,0,0-.681,2.179,3.008,3.008,0,0,0,.768,1.506,2.146,2.146,0,0,1,.357,2.381,2.47,2.47,0,0,0-.254,1.514c.191,1.187,1.289,2.294,3.091,3.119l.52.238-.039.571a1.5,1.5,0,0,0,.014.344c.271,1.682,3.609,3.342,7.972,3.031,2.752-.2,5.2-1.169,6.241-2.481a1.831,1.831,0,0,0,.46-1.445,1.621,1.621,0,0,0-.1-.347l-.243-.606.533-.377c.835-.591,2.2-1.81,1.952-3.347a3.008,3.008,0,0,0-.768-1.506,2.147,2.147,0,0,1-.358-2.381,2.466,2.466,0,0,0,.255-1.514C383.332,440.074,379.052,438.2,374.068,438.2Z" transform="translate(-361.651 -436.541)"/>
            </g>
            <g id="Group_151" data-name="Group 151">
              <path id="Path_279" data-name="Path 279" d="M375.432,340.813c-2.655-16.469-18.51-29.555-34.838-28.4-16.3,1.157-27.537,15.78-25,32.226,1.294,8.374,6.552,15.877,12.888,20.938a35.321,35.321,0,0,1,10.493,13.641l.11.256a13.275,13.275,0,0,0,12.863,8.1l2.2-.157a10.621,10.621,0,0,0,9.99-9.723l.015-.161a27.732,27.732,0,0,1,5.79-14.748A27.808,27.808,0,0,0,375.432,340.813Z" transform="translate(-314.407 -311.519)" fill="#fff"/>
              <path id="Path_280" data-name="Path 280" d="M350.439,387.763a14.181,14.181,0,0,1-12.788-8.633l-.11-.256a34.54,34.54,0,0,0-10.248-13.319c-7.159-5.718-11.967-13.539-13.19-21.457a29.01,29.01,0,0,1,5.855-22.807,27.638,27.638,0,0,1,19.9-10.37c16.623-1.18,32.981,12.141,35.713,29.089h0a28.512,28.512,0,0,1-5.649,22.625,26.9,26.9,0,0,0-5.614,14.31l-.014.16a11.438,11.438,0,0,1-10.756,10.471l-2.2.157Q350.885,387.763,350.439,387.763ZM341.93,312.5c-.652,0-1.3.023-1.955.069a26,26,0,0,0-18.723,9.752,27.373,27.373,0,0,0-5.514,21.523c1.161,7.514,5.749,14.956,12.587,20.418a36.194,36.194,0,0,1,10.738,13.962l.109.256a12.441,12.441,0,0,0,12.044,7.6l2.2-.156a9.809,9.809,0,0,0,9.226-8.976l.015-.16a28.545,28.545,0,0,1,5.967-15.187,26.875,26.875,0,0,0,5.31-21.33h0C371.444,324.8,357.044,312.5,341.93,312.5Z" transform="translate(-313.729 -310.847)"/>
            </g>
          </g>
          <g id="Group_153" data-name="Group 153" transform="translate(5.285 8.812)">
            <path id="Path_281" data-name="Path 281" d="M367.145,401.7a.827.827,0,0,1-.816-.7c-2.532-16.115,3.857-34.949,5.164-38.561a7.7,7.7,0,0,0,.455-5.094,5.078,5.078,0,0,0-3.674-3.667,6.15,6.15,0,0,0-4.23.6c2.381,2.051,4.274,5.406,3.887,8.632a3.13,3.13,0,0,1-2.171,2.647A4.5,4.5,0,0,1,361.2,364.3c-1.017-1.066-2.451-3.559-.629-8.287a6.551,6.551,0,0,1,.84-1.547l-.014-.007a5.959,5.959,0,0,0-5.327-.163,4.713,4.713,0,0,0-.98.684c2.435,1.581,4.158,5.594,4.068,7.961a4.232,4.232,0,0,1-2.209,3.849,3.815,3.815,0,0,1-3.9-.416c-1.65-1.2-2.383-3.431-2.012-6.13a12.836,12.836,0,0,1,1.368-4.458,5.682,5.682,0,0,0-3.785.544,3.247,3.247,0,0,0-1.589,1.988,6.31,6.31,0,0,0,1.6,5.515c3.369,3.746,11.614,14.794,15.419,36.436a.827.827,0,1,1-1.629.287c-3.731-21.22-11.746-31.977-15.019-35.616a7.876,7.876,0,0,1-1.977-7,4.9,4.9,0,0,1,2.368-3.04,7.614,7.614,0,0,1,5.648-.592,6.521,6.521,0,0,1,1.874-1.479,7.637,7.637,0,0,1,6.846.158c.155.08.31.166.465.258a7.508,7.508,0,0,1,6.044-1.173,6.785,6.785,0,0,1,4.857,4.751,9.342,9.342,0,0,1-.469,6.18c-1.283,3.545-7.554,22.026-5.085,37.742a.827.827,0,0,1-.689.945A.877.877,0,0,1,367.145,401.7Zm-13.111-45.434a10.844,10.844,0,0,0-1.362,4.2c-.285,2.075.2,3.739,1.344,4.565a2.165,2.165,0,0,0,2.209.267,2.613,2.613,0,0,0,1.279-2.424C357.578,360.946,355.978,357.343,354.035,356.264Zm8.754-.876a4.861,4.861,0,0,0-.673,1.218c-1.494,3.877-.465,5.767.282,6.549a2.814,2.814,0,0,0,2.841.831,1.461,1.461,0,0,0,1.051-1.275C366.6,360.091,364.87,357.113,362.788,355.388Z" transform="translate(-333.148 -338.065)"/>
            <path id="Path_282" data-name="Path 282" d="M399.811,387.088a.827.827,0,0,1-.511-1.478,21.13,21.13,0,0,0,7.911-15.458.827.827,0,1,1,1.651.095,22.783,22.783,0,0,1-8.54,16.665A.826.826,0,0,1,399.811,387.088Z" transform="translate(-357.261 -345.915)"/>
            <path id="Path_283" data-name="Path 283" d="M333.128,366.831a.825.825,0,0,1-.552-.212,27.828,27.828,0,0,1-8.927-16.157c-1.549-9.611,2.372-18.619,10.232-23.509a.827.827,0,1,1,.874,1.4c-7.284,4.532-10.914,12.9-9.473,21.841a26.167,26.167,0,0,0,8.4,15.19.827.827,0,0,1-.554,1.442Z" transform="translate(-323.314 -326.829)"/>
            <path id="Path_284" data-name="Path 284" d="M386.856,453.524a.827.827,0,0,1-.2-1.629,26.068,26.068,0,0,0,2.757-.851.827.827,0,0,1,.578,1.55,27.662,27.662,0,0,1-2.933.906A.819.819,0,0,1,386.856,453.524Z" transform="translate(-351.45 -382.531)" fill="#fff"/>
            <path id="Path_285" data-name="Path 285" d="M380.1,463.233a.827.827,0,0,1-.065-1.652,19.662,19.662,0,0,0,8.156-2.306.827.827,0,1,1,.838,1.426,21.315,21.315,0,0,1-8.862,2.529Z" transform="translate(-348.42 -386.196)" fill="#fff"/>
          </g>
        </g>
        <g id="Group_155" data-name="Group 155">
          <path id="Path_286" data-name="Path 286" d="M357.241,288.859a.827.827,0,0,1-.818-.712l-1.852-13.191a.827.827,0,1,1,1.638-.23l1.852,13.191a.829.829,0,0,1-.82.942Z" transform="translate(-314.552 -274.014)"/>
          <path id="Path_287" data-name="Path 287" d="M282.825,353.715a.827.827,0,0,1-.057-1.652l8.339-.586a.827.827,0,0,1,.116,1.65l-8.339.586Z" transform="translate(-281.998 -308.764)"/>
          <path id="Path_288" data-name="Path 288" d="M298.437,316.6a.822.822,0,0,1-.331-.069l-10.232-4.473a.827.827,0,0,1,.663-1.516l10.232,4.473a.827.827,0,0,1-.331,1.585Z" transform="translate(-284.412 -290.372)"/>
          <path id="Path_289" data-name="Path 289" d="M434.7,342.937a.827.827,0,0,1-.058-1.652l8.337-.6a.827.827,0,0,1,.119,1.65l-8.337.6Z" transform="translate(-350.131 -303.924)"/>
          <path id="Path_290" data-name="Path 290" d="M415.6,307.793a.827.827,0,0,1-.464-1.512l8.574-5.808a.827.827,0,0,1,.928,1.369l-8.575,5.808A.825.825,0,0,1,415.6,307.793Z" transform="translate(-341.564 -285.82)"/>
        </g>
      </g>
      <g id="Group_157" data-name="Group 157" transform="translate(34.402 133.341)">
        <path id="Path_291" data-name="Path 291" d="M418.243,511.216H309.177l-.584-7.125H417.659Z" transform="translate(-308.593 -504.091)" fill="#99b9ff"/>
        <path id="Path_292" data-name="Path 292" d="M421.192,535.073H312.126l-.584-7.125H420.608Z" transform="translate(-309.916 -514.794)" fill="#99b9ff"/>
        <path id="Path_293" data-name="Path 293" d="M424.141,558.928H315.075l-.584-7.125H423.557Z" transform="translate(-311.239 -525.496)" fill="#99b9ff"/>
      </g>
      <g id="Group_158" data-name="Group 158" transform="translate(98.252 98.726)">
        <path id="Path_294" data-name="Path 294" d="M468.494,467.088H428.253l-.848-6.382h40.241Z" transform="translate(-425.745 -450.013)" fill="#99b9ff"/>
        <path id="Path_295" data-name="Path 295" d="M465.481,447.694H425.24l-.848-6.382h40.241Z" transform="translate(-424.393 -441.313)" fill="#99b9ff"/>
      </g>
    </g>
    <g id="Group_163" data-name="Group 163" transform="translate(284.359 201.82)">
      <g id="Group_160" data-name="Group 160" transform="translate(279.276 6.92)">
        <path id="Path_296" data-name="Path 296" d="M960.013,307.5a.827.827,0,0,1-.739-.455c-19.1-37.835-52.68-69.27-94.566-88.514a.827.827,0,1,1,.691-1.5,211.222,211.222,0,0,1,55.936,37.184A185.077,185.077,0,0,1,960.751,306.3a.828.828,0,0,1-.738,1.2Z" transform="translate(-842.904 -215.529)"/>
        <path id="Path_297" data-name="Path 297" d="M951.539,315.031a.828.828,0,0,1-.727-.432c-17.786-32.671-46.424-59.083-82.818-76.38a.827.827,0,1,1,.71-1.494c36.712,17.448,65.606,44.1,83.561,77.083a.827.827,0,0,1-.726,1.223Z" transform="translate(-844.382 -224.363)"/>
        <path id="Path_298" data-name="Path 298" d="M848.531,232.927a4.181,4.181,0,0,1-2.535-.854h0a4.2,4.2,0,1,1,2.535.854ZM847,230.756a2.546,2.546,0,1,0-.488-3.567,2.549,2.549,0,0,0,.488,3.567Z" transform="translate(-833.981 -218.927)"/>
        <path id="Path_299" data-name="Path 299" d="M831.256,223.3a.827.827,0,0,1-.623-.283l-4.874-5.577a.827.827,0,0,1,.387-1.337c.034-.01,3.422-1.013,6.852-1.717a.827.827,0,0,1,.966,1.02l-1.909,7.277a.827.827,0,0,1-.8.618Zm-3.392-5.965,2.987,3.419,1.171-4.465C830.392,216.658,828.874,217.059,827.865,217.337Z" transform="translate(-825.555 -214.37)"/>
      </g>
      <g id="Group_161" data-name="Group 161" transform="translate(0 413.066)">
        <path id="Path_300" data-name="Path 300" d="M319.211,966.5a.836.836,0,0,1,1.148-1.183c2.7,1.858,5.466,3.678,8.225,5.41a.836.836,0,0,1-.889,1.417c-2.779-1.745-5.567-3.578-8.284-5.449A.838.838,0,0,1,319.211,966.5Z" transform="translate(-319.049 -957.343)"/>
        <path id="Path_301" data-name="Path 301" d="M334.2,976.352a.827.827,0,0,1,1.107-1.189c36.323,22.8,76.493,34.234,116.167,33.053a.827.827,0,1,1,.05,1.654c-40,1.191-80.5-10.326-117.1-33.306A.825.825,0,0,1,334.2,976.352Z" transform="translate(-325.773 -961.768)"/>
        <path id="Path_302" data-name="Path 302" d="M348.192,965.633a.827.827,0,0,1,1.113-1.186,192.483,192.483,0,0,0,90.17,29.492.827.827,0,1,1-.116,1.65,194.135,194.135,0,0,1-90.947-29.749A.827.827,0,0,1,348.192,965.633Z" transform="translate(-332.052 -956.959)"/>
        <path id="Path_303" data-name="Path 303" d="M333.442,957.257a3.943,3.943,0,1,1,1.965,1.419A3.944,3.944,0,0,1,333.442,957.257Zm5.025-3.695a2.292,2.292,0,1,0,.335,2.063A2.283,2.283,0,0,0,338.468,953.562Z" transform="translate(-325.162 -950.973)"/>
        <path id="Path_304" data-name="Path 304" d="M523.839,1020.457a.823.823,0,0,1-.133-.28l-1.875-7.166a.827.827,0,0,1,1.076-.989l7.092,2.51a.827.827,0,0,1,.3,1.372c-2.509,2.442-5.243,4.681-5.271,4.7a.827.827,0,0,1-1.19-.152Zm-.013-6.354,1.149,4.392c.8-.679,1.981-1.71,3.2-2.852Z" transform="translate(-410.009 -978.34)"/>
      </g>
      <g id="Group_162" data-name="Group 162" transform="translate(102.572 1.816)">
        <path id="Path_305" data-name="Path 305" d="M518.211,211.012a.828.828,0,0,1-.825-.778l-.251-4.244a.827.827,0,0,1,1.651-.1l.251,4.245a.827.827,0,0,1-.776.874Z" transform="translate(-510.486 -205.114)"/>
        <path id="Path_306" data-name="Path 306" d="M519.273,228.944a.828.828,0,0,1-.825-.778l-.251-4.245a.827.827,0,0,1,1.651-.1l.251,4.244a.827.827,0,0,1-.776.875Z" transform="translate(-510.963 -213.159)"/>
        <path id="Path_307" data-name="Path 307" d="M505.9,220.137a.827.827,0,0,1-.049-1.653l4.245-.251a.827.827,0,0,1,.1,1.651l-4.245.251Z" transform="translate(-505.078 -210.999)"/>
        <path id="Path_308" data-name="Path 308" d="M523.837,219.075a.827.827,0,0,1-.049-1.653l4.245-.251a.827.827,0,0,1,.1,1.651l-4.244.251Z" transform="translate(-513.123 -210.522)"/>
      </g>
      <path id="Path_309" data-name="Path 309" d="M558.862,211.13a4.53,4.53,0,0,1-1.388-.219,4.577,4.577,0,0,1-2.7-2.322,4.691,4.691,0,0,1,1.976-6.253h0a4.48,4.48,0,0,1,3.473-.3,4.576,4.576,0,0,1,2.7,2.321,4.691,4.691,0,0,1-1.976,6.253A4.489,4.489,0,0,1,558.862,211.13Zm-1.346-7.328a3.03,3.03,0,0,0-1.264,4.043,2.938,2.938,0,0,0,1.729,1.491,2.84,2.84,0,0,0,2.2-.188,3.03,3.03,0,0,0,1.264-4.042,2.936,2.936,0,0,0-1.729-1.491,2.84,2.84,0,0,0-2.2.187Z" transform="translate(-424.576 -201.82)"/>
    </g>
    <g id="Group_185" data-name="Group 185" transform="translate(241.722 378.38)">
      <g id="Group_164" data-name="Group 164" transform="translate(0 15.27)">
        <path id="Path_310" data-name="Path 310" d="M281.538,550.24c-26.431,5.669-39.237,54.5-39.8,86.118-.951,53.791,32.717,105.347,79.182,130.127,61.736,32.924,153.77,22.689,184.084-30.808,18.089-31.923,15.607-81.732-9.556-101.742-25.225-20.059-51.123,7.418-99.341-4.887C329.477,612.042,314.592,543.15,281.538,550.24Z" transform="translate(-241.722 -549.73)" fill="#5479f7"/>
        <path id="Path_311" data-name="Path 311" d="M337.417,828.072a.828.828,0,0,1-.764-1.144c6.3-15.208,26.589-18.05,27.449-18.163a.827.827,0,0,1,.217,1.64c-.2.026-20.21,2.838-26.138,17.157A.827.827,0,0,1,337.417,828.072Z" transform="translate(-284.282 -665.935)" fill="#fff"/>
        <path id="Path_312" data-name="Path 312" d="M388.615,839.872a.828.828,0,0,1-.822-.739,32.864,32.864,0,0,1,7.174-24.435.827.827,0,0,1,1.224,1.113,31.781,31.781,0,0,0-6.753,23.147.828.828,0,0,1-.735.91C388.674,839.871,388.644,839.872,388.615,839.872Z" transform="translate(-307.166 -668.479)" fill="#fff"/>
      </g>
      <g id="Group_184" data-name="Group 184" transform="translate(34.273)">
        <g id="Group_174" data-name="Group 174" transform="translate(64.595 100.169)">
          <g id="Group_168" data-name="Group 168" transform="translate(150.197 98.47)">
            <g id="Group_165" data-name="Group 165">
              <path id="Path_313" data-name="Path 313" d="M703.147,883.793c.183.5,20.009,20.6,20.009,20.6l-12.185,5.58-16.035-17.491Z" transform="translate(-694.108 -882.966)" fill="#fff"/>
              <path id="Path_314" data-name="Path 314" d="M710.3,910.122a.826.826,0,0,1-.61-.268l-16.035-17.491a.827.827,0,0,1,.009-1.127l8.212-8.684a.827.827,0,0,1,1.311.143c.76.978,12.276,12.725,19.888,20.439a.827.827,0,0,1-.244,1.333l-12.185,5.58A.833.833,0,0,1,710.3,910.122Zm-14.905-18.309,15.108,16.48,10.564-4.837c-12.878-13.058-17.158-17.524-18.605-19.115Zm7.858-8.977h0Zm0,0h0Z" transform="translate(-693.436 -882.293)"/>
            </g>
            <g id="Group_167" data-name="Group 167" transform="translate(4.707 13.594)">
              <g id="Group_166" data-name="Group 166">
                <path id="Path_315" data-name="Path 315" d="M714.121,912.439a6.333,6.333,0,0,1,2.574-3.181,6.061,6.061,0,0,1,6.736.438c4.907,3.654,18.248,14.017,26.031,24.212,2.75,3.6,1.526,8.447-4.549,8.449-9.956,0-25.882-3.824-39.313-15.053a5.871,5.871,0,0,1-2.077-5.263,28.264,28.264,0,0,1,1.283-5.6,4.014,4.014,0,0,1,4.506-2.585l1.74.314A2.764,2.764,0,0,0,714.121,912.439Z" transform="translate(-702.646 -907.615)" fill="#fff"/>
                <path id="Path_316" data-name="Path 316" d="M744.229,942.516c-10.443,0-26.388-4-39.833-15.246a6.667,6.667,0,0,1-2.367-6.006,28.683,28.683,0,0,1,1.323-5.772,4.816,4.816,0,0,1,5.434-3.124l1.739.314a1.942,1.942,0,0,0,2.151-1.211l.771.3-.771-.3a7.164,7.164,0,0,1,2.915-3.587,6.92,6.92,0,0,1,7.661.48c5.287,3.937,18.422,14.192,26.194,24.373a6.368,6.368,0,0,1,1.033,6.628c-.581,1.176-2.165,3.148-6.239,3.149ZM707.9,913.944a3.156,3.156,0,0,0-2.992,2.1,27.018,27.018,0,0,0-1.242,5.437,5.019,5.019,0,0,0,1.787,4.52c13.105,10.957,28.619,14.861,38.772,14.861h.01c2.358,0,4.047-.792,4.757-2.228a4.746,4.746,0,0,0-.865-4.891c-7.645-10.015-20.636-20.156-25.867-24.051a5.255,5.255,0,0,0-5.812-.395,5.46,5.46,0,0,0-2.234,2.775,3.6,3.6,0,0,1-3.987,2.239l-1.74-.314A3.276,3.276,0,0,0,707.9,913.944Z" transform="translate(-701.972 -906.948)"/>
              </g>
              <path id="Path_317" data-name="Path 317" d="M744.919,950.524c-5.987,0-16.654-2.35-33.361-13.638a.827.827,0,0,1,.926-1.371c27.155,18.349,37.629,12.463,37.731,12.4a.827.827,0,0,1,.851,1.418C750.883,949.446,748.974,950.524,744.919,950.524Z" transform="translate(-706.109 -919.7)"/>
              <path id="Path_318" data-name="Path 318" d="M753.074,937.611a.827.827,0,0,1-.636-1.355l4.744-5.713a.827.827,0,0,1,1.273,1.056l-4.744,5.713A.826.826,0,0,1,753.074,937.611Z" transform="translate(-724.527 -917.399)"/>
              <path id="Path_319" data-name="Path 319" d="M744.625,931.252a.827.827,0,0,1-.618-1.377l5.246-5.9a.827.827,0,0,1,1.236,1.1l-5.246,5.9A.825.825,0,0,1,744.625,931.252Z" transform="translate(-720.736 -914.464)"/>
            </g>
          </g>
          <g id="Group_172" data-name="Group 172" transform="translate(92.644 106.26)">
            <g id="Group_169" data-name="Group 169" transform="translate(13.24)">
              <path id="Path_320" data-name="Path 320" d="M628.754,903.536l-4.366,25.5-9.82-6.666,3.043-24.444Z" transform="translate(-613.741 -897.095)" fill="#fff"/>
              <path id="Path_321" data-name="Path 321" d="M623.715,929.185a.829.829,0,0,1-.464-.142l-9.82-6.666a.826.826,0,0,1-.356-.786l3.043-24.444a.827.827,0,0,1,1.193-.637l11.143,5.614a.826.826,0,0,1,.443.878l-4.366,25.5a.826.826,0,0,1-.816.687Zm-8.936-7.892,8.338,5.66,4.046-23.627-9.548-4.811Z" transform="translate(-613.068 -896.422)"/>
            </g>
            <g id="Group_171" data-name="Group 171" transform="translate(0 14.837)">
              <g id="Group_170" data-name="Group 170">
                <path id="Path_322" data-name="Path 322" d="M616.619,936.361c-.15,7.868-.678,23.7-6,35.2-1.426,3.084-7.646,3.2-10.122-.767-5.163-8.266-11.955-22.42-9.372-40.095a4.39,4.39,0,0,1,2.283-3.24,29.824,29.824,0,0,1,7.049-2.548,2.947,2.947,0,0,1,3.581,2.356l1.08,6.121.73-1.065a4.217,4.217,0,0,1,4.964-1.565l3.039,1.142A4.5,4.5,0,0,1,616.619,936.361Z" transform="translate(-589.731 -924.002)" fill="#fff"/>
                <path id="Path_323" data-name="Path 323" d="M605.555,973.979a7.6,7.6,0,0,1-6.432-3.422c-8.3-13.285-11.49-26.962-9.489-40.653a5.231,5.231,0,0,1,2.713-3.851,30.743,30.743,0,0,1,7.245-2.622,3.774,3.774,0,0,1,4.588,3.017l.739,4.192a5.035,5.035,0,0,1,5.511-1.331l3.039,1.142a5.328,5.328,0,0,1,3.3,5.253h0c-.121,6.391-.445,23.366-6.072,35.529a5.252,5.252,0,0,1-4.65,2.73Q605.8,973.979,605.555,973.979Zm-5.084-49a2.13,2.13,0,0,0-.494.058,29.1,29.1,0,0,0-6.854,2.473,3.574,3.574,0,0,0-1.853,2.63c-1.943,13.292,1.172,26.594,9.255,39.537a6,6,0,0,0,5.419,2.631,3.7,3.7,0,0,0,3.251-1.774c5.481-11.846,5.8-28.57,5.92-34.865A3.653,3.653,0,0,0,612.888,932l-3.039-1.142a3.384,3.384,0,0,0-3.991,1.258l-.729,1.065a.827.827,0,0,1-1.5-.324l-1.08-6.121a2.125,2.125,0,0,0-2.08-1.753Zm15.472,10.707h0Z" transform="translate(-589.055 -923.33)"/>
              </g>
              <path id="Path_324" data-name="Path 324" d="M608.2,975.012a.826.826,0,0,1-.673-.346c-11.9-16.626-10.448-37.234-10.432-37.44a.827.827,0,0,1,1.649.129c-.016.2-1.416,20.225,10.128,36.348a.827.827,0,0,1-.672,1.309Z" transform="translate(-592.632 -929.222)"/>
              <path id="Path_325" data-name="Path 325" d="M628.644,964.173a.829.829,0,0,1-.186-.021l-7.449-1.715a.827.827,0,1,1,.371-1.612l7.449,1.716a.827.827,0,0,1-.185,1.633Z" transform="translate(-603.102 -940.141)"/>
              <path id="Path_326" data-name="Path 326" d="M627.027,975.459a.818.818,0,0,1-.249-.039l-7.067-2.229a.827.827,0,0,1,.5-1.578l7.068,2.23a.827.827,0,0,1-.249,1.615Z" transform="translate(-602.548 -944.974)"/>
            </g>
          </g>
          <g id="Group_173" data-name="Group 173">
            <path id="Path_327" data-name="Path 327" d="M497.807,704.826s34.877-6.083,67.478,10.091A25.316,25.316,0,0,1,579.3,736.372c.889,18.188.772,51.53-8.8,80.988a3.087,3.087,0,0,1-4.031,1.93l-14.577-5.528a3.079,3.079,0,0,1-1.922-2.236c-1.409-6.608-6.325-31.764-3.78-50.345,2.954-21.566-67.043-40.446-67.043-40.446Z" transform="translate(-447.104 -703.705)"/>
            <path id="Path_328" data-name="Path 328" d="M584.346,811.534l-12.235,9.028a2.067,2.067,0,0,1-2.676-.189c-8.271-8.135-54.956-53.8-66.349-59.495-12.512-6.253-35.755-15.425-56.343-14.182s-25.711-12.826-25.711-12.826L449.37,713.3s51.132,2.991,73.557,19.291c20.249,14.717,55.3,66.265,61.91,76.134A2.063,2.063,0,0,1,584.346,811.534Z" transform="translate(-421.033 -708.009)"/>
            <path id="Path_329" data-name="Path 329" d="M603.536,768.864a.827.827,0,0,1-.645-.309c-9.216-11.459-23.422-26.707-31.241-32.39-8.464-6.152-22.01-11.114-40.261-14.747a.827.827,0,1,1,.323-1.623c18.487,3.68,32.252,8.738,40.911,15.032,7.93,5.764,22.272,21.148,31.557,32.69a.828.828,0,0,1-.644,1.346Z" transform="translate(-470.242 -710.917)" fill="#5479f7"/>
          </g>
        </g>
        <g id="Group_179" data-name="Group 179">
          <g id="Group_175" data-name="Group 175" transform="translate(81.591 60.207)">
            <path id="Path_330" data-name="Path 330" d="M462.378,632.729l3.2,8a56.824,56.824,0,0,0,18.281,24.056l3.306,2.522a12.037,12.037,0,0,0,7.377,2.468l.407,0a16.605,16.605,0,0,1,11.067,4.133h0l-9.3,2.271a22.2,22.2,0,0,1-16.688-2.473,47.318,47.318,0,0,1-15.186-14.431c-9.638-14.612-11.485-23.316-11.485-23.316Z" transform="translate(-452.53 -631.902)" fill="#fff"/>
            <path id="Path_331" data-name="Path 331" d="M490.645,676.986a22.684,22.684,0,0,1-11.716-3.245,47.738,47.738,0,0,1-15.45-14.685c-9.614-14.575-11.527-23.237-11.6-23.6a.827.827,0,0,1,.53-.951l9.02-3.229a.827.827,0,0,1,1.047.471l3.2,8a56.019,56.019,0,0,0,18.016,23.706l3.3,2.522a11.235,11.235,0,0,0,6.87,2.3l.407,0a17.351,17.351,0,0,1,11.618,4.338.827.827,0,0,1-.35,1.425l-9.3,2.271A23.583,23.583,0,0,1,490.645,676.986Zm-36.972-41.177c.654,2.327,3.286,10.359,11.186,22.336a46.108,46.108,0,0,0,14.921,14.178,21.225,21.225,0,0,0,16.066,2.379l7.659-1.869a15.689,15.689,0,0,0-9.222-2.9l-.407,0a12.955,12.955,0,0,1-7.884-2.638l-3.3-2.521a57.678,57.678,0,0,1-18.548-24.406l-2.907-7.262Z" transform="translate(-451.857 -631.229)"/>
          </g>
          <path id="Path_332" data-name="Path 332" d="M422.737,759s-12.162,7.976-18.32,4.99,5.53-13.048,8.775-13.238S422.737,759,422.737,759Z" transform="translate(-348.193 -624.642)"/>
          <path id="Path_333" data-name="Path 333" d="M389.743,526.687c5.239-.348,10.827,4.617,9.684,12.318-.933,6.291-7.67,7.73-10.965,10.888-10.66,10.216-2.03,22.753-10.532,33.1-8.1,9.852-18.752,1.908-34.548,12.757-12.436,8.541,31.345-2.653,15.667,6.174-12.509,7.043-34.866,4.776-46.487-10.647-11.05-14.666-12.334-35.585.718-44.7,11.733-8.193,18.81,2.853,31.238-4.732,12.253-7.478,9.625-15.768,17.155-18.719C371.969,519.085,374.893,527.673,389.743,526.687Z" transform="translate(-303.881 -522.035)"/>
          <g id="Group_178" data-name="Group 178" transform="translate(18.131 40.938)">
            <g id="Group_176" data-name="Group 176">
              <path id="Path_334" data-name="Path 334" d="M338.264,633.614a91.505,91.505,0,0,1,3.428-11.291c3.684-9.062,6.177-14.951,16.922-19.726a31.536,31.536,0,0,1,4.989-1.705l6.4-1.64s26.345-5.532,35.969,5.187a16.459,16.459,0,0,1,2.377,2.974l6.009,10.641-.063.021a10.758,10.758,0,0,0-6.381,14.844c3.219,6.725,7.753,14.635,12.578,18.134,1.524,1.105,14,7.308,14,7.308s2.466,9.843-17.9,16.669S381.6,683.812,376.717,693.7c-2.889,5.852-10.818-23.761-15.317-51.3a10.773,10.773,0,0,0-10.857-9.043Z" transform="translate(-337.437 -596.974)" fill="#fff"/>
              <path id="Path_335" data-name="Path 335" d="M375.187,694.578a1.47,1.47,0,0,1-.221-.017c-.824-.123-3.014-.45-7.611-17.469-2.712-10.043-5.426-22.892-7.445-35.252a10.005,10.005,0,0,0-10.023-8.349l-12.279.259a.827.827,0,0,1-.821-1.023,91.235,91.235,0,0,1,3.465-11.406c3.589-8.828,6.183-15.206,17.353-20.17a32.057,32.057,0,0,1,5.12-1.751l6.4-1.64c1.13-.238,26.96-5.512,36.79,5.436.131.146.268.294.408.447a13.833,13.833,0,0,1,2.081,2.687l6,10.626a.827.827,0,0,1-.462,1.193l-.063.021a9.931,9.931,0,0,0-5.893,13.7c4.263,8.906,8.522,15.069,12.317,17.822,1.2.874,10.427,5.52,13.879,7.237a.828.828,0,0,1,.434.54c.108.432,2.413,10.665-18.441,17.654-4.587,1.537-8.97,2.854-12.836,4.016-13.314,4-22.934,6.891-26.557,14.232A1.793,1.793,0,0,1,375.187,694.578Zm-.093-1.631Zm-25-61.113a11.66,11.66,0,0,1,11.448,9.739c1.988,12.171,4.661,24.854,7.332,34.8,3.849,14.332,5.872,16.266,6.272,16.518a1.338,1.338,0,0,0,.154-.253c3.942-7.986,13.851-10.964,27.565-15.084,3.855-1.158,8.223-2.471,12.786-4,17.13-5.741,17.542-13.6,17.406-15.338-2.167-1.081-12.3-6.152-13.723-7.185-4.075-2.955-8.394-9.162-12.838-18.446a11.584,11.584,0,0,1,5.993-15.661l-5.532-9.8a12.625,12.625,0,0,0-1.851-2.367c-.144-.157-.286-.311-.421-.461-9.193-10.24-34.925-4.984-35.183-4.93L363.135,601a30.377,30.377,0,0,0-4.858,1.66c-10.561,4.693-12.92,10.5-16.492,19.282a85.125,85.125,0,0,0-3.13,10.129l11.2-.235Z" transform="translate(-336.764 -596.281)"/>
            </g>
            <g id="Group_177" data-name="Group 177" transform="translate(3.927 35.598)">
              <path id="Path_336" data-name="Path 336" d="M416.793,692.394l-9.382-3.415a4.253,4.253,0,0,0-4.112.676l-4.436,3.55a4.238,4.238,0,0,1-3,.912c-4.716-.388-26.113-6.993-28.235-10.773-1.049-1.869-2.387-8.242-3.366-13.513a9.158,9.158,0,0,0-9.2-7.487l-9.671.211s2.465,23.324,10.252,30.9c6.045,5.88,20.441,9,41.4,8.072a13.521,13.521,0,0,0,8.125-4.748c2.389-2.761,8.078-1.228,11.478-2A1.243,1.243,0,0,0,416.793,692.394Z" transform="translate(-344.559 -661.516)" fill="#fff"/>
              <path id="Path_337" data-name="Path 337" d="M389.266,701.839c-16.962,0-29.2-2.946-34.877-8.466-7.911-7.693-10.4-30.439-10.5-31.4a.826.826,0,0,1,.8-.914l9.671-.211a9.956,9.956,0,0,1,10.036,8.163c1.328,7.156,2.491,11.865,3.274,13.259,1.808,3.221,22.388,9.926,27.582,10.354a3.4,3.4,0,0,0,2.415-.734l4.436-3.55a5.11,5.11,0,0,1,4.912-.807l9.382,3.415a2.069,2.069,0,0,1-.248,3.962,19.693,19.693,0,0,1-4.354.271c-2.642-.019-5.378-.039-6.682,1.468a14.271,14.271,0,0,1-8.671,5.03Q392.732,701.84,389.266,701.839ZM345.643,662.69c.548,4.318,3.264,23.044,9.9,29.5,6.029,5.863,20.9,8.719,40.789,7.838a12.908,12.908,0,0,0,7.536-4.463c1.8-2.085,5.067-2.062,7.945-2.04a18.6,18.6,0,0,0,3.974-.229.415.415,0,0,0,.05-.8l-9.382-3.415a3.444,3.444,0,0,0-3.312.544l-4.436,3.55a5.054,5.054,0,0,1-3.585,1.091c-4.628-.38-26.535-7-28.889-11.192-.894-1.593-2.057-6.225-3.458-13.766A8.3,8.3,0,0,0,354.4,662.5Z" transform="translate(-343.887 -660.843)"/>
            </g>
          </g>
        </g>
        <g id="Group_182" data-name="Group 182" transform="translate(47.494 16.757)">
          <g id="Group_181" data-name="Group 181">
            <g id="Group_180" data-name="Group 180">
              <path id="Path_338" data-name="Path 338" d="M397.071,579.142s7.635-16.576,8.1-18.65a3.734,3.734,0,0,1-1.146-3.742c.841-4.981,5.48-1.848,5.48-1.848l.472.181a15.379,15.379,0,0,0,8.654.705l6.074-1.262s.936,2.294-1.022,6.225a14.348,14.348,0,0,0-1.06,6.6,1.166,1.166,0,0,1-1.141,1.186l-1.583.034a10.769,10.769,0,0,1-3.43,3.825,1.887,1.887,0,0,1-1.406.308,8.7,8.7,0,0,1-2.772-1.04l-1.839,7.218,3.866.414s.784,4.778-6.948,7.144c-4.269,1.306-9.923.182-14.132-1.087a2.4,2.4,0,0,1-.242-4.511Z" transform="translate(-390.691 -553.1)" fill="#fff"/>
              <path id="Path_339" data-name="Path 339" d="M402.339,587.175a36.2,36.2,0,0,1-10.017-1.7,3.225,3.225,0,0,1-.322-6.066l3.782-1.581c2.84-6.173,6.956-15.348,7.777-17.763a4.773,4.773,0,0,1-1.027-4.128,3.924,3.924,0,0,1,2.122-3.254c1.865-.8,4.048.48,4.552.8l.39.15a14.527,14.527,0,0,0,8.189.668l6.074-1.262a.826.826,0,0,1,.933.5c.045.108,1.054,2.688-1.048,6.905a13.746,13.746,0,0,0-.973,6.221,2,2,0,0,1-1.95,2.027l-1.13.024a11.14,11.14,0,0,1-3.433,3.69,2.73,2.73,0,0,1-2.024.439,9.386,9.386,0,0,1-2.075-.647l-1.348,5.29,2.917.312a.827.827,0,0,1,.728.689c.037.224.806,5.52-7.522,8.069A15.784,15.784,0,0,1,402.339,587.175Zm3.632-33.094a1.681,1.681,0,0,0-.668.125c-.573.247-.957.922-1.14,2.007a2.963,2.963,0,0,0,.818,2.937.847.847,0,0,1,.32.847c-.465,2.1-7.366,17.113-8.151,18.817a.827.827,0,0,1-.433.417l-4.08,1.7a1.571,1.571,0,0,0,.162,2.956c3.953,1.192,9.532,2.348,13.651,1.088,5.338-1.633,6.243-4.382,6.37-5.609l-3.134-.335a.826.826,0,0,1-.713-1.027l1.839-7.218a.827.827,0,0,1,1.218-.511,7.85,7.85,0,0,0,2.5.941,1.065,1.065,0,0,0,.788-.177,9.928,9.928,0,0,0,3.187-3.566.829.829,0,0,1,.693-.4l1.584-.034a.339.339,0,0,0,.331-.345,15.183,15.183,0,0,1,1.146-6.987,8.965,8.965,0,0,0,1.125-4.879l-5.268,1.094A16.177,16.177,0,0,1,409,555.18l-.472-.182a.816.816,0,0,1-.166-.086A5.03,5.03,0,0,0,405.97,554.081ZM396.4,578.467h0Z" transform="translate(-390.018 -552.426)"/>
            </g>
            <path id="Path_340" data-name="Path 340" d="M427.7,585.736a.821.821,0,0,1-.446-.131l-1-.64a.827.827,0,1,1,.893-1.393l1,.64a.827.827,0,0,1-.447,1.523Z" transform="translate(-406.102 -566.34)"/>
          </g>
        </g>
        <g id="Group_183" data-name="Group 183" transform="translate(81.733 66.801)">
          <path id="Path_341" data-name="Path 341" d="M534.146,689.84l-46.348.3,28.522-44.023a5.9,5.9,0,0,1,4.939-2.686l37.614-.244a2.947,2.947,0,0,1,2.593,4.506Z" transform="translate(-468.123 -643.188)"/>
          <path id="Path_342" data-name="Path 342" d="M558.3,685.522a6.689,6.689,0,0,1-4.92,2.9c-1.7.011-2.251-1.268-1.233-2.857a6.687,6.687,0,0,1,4.92-2.9C558.766,682.655,559.318,683.934,558.3,685.522Z" transform="translate(-496.762 -660.899)" fill="#fff"/>
          <path id="Path_343" data-name="Path 343" d="M516.1,727.758l-61.572.409c-1.272.009-2.316-2.051-2.332-4.6l-.081-.7,66.178-.44.081.7C518.389,725.677,517.371,727.75,516.1,727.758Z" transform="translate(-452.114 -678.734)"/>
          <path id="Path_344" data-name="Path 344" d="M491.948,732.53a.827.827,0,0,1-.007-1.654l36.714-.277h.007a.827.827,0,0,1,.006,1.654l-36.714.277Z" transform="translate(-469.613 -682.402)" fill="#5479f7"/>
        </g>
      </g>
    </g>
  </g>
</svg>
